<?xml version='1.0' encoding='UTF-8' standalone='no'?>
<!-- Created with Fritzing (http://www.fritzing.org/) -->
<svg xmlns:svg='http://www.w3.org/2000/svg' xmlns='http://www.w3.org/2000/svg' version='1.2' baseProfile='tiny' x='0in' y='0in' width='3.61458in' height='2.72917in' viewBox='0 0 260.25 196.5' >
<g partID='58150'><g transform='translate(152.25,8.25008)' ><g id="schematic">
<rect stroke-linecap="round" x="14.85" y="14.85" height="135.9" stroke-width="0.9" class="interior rect" width="78.3" stroke="#000000" fill="#FFFFFF"/>
<line stroke-linecap="round" y2="28.8" x2="107.65" x1="93.2499" stroke-width="0.699999" id="connector61pin" y1="28.8" class="pin" stroke="#787878" fill="none"/>
<text x="91.8499" stroke-width="0" y="29.4999" font-size="3.49999" font-family="'Droid Sans'" class="text" stroke="none" fill="#8c8c8c" text-anchor="end">D0/RX</text>
<g x="107.65" y="28.4499" height="0.699999" stroke-width="0" id="connector61terminal" class="terminal" width="0.699999" stroke="none" fill="none"/>
<line stroke-linecap="round" y2="36" x2="107.65" x1="93.2499" stroke-width="0.699999" id="connector62pin" y1="36" class="pin" stroke="#787878" fill="none"/>
<text x="91.8499" stroke-width="0" y="36.6999" font-size="3.49999" font-family="'Droid Sans'" class="text" stroke="none" fill="#8c8c8c" text-anchor="end">D1/TX</text>
<g x="107.65" y="35.6499" height="0.699999" stroke-width="0" id="connector62terminal" class="terminal" width="0.699999" stroke="none" fill="none"/>
<line stroke-linecap="round" y2="43.2" x2="107.65" x1="93.2499" stroke-width="0.699999" id="connector63pin" y1="43.2" class="pin" stroke="#787878" fill="none"/>
<text x="91.8499" stroke-width="0" y="43.8999" font-size="3.49999" font-family="'Droid Sans'" class="text" stroke="none" fill="#8c8c8c" text-anchor="end">D2</text>
<g x="107.65" y="42.8499" height="0.699999" stroke-width="0" id="connector63terminal" class="terminal" width="0.699999" stroke="none" fill="none"/>
<line stroke-linecap="round" y2="50.4" x2="107.65" x1="93.2499" stroke-width="0.699999" id="connector64pin" y1="50.4" class="pin" stroke="#787878" fill="none"/>
<text x="91.8499" stroke-width="0" y="51.0999" font-size="3.49999" font-family="'Droid Sans'" class="text" stroke="none" fill="#8c8c8c" text-anchor="end">D3 PWM</text>
<g x="107.65" y="50.0499" height="0.699999" stroke-width="0" id="connector64terminal" class="terminal" width="0.699999" stroke="none" fill="none"/>
<line stroke-linecap="round" y2="57.6" x2="107.65" x1="93.2499" stroke-width="0.699999" id="connector65pin" y1="57.6" class="pin" stroke="#787878" fill="none"/>
<text x="91.8499" stroke-width="0" y="58.2999" font-size="3.49999" font-family="'Droid Sans'" class="text" stroke="none" fill="#8c8c8c" text-anchor="end">D4</text>
<g x="107.65" y="57.2499" height="0.699999" stroke-width="0" id="connector65terminal" class="terminal" width="0.699999" stroke="none" fill="none"/>
<line stroke-linecap="round" y2="64.8" x2="107.65" x1="93.2499" stroke-width="0.699999" id="connector66pin" y1="64.8" class="pin" stroke="#787878" fill="none"/>
<text x="91.8499" stroke-width="0" y="65.4999" font-size="3.49999" font-family="'Droid Sans'" class="text" stroke="none" fill="#8c8c8c" text-anchor="end">D5 PWM</text>
<g x="107.65" y="64.4499" height="0.699999" stroke-width="0" id="connector66terminal" class="terminal" width="0.699999" stroke="none" fill="none"/>
<line stroke-linecap="round" y2="72" x2="107.65" x1="93.2499" stroke-width="0.699999" id="connector67pin" y1="72" class="pin" stroke="#787878" fill="none"/>
<text x="91.8499" stroke-width="0" y="72.6999" font-size="3.49999" font-family="'Droid Sans'" class="text" stroke="none" fill="#8c8c8c" text-anchor="end">D6 PWM</text>
<g x="107.65" y="71.6499" height="0.699999" stroke-width="0" id="connector67terminal" class="terminal" width="0.699999" stroke="none" fill="none"/>
<line stroke-linecap="round" y2="79.2" x2="107.65" x1="93.2499" stroke-width="0.699999" id="connector68pin" y1="79.2" class="pin" stroke="#787878" fill="none"/>
<text x="91.8499" stroke-width="0" y="79.8999" font-size="3.49999" font-family="'Droid Sans'" class="text" stroke="none" fill="#8c8c8c" text-anchor="end">D7</text>
<g x="107.65" y="78.8499" height="0.699999" stroke-width="0" id="connector68terminal" class="terminal" width="0.699999" stroke="none" fill="none"/>
<line stroke-linecap="round" y2="86.4" x2="107.65" x1="93.2499" stroke-width="0.699999" id="connector51pin" y1="86.4" class="pin" stroke="#787878" fill="none"/>
<text x="91.8499" stroke-width="0" y="87.0999" font-size="3.49999" font-family="'Droid Sans'" class="text" stroke="none" fill="#8c8c8c" text-anchor="end">D8</text>
<g x="107.65" y="86.0499" height="0.699999" stroke-width="0" id="connector51terminal" class="terminal" width="0.699999" stroke="none" fill="none"/>
<line stroke-linecap="round" y2="93.6" x2="107.65" x1="93.2499" stroke-width="0.699999" id="connector52pin" y1="93.6" class="pin" stroke="#787878" fill="none"/>
<text x="91.8499" stroke-width="0" y="94.2999" font-size="3.49999" font-family="'Droid Sans'" class="text" stroke="none" fill="#8c8c8c" text-anchor="end">D9 PWM</text>
<g x="107.65" y="93.2499" height="0.699999" stroke-width="0" id="connector52terminal" class="terminal" width="0.699999" stroke="none" fill="none"/>
<line stroke-linecap="round" y2="100.8" x2="107.65" x1="93.2499" stroke-width="0.699999" id="connector53pin" y1="100.8" class="pin" stroke="#787878" fill="none"/>
<text x="91.8499" stroke-width="0" y="101.5" font-size="3.49999" font-family="'Droid Sans'" class="text" stroke="none" fill="#8c8c8c" text-anchor="end">D10 PWM/SS</text>
<g x="107.65" y="100.45" height="0.699999" stroke-width="0" id="connector53terminal" class="terminal" width="0.699999" stroke="none" fill="none"/>
<line stroke-linecap="round" y2="108" x2="107.65" x1="93.2499" stroke-width="0.699999" id="connector54pin" y1="108" class="pin" stroke="#787878" fill="none"/>
<text x="91.8499" stroke-width="0" y="108.7" font-size="3.49999" font-family="'Droid Sans'" class="text" stroke="none" fill="#8c8c8c" text-anchor="end">D11 PWM/MOSI</text>
<g x="107.65" y="107.65" height="0.699999" stroke-width="0" id="connector54terminal" class="terminal" width="0.699999" stroke="none" fill="none"/>
<line stroke-linecap="round" y2="115.2" x2="107.65" x1="93.2499" stroke-width="0.699999" id="connector55pin" y1="115.2" class="pin" stroke="#787878" fill="none"/>
<text x="91.8499" stroke-width="0" y="115.9" font-size="3.49999" font-family="'Droid Sans'" class="text" stroke="none" fill="#8c8c8c" text-anchor="end">D12/MISO</text>
<g x="107.65" y="114.85" height="0.699999" stroke-width="0" id="connector55terminal" class="terminal" width="0.699999" stroke="none" fill="none"/>
<line stroke-linecap="round" y2="122.4" x2="107.65" x1="93.2499" stroke-width="0" id="connector41pin" y1="122.4" class="pin" stroke="none" fill="none"/>
<rect x="107.65" y="122.05" height="0.699999" stroke-width="0" id="connector41terminal" class="terminal" width="0.699999" stroke="none" fill="none"/>
<line stroke-linecap="round" y2="122.4" x2="107.65" x1="93.2499" stroke-width="0.699999" id="connector56pin" y1="122.4" class="pin" stroke="#787878" fill="none"/>
<text x="91.8499" stroke-width="0" y="123.1" font-size="3.49999" font-family="'Droid Sans'" class="text" stroke="none" fill="#8c8c8c" text-anchor="end">D13/SCK</text>
<g x="107.65" y="122.05" height="0.699999" stroke-width="0" id="connector56terminal" class="terminal" width="0.699999" stroke="none" fill="none"/>
<line stroke-linecap="round" y2="28.8" x2="14.75" x1="0.349999" stroke-width="0" id="connector43pin" y1="28.8" class="pin" stroke="none" fill="none"/>
<rect x="-0.349999" y="28.4499" height="0.699999" stroke-width="0" id="connector43terminal" class="terminal" width="0.699999" stroke="none" fill="none"/>
<line stroke-linecap="round" y2="28.8" x2="14.75" x1="0.349999" stroke-width="0.699999" id="connector85pin" y1="28.8" class="pin" stroke="#787878" fill="none"/>
<text x="16.15" stroke-width="0" y="29.4999" font-size="3.49999" font-family="'Droid Sans'" class="text" stroke="none" fill="#8c8c8c" text-anchor="start">RESET</text>
<g x="-0.349999" y="28.4499" height="0.699999" stroke-width="0" id="connector85terminal" class="terminal" width="0.699999" stroke="none" fill="none"/>
<line stroke-linecap="round" y2="36" x2="14.75" x1="0.349999" stroke-width="0.699999" id="connector49pin" y1="36" class="pin" stroke="#787878" fill="none"/>
<text x="16.15" stroke-width="0" y="36.6999" font-size="3.49999" font-family="'Droid Sans'" class="text" stroke="none" fill="#8c8c8c" text-anchor="start">RESET2</text>
<rect x="-0.349999" y="35.6499" height="0.699999" stroke-width="0" id="connector49terminal" class="terminal" width="0.699999" stroke="none" fill="none"/>
<line stroke-linecap="round" y2="43.2" x2="14.75" x1="0.349999" stroke-width="0.699999" id="connector58pin" y1="43.2" class="pin" stroke="#787878" fill="none"/>
<text x="16.15" stroke-width="0" y="43.8999" font-size="3.49999" font-family="'Droid Sans'" class="text" stroke="none" fill="#8c8c8c" text-anchor="start">AREF</text>
<g x="-0.349999" y="42.8499" height="0.699999" stroke-width="0" id="connector58terminal" class="terminal" width="0.699999" stroke="none" fill="none"/>
<line stroke-linecap="round" y2="50.4" x2="14.75" x1="0.349999" stroke-width="0.699999" id="connector84pin" y1="50.4" class="pin" stroke="#787878" fill="none"/>
<text x="16.15" stroke-width="0" y="51.0999" font-size="3.49999" font-family="'Droid Sans'" class="text" stroke="none" fill="#8c8c8c" text-anchor="start">ioref</text>
<g x="-0.349999" y="50.0499" height="0.699999" stroke-width="0" id="connector84terminal" class="terminal" width="0.699999" stroke="none" fill="none"/>
<line stroke-linecap="round" y2="64.8" x2="14.75" x1="0.349999" stroke-width="0.699999" id="connector0pin" y1="64.8" class="pin" stroke="#787878" fill="none"/>
<text x="16.15" stroke-width="0" y="65.4999" font-size="3.49999" font-family="'Droid Sans'" class="text" stroke="none" fill="#8c8c8c" text-anchor="start">A0</text>
<g x="-0.349999" y="64.4499" height="0.699999" stroke-width="0" id="connector0terminal" class="terminal" width="0.699999" stroke="none" fill="none"/>
<line stroke-linecap="round" y2="72" x2="14.75" x1="0.349999" stroke-width="0.699999" id="connector1pin" y1="72" class="pin" stroke="#787878" fill="none"/>
<text x="16.15" stroke-width="0" y="72.6999" font-size="3.49999" font-family="'Droid Sans'" class="text" stroke="none" fill="#8c8c8c" text-anchor="start">A1</text>
<g x="-0.349999" y="71.6499" height="0.699999" stroke-width="0" id="connector1terminal" class="terminal" width="0.699999" stroke="none" fill="none"/>
<line stroke-linecap="round" y2="79.2" x2="14.75" x1="0.349999" stroke-width="0.699999" id="connector2pin" y1="79.2" class="pin" stroke="#787878" fill="none"/>
<text x="16.15" stroke-width="0" y="79.8999" font-size="3.49999" font-family="'Droid Sans'" class="text" stroke="none" fill="#8c8c8c" text-anchor="start">A2</text>
<g x="-0.349999" y="78.8499" height="0.699999" stroke-width="0" id="connector2terminal" class="terminal" width="0.699999" stroke="none" fill="none"/>
<line stroke-linecap="round" y2="86.4" x2="14.75" x1="0.349999" stroke-width="0.699999" id="connector3pin" y1="86.4" class="pin" stroke="#787878" fill="none"/>
<text x="16.15" stroke-width="0" y="87.0999" font-size="3.49999" font-family="'Droid Sans'" class="text" stroke="none" fill="#8c8c8c" text-anchor="start">A3</text>
<g x="-0.349999" y="86.0499" height="0.699999" stroke-width="0" id="connector3terminal" class="terminal" width="0.699999" stroke="none" fill="none"/>
<line stroke-linecap="round" y2="93.6" x2="14.75" x1="0.349999" stroke-width="0" id="connector48pin" y1="93.6" class="pin" stroke="none" fill="none"/>
<rect x="-0.349999" y="93.2499" height="0.699999" stroke-width="0" id="connector48terminal" class="terminal" width="0.699999" stroke="none" fill="none"/>
<line stroke-linecap="round" y2="93.6" x2="14.75" x1="0.349999" stroke-width="0" id="connector45pin" y1="93.6" class="pin" stroke="none" fill="none"/>
<rect x="-0.349999" y="93.2499" height="0.699999" stroke-width="0" id="connector45terminal" class="terminal" width="0.699999" stroke="none" fill="none"/>
<line stroke-linecap="round" y2="93.6" x2="14.75" x1="0.349999" stroke-width="0" id="connector4pin" y1="93.6" class="pin" stroke="none" fill="none"/>
<g x="-0.349999" y="93.2499" height="0.699999" stroke-width="0" id="connector4terminal" class="terminal" width="0.699999" stroke="none" fill="none"/>
<line stroke-linecap="round" y2="93.6" x2="14.75" x1="0.349999" stroke-width="0" id="connector39pin" y1="93.6" class="pin" stroke="none" fill="none"/>
<rect x="-0.349999" y="93.2499" height="0.699999" stroke-width="0" id="connector39terminal" class="terminal" width="0.699999" stroke="none" fill="none"/>
<line stroke-linecap="round" y2="93.6" x2="14.75" x1="0.349999" stroke-width="0" id="connector47pin" y1="93.6" class="pin" stroke="none" fill="none"/>
<rect x="-0.349999" y="93.2499" height="0.699999" stroke-width="0" id="connector47terminal" class="terminal" width="0.699999" stroke="none" fill="none"/>
<line stroke-linecap="round" y2="93.6" x2="14.75" x1="0.349999" stroke-width="0" id="connector42pin" y1="93.6" class="pin" stroke="none" fill="none"/>
<rect x="-0.349999" y="93.2499" height="0.699999" stroke-width="0" id="connector42terminal" class="terminal" width="0.699999" stroke="none" fill="none"/>
<line stroke-linecap="round" y2="93.6" x2="14.75" x1="0.349999" stroke-width="0.699999" id="connector59pin" y1="93.6" class="pin" stroke="#787878" fill="none"/>
<text x="16.15" stroke-width="0" y="94.2999" font-size="3.49999" font-family="'Droid Sans'" class="text" stroke="none" fill="#8c8c8c" text-anchor="start">A4/SDA</text>
<g x="-0.349999" y="93.2499" height="0.699999" stroke-width="0" id="connector59terminal" class="terminal" width="0.699999" stroke="none" fill="none"/>
<line stroke-linecap="round" y2="100.8" x2="14.75" x1="0.349999" stroke-width="0" id="connector5pin" y1="100.8" class="pin" stroke="none" fill="none"/>
<g x="-0.349999" y="100.45" height="0.699999" stroke-width="0" id="connector5terminal" class="terminal" width="0.699999" stroke="none" fill="none"/>
<line stroke-linecap="round" y2="100.8" x2="14.75" x1="0.349999" stroke-width="0.699999" id="connector60pin" y1="100.8" class="pin" stroke="#787878" fill="none"/>
<text x="16.15" stroke-width="0" y="101.5" font-size="3.49999" font-family="'Droid Sans'" class="text" stroke="none" fill="#8c8c8c" text-anchor="start">A5/SCL</text>
<g x="-0.349999" y="100.45" height="0.699999" stroke-width="0" id="connector60terminal" class="terminal" width="0.699999" stroke="none" fill="none"/>
<line stroke-linecap="round" y2="136.8" x2="14.75" x1="0.349999" stroke-width="0.699999" id="connector91pin" y1="136.8" class="pin" stroke="#787878" fill="none"/>
<text x="16.15" stroke-width="0" y="137.5" font-size="3.49999" font-family="'Droid Sans'" class="text" stroke="none" fill="#8c8c8c" text-anchor="start">N/C</text>
<g x="-0.349999" y="136.45" height="0.699999" stroke-width="0" id="connector91terminal" class="terminal" width="0.699999" stroke="none" fill="none"/>
<line stroke-linecap="round" y2="165.25" x2="57.6" x1="57.6" stroke-width="0" id="connector88pin" y1="150.85" class="pin" stroke="none" fill="none"/>
<g x="57.2499" y="165.25" height="0.699999" stroke-width="0" id="connector88terminal" class="terminal" width="0.699999" stroke="none" fill="none"/>
<line stroke-linecap="round" y2="165.25" x2="57.6" x1="57.6" stroke-width="0" id="connector57pin" y1="150.85" class="pin" stroke="none" fill="none"/>
<g x="57.2499" y="165.25" height="0.699999" stroke-width="0" id="connector57terminal" class="terminal" width="0.699999" stroke="none" fill="none"/>
<line stroke-linecap="round" y2="165.25" x2="57.6" x1="57.6" stroke-width="0" id="connector44pin" y1="150.85" class="pin" stroke="none" fill="none"/>
<rect x="57.2499" y="165.25" height="0.699999" stroke-width="0" id="connector44terminal" class="terminal" width="0.699999" stroke="none" fill="none"/>
<line stroke-linecap="round" y2="165.25" x2="57.6" x1="57.6" stroke-width="0" id="connector50pin" y1="150.85" class="pin" stroke="none" fill="none"/>
<rect x="57.2499" y="165.25" height="0.699999" stroke-width="0" id="connector50terminal" class="terminal" width="0.699999" stroke="none" fill="none"/>
<line stroke-linecap="round" y2="165.25" x2="57.6" x1="57.6" stroke-width="0.699999" id="connector89pin" y1="150.85" class="pin" stroke="#787878" fill="none"/>
<g transform="matrix(1, 0, 0, 1, 58.2999, 149.45)">
<g>
<g transform="rotate(270)">
<g>
<text x="0" stroke-width="0" y="0" font-size="3.49999" font-family="'Droid Sans'" class="text" stroke="none" fill="#8c8c8c" text-anchor="start">GND</text>
</g>
</g>
</g>
</g>
<g x="57.2499" y="165.25" height="0.699999" stroke-width="0" id="connector89terminal" class="terminal" width="0.699999" stroke="none" fill="none"/>
<line stroke-linecap="round" y2="14.75" x2="36" x1="36" stroke-width="0.699999" id="connector86pin" y1="0.349999" class="pin" stroke="#787878" fill="none"/>
<g transform="matrix(1, 0, 0, 1, 36.6999, 16.15)">
<g>
<g transform="rotate(270)">
<g>
<text x="0" stroke-width="0" y="0" font-size="3.49999" font-family="'Droid Sans'" class="text" stroke="none" fill="#8c8c8c" text-anchor="end">3V3</text>
</g>
</g>
</g>
</g>
<g x="35.6499" y="-0.349999" height="0.699999" stroke-width="0" id="connector86terminal" class="terminal" width="0.699999" stroke="none" fill="none"/>
<line stroke-linecap="round" y2="14.75" x2="50.4" x1="50.4" stroke-width="0" id="connector40pin" y1="0.349999" class="pin" stroke="none" fill="none"/>
<rect x="50.0499" y="-0.349999" height="0.699999" stroke-width="0" id="connector40terminal" class="terminal" width="0.699999" stroke="none" fill="none"/>
<line stroke-linecap="round" y2="14.75" x2="50.4" x1="50.4" stroke-width="0" id="connector46pin" y1="0.349999" class="pin" stroke="none" fill="none"/>
<rect x="50.0499" y="-0.349999" height="0.699999" stroke-width="0" id="connector46terminal" class="terminal" width="0.699999" stroke="none" fill="none"/>
<line stroke-linecap="round" y2="14.75" x2="50.4" x1="50.4" stroke-width="0.699999" id="connector87pin" y1="0.349999" class="pin" stroke="#787878" fill="none"/>
<g transform="matrix(1, 0, 0, 1, 51.0999, 16.15)">
<g>
<g transform="rotate(270)">
<g>
<text x="0" stroke-width="0" y="0" font-size="3.49999" font-family="'Droid Sans'" class="text" stroke="none" fill="#8c8c8c" text-anchor="end">5V</text>
</g>
</g>
</g>
</g>
<g x="50.0499" y="-0.349999" height="0.699999" stroke-width="0" id="connector87terminal" class="terminal" width="0.699999" stroke="none" fill="none"/>
<line stroke-linecap="round" y2="14.75" x2="64.8" x1="64.8" stroke-width="0.699999" id="connector90pin" y1="0.349999" class="pin" stroke="#787878" fill="none"/>
<g transform="matrix(1, 0, 0, 1, 65.4999, 16.15)">
<g>
<g transform="rotate(270)">
<g>
<text x="0" stroke-width="0" y="0" font-size="3.49999" font-family="'Droid Sans'" class="text" stroke="none" fill="#8c8c8c" text-anchor="end">VIN</text>
</g>
</g>
</g>
</g>
<g x="64.4499" y="-0.349999" height="0.699999" stroke-width="0" id="connector90terminal" class="terminal" width="0.699999" stroke="none" fill="none"/>
<text x="54.4501" id="label" stroke-width="0" y="76.4498" font-size="4.25001" font-family="'Droid Sans'" class="text" stroke="none" fill="#000000" text-anchor="middle">Arduino</text>
<text x="54.4501" id="label" stroke-width="0" y="80.9833" font-size="4.25001" font-family="'Droid Sans'" class="text" stroke="none" fill="#000000" text-anchor="middle">Uno</text>
<text x="54.4501" id="label" stroke-width="0" y="85.5167" font-size="4.25001" font-family="'Droid Sans'" class="text" stroke="none" fill="#000000" text-anchor="middle">(Rev3)</text>
</g>
</g></g><g partID='854194290'><g transform='translate(29.4998,87.0899)' ><g id="schematic" xmlns="http://www.w3.org/2000/svg">
<rect x="14.75" y="0.36" height="28.8" stroke-width="0" xmlns="http://www.w3.org/2000/svg" class="interior rect" width="43.2" stroke="none" fill="#ffffff"/>
<text x="36.3501" id="label" stroke-width="0" y="12.4933" font-size="4.25001" font-family="'Droid Sans'" xmlns="http://www.w3.org/2000/svg" class="text" stroke="none" fill="#000000" text-anchor="middle">MCP4725</text>
<line stroke-linecap="round" y2="29.16" x2="57.9501" x1="14.75" stroke-width="0.9" xmlns="http://www.w3.org/2000/svg" y1="29.16" class="other" stroke="#000000"/>
<line stroke-linecap="round" y2="0.36" x2="57.9501" x1="57.9501" stroke-width="0.9" xmlns="http://www.w3.org/2000/svg" y1="29.16" class="other" stroke="#000000"/>
<line stroke-linecap="round" y2="0.36" x2="14.75" x1="57.9501" stroke-width="0.9" xmlns="http://www.w3.org/2000/svg" y1="0.36" class="other" stroke="#000000"/>
<line stroke-linecap="round" y2="29.16" x2="14.75" x1="14.75" stroke-width="0.9" xmlns="http://www.w3.org/2000/svg" y1="0.36" class="other" stroke="#000000"/>
<line stroke-linecap="round" y2="7.56" x2="14.75" id="connector2pin" x1="0.349999" stroke-width="0.699998" xmlns="http://www.w3.org/2000/svg" y1="7.56" class="pin" connectorname="VOUT" stroke="#787878"/>
<g x="0.349999" id="connector2terminal" y="7.56" height="0.000283465" stroke-width="0" xmlns="http://www.w3.org/2000/svg" class="terminal" width="0.000283464" stroke="none" fill="none"/>
<text x="7.54999" stroke-width="0" y="6.50999" font-size="2.5" font-family="'Droid Sans'" xmlns="http://www.w3.org/2000/svg" class="text" stroke="none" fill="#8c8c8c" text-anchor="middle">3</text>
<text x="16.85" stroke-width="0" y="8.25999" font-size="3.49999" font-family="'Droid Sans'" xmlns="http://www.w3.org/2000/svg" class="text" stroke="none" fill="#787878" text-anchor="start">VOUT</text>
<line stroke-linecap="round" y2="14.76" x2="14.75" id="connector1pin" x1="0.349999" stroke-width="0.699998" xmlns="http://www.w3.org/2000/svg" y1="14.76" class="pin" connectorname="VSS" stroke="#787878"/>
<g x="0.349999" id="connector1terminal" y="14.76" height="0.000283465" stroke-width="0" xmlns="http://www.w3.org/2000/svg" class="terminal" width="0.000283464" stroke="none" fill="none"/>
<text x="7.54999" stroke-width="0" y="13.71" font-size="2.5" font-family="'Droid Sans'" xmlns="http://www.w3.org/2000/svg" class="text" stroke="none" fill="#8c8c8c" text-anchor="middle">2</text>
<text x="16.85" stroke-width="0" y="15.46" font-size="3.49999" font-family="'Droid Sans'" xmlns="http://www.w3.org/2000/svg" class="text" stroke="none" fill="#787878" text-anchor="start">VSS</text>
<line stroke-linecap="round" y2="21.96" x2="14.75" id="connector0pin" x1="0.349999" stroke-width="0.699998" xmlns="http://www.w3.org/2000/svg" y1="21.96" class="pin" connectorname="VDD" stroke="#787878"/>
<g x="0.349999" id="connector0terminal" y="21.96" height="0.000283465" stroke-width="0" xmlns="http://www.w3.org/2000/svg" class="terminal" width="0.000283464" stroke="none" fill="none"/>
<text x="7.54999" stroke-width="0" y="20.91" font-size="2.5" font-family="'Droid Sans'" xmlns="http://www.w3.org/2000/svg" class="text" stroke="none" fill="#8c8c8c" text-anchor="middle">1</text>
<text x="16.85" stroke-width="0" y="22.66" font-size="3.49999" font-family="'Droid Sans'" xmlns="http://www.w3.org/2000/svg" class="text" stroke="none" fill="#787878" text-anchor="start">VDD</text>
<line stroke-linecap="round" y2="7.56" x2="57.9501" id="connector3pin" x1="72.35" stroke-width="0.699998" xmlns="http://www.w3.org/2000/svg" y1="7.56" class="pin" connectorname="AO" stroke="#787878"/>
<g x="72.35" id="connector3terminal" y="7.56" height="0.000283465" stroke-width="0" xmlns="http://www.w3.org/2000/svg" class="terminal" width="0.000283464" stroke="none" fill="none"/>
<text x="65.15" stroke-width="0" y="6.50999" font-size="2.5" font-family="'Droid Sans'" xmlns="http://www.w3.org/2000/svg" class="text" stroke="none" fill="#8c8c8c" text-anchor="middle">4</text>
<text x="55.8499" stroke-width="0" y="8.25999" font-size="3.49999" font-family="'Droid Sans'" xmlns="http://www.w3.org/2000/svg" class="text" stroke="none" fill="#787878" text-anchor="end">AO</text>
<line stroke-linecap="round" y2="14.76" x2="57.9501" id="connector4pin" x1="72.35" stroke-width="0.699998" xmlns="http://www.w3.org/2000/svg" y1="14.76" class="pin" connectorname="SCL" stroke="#787878"/>
<g x="72.35" id="connector4terminal" y="14.76" height="0.000283465" stroke-width="0" xmlns="http://www.w3.org/2000/svg" class="terminal" width="0.000283464" stroke="none" fill="none"/>
<text x="65.15" stroke-width="0" y="13.71" font-size="2.5" font-family="'Droid Sans'" xmlns="http://www.w3.org/2000/svg" class="text" stroke="none" fill="#8c8c8c" text-anchor="middle">5</text>
<text x="55.8499" stroke-width="0" y="15.46" font-size="3.49999" font-family="'Droid Sans'" xmlns="http://www.w3.org/2000/svg" class="text" stroke="none" fill="#787878" text-anchor="end">SCL</text>
<line stroke-linecap="round" y2="21.96" x2="57.9501" id="connector5pin" x1="72.35" stroke-width="0.699998" xmlns="http://www.w3.org/2000/svg" y1="21.96" class="pin" connectorname="SDA" stroke="#787878"/>
<g x="72.35" id="connector5terminal" y="21.96" height="0.000283465" stroke-width="0" xmlns="http://www.w3.org/2000/svg" class="terminal" width="0.000283464" stroke="none" fill="none"/>
<text x="65.15" stroke-width="0" y="20.91" font-size="2.5" font-family="'Droid Sans'" xmlns="http://www.w3.org/2000/svg" class="text" stroke="none" fill="#8c8c8c" text-anchor="middle">6</text>
<text x="55.8499" stroke-width="0" y="22.66" font-size="3.49999" font-family="'Droid Sans'" xmlns="http://www.w3.org/2000/svg" class="text" stroke="none" fill="#787878" text-anchor="end">SDA</text>
</g>
</g></g><g partID='854195470'><g transform='translate(12.7495,159.234)' ><g id="schematic">
<g>
<path d="M13.5,14.966L9.9,14.966c-0.193,0,-0.35,-0.156,-0.35,-0.35s0.156,-0.35,0.35,-0.35L13.5,14.266c0.193,0,0.35,0.156,0.35,0.35S13.694,14.966,13.5,14.966z"/>
</g>
<g>
<path d="M9.9,14.966L6.3,14.966c-0.193,0,-0.35,-0.156,-0.35,-0.35s0.157,-0.35,0.35,-0.35l3.6,0c0.193,0,0.35,0.156,0.35,0.35S10.093,14.966,9.9,14.966z"/>
</g>
<g>
<polygon points="9.9,14.616,6.3,7.416,9.9,7.416,13.5,7.416" fill="#FFFFFF"/>
<path d="M9.9,15.398L5.734,7.066l8.333,0L9.9,15.398zM6.866,7.766L9.9,13.834l3.034,-6.068L6.866,7.766z"/>
</g>
<g>
<path d="M9.9,14.841c-0.124,0,-0.225,-0.101,-0.225,-0.225l0,-7.2c0,-0.124,0.101,-0.225,0.225,-0.225s0.225,0.101,0.225,0.225l0,7.2C10.124,14.74,10.024,14.841,9.9,14.841z"/>
</g>
<g>
<path d="M1.8,12.141c-0.058,0,-0.115,-0.021,-0.159,-0.065c-0.088,-0.088,-0.088,-0.23,0,-0.318l2.34,-2.341c0.088,-0.088,0.23,-0.088,0.318,0s0.088,0.23,0,0.318l-2.34,2.341C1.915,12.12,1.858,12.141,1.8,12.141z"/>
</g>
<g>
<path d="M2.16,15.381c-0.058,0,-0.115,-0.021,-0.159,-0.065c-0.088,-0.088,-0.088,-0.23,0,-0.318l2.34,-2.34c0.088,-0.088,0.23,-0.088,0.318,0s0.088,0.23,0,0.318l-2.34,2.34C2.276,15.359,2.218,15.381,2.16,15.381z"/>
</g>
<g id="connector0pin">
<path d="M9.9,22.166c-0.193,0,-0.35,-0.156,-0.35,-0.35l0,-7.2c0,-0.193,0.156,-0.35,0.35,-0.35s0.35,0.156,0.35,0.35l0,7.2C10.249,22.01,10.093,22.166,9.9,22.166z" fill="#787878"/>
</g>
<g id="connector0terminal">
<rect x="9.9" y="21.816" height="0.001" width="0.001" fill="none"/>
</g>
<g transform="matrix(1, 0, 0, 1, 3.429, 6.4262)">
<g>
<g transform="rotate(270)">
<g>
<g enable-background="new    ">
<path d="M-11.647,5.54l-0.891,0L-12.538,5.388l0.342,-0.372c0.049,-0.053,0.093,-0.101,0.131,-0.145s0.071,-0.086,0.099,-0.128c0.026,-0.042,0.047,-0.084,0.062,-0.125c0.015,-0.043,0.021,-0.088,0.021,-0.138c0,-0.038,-0.005,-0.072,-0.017,-0.102s-0.027,-0.054,-0.047,-0.075c-0.021,-0.02,-0.045,-0.035,-0.073,-0.046s-0.06,-0.016,-0.094,-0.016c-0.062,0,-0.118,0.013,-0.167,0.038c-0.051,0.024,-0.098,0.057,-0.143,0.096l-0.1,-0.116c0.025,-0.023,0.055,-0.046,0.084,-0.065c0.029,-0.021,0.063,-0.039,0.097,-0.054s0.071,-0.026,0.109,-0.036c0.038,-0.008,0.079,-0.013,0.121,-0.013c0.063,0,0.119,0.009,0.169,0.026c0.051,0.018,0.094,0.043,0.129,0.076c0.035,0.032,0.063,0.072,0.082,0.119c0.019,0.048,0.028,0.101,0.028,0.16c0,0.056,-0.009,0.108,-0.026,0.158c-0.017,0.05,-0.041,0.1,-0.07,0.148c-0.031,0.048,-0.066,0.097,-0.109,0.146c-0.041,0.049,-0.087,0.1,-0.136,0.152L-12.32,5.37l0,0.008l0.673,0L-11.647,5.54z" fill="#787878"/>
</g>
</g>
</g>
</g>
</g>
<g id="connector1pin">
<path d="M9.9,7.766c-0.193,0,-0.35,-0.157,-0.35,-0.35l0,-7.2c0,-0.193,0.156,-0.35,0.35,-0.35s0.35,0.157,0.35,0.35l0,7.2C10.249,7.609,10.093,7.766,9.9,7.766z" fill="#787878"/>
</g>
<g id="connector1terminal">
<polygon points="9.9,0.216,9.901,0.216,9.901,0.216" fill="none"/>
</g>
<g transform="matrix(1, 0, 0, 1, 3.429, 1.3462)">
<g>
<g transform="rotate(270)">
<g>
<g enable-background="new    ">
<path d="M-2.616,5.54l-0.172,0L-2.788,4.648c0,-0.028,0,-0.058,0,-0.09s0.001,-0.063,0.002,-0.095c0.001,-0.032,0.002,-0.063,0.003,-0.092c0.001,-0.028,0.002,-0.054,0.002,-0.076c-0.011,0.012,-0.021,0.021,-0.029,0.03s-0.017,0.017,-0.026,0.024s-0.018,0.016,-0.028,0.025c-0.01,0.008,-0.021,0.019,-0.035,0.03l-0.145,0.118l-0.094,-0.12l0.374,-0.292l0.146,0L-2.618,5.54z" fill="#787878"/>
</g>
</g>
</g>
</g>
</g>
<g>
<path d="M0.18,13.536l1.08,-2.521l1.44,1.438L0.18,13.536z"/>
</g>
<g>
<path d="M0.54,16.776l1.08,-2.521l1.438,1.438L0.54,16.776z"/>
</g>
</g>
</g></g><g partID='854196450'><g transform='translate(25.7461,123.1)' ><g transform='matrix(0,1,-1,0,0,0)'  ><g id="schematic" xmlns="http://www.w3.org/2000/svg">
<line stroke-linecap="round" y2="0.216" x2="8.63003" x1="7.55002" stroke-width="0.432002" xmlns="http://www.w3.org/2000/svg" y1="3.096" class="other" stroke="#000000"/>
<line stroke-linecap="round" y2="5.976" x2="10.43" x1="8.63003" stroke-width="0.432002" xmlns="http://www.w3.org/2000/svg" y1="0.216" class="other" stroke="#000000"/>
<line stroke-linecap="round" y2="0.216" x2="12.23" x1="10.43" stroke-width="0.432002" xmlns="http://www.w3.org/2000/svg" y1="5.976" class="other" stroke="#000000"/>
<line stroke-linecap="round" y2="5.976" x2="14.03" x1="12.23" stroke-width="0.432002" xmlns="http://www.w3.org/2000/svg" y1="0.216" class="other" stroke="#000000"/>
<line stroke-linecap="round" y2="0.216" x2="15.8301" x1="14.03" stroke-width="0.432002" xmlns="http://www.w3.org/2000/svg" y1="5.976" class="other" stroke="#000000"/>
<line stroke-linecap="round" y2="5.976" x2="17.6301" x1="15.8301" stroke-width="0.432002" xmlns="http://www.w3.org/2000/svg" y1="0.216" class="other" stroke="#000000"/>
<line stroke-linecap="round" y2="0.216" x2="19.4301" x1="17.6301" stroke-width="0.432002" xmlns="http://www.w3.org/2000/svg" y1="5.976" class="other" stroke="#000000"/>
<line stroke-linecap="round" y2="5.976" x2="21.2301" x1="19.4301" stroke-width="0.432002" xmlns="http://www.w3.org/2000/svg" y1="0.216" class="other" stroke="#000000"/>
<line stroke-linecap="round" y2="3.096" x2="21.9501" x1="21.2301" stroke-width="0.432002" xmlns="http://www.w3.org/2000/svg" y1="5.976" class="other" stroke="#000000"/>
<line stroke-linecap="round" y2="3.096" x2="21.9501" id="connector1pin" x1="29.1502" stroke-width="0.700001" xmlns="http://www.w3.org/2000/svg" y1="3.096" class="pin" connectorname="2" stroke="#787878"/>
<g x="29.1502" id="connector1terminal" y="3.096" height="0.000283465" stroke-width="0" xmlns="http://www.w3.org/2000/svg" class="terminal" width="0.000283466" stroke="none" fill="none"/>
<text x="25.5501" stroke-width="0" y="2.046" font-size="2.50001" font-family="'Droid Sans'" xmlns="http://www.w3.org/2000/svg" class="text" stroke="none" fill="#8c8c8c" text-anchor="middle">2</text>
<line stroke-linecap="round" y2="3.096" x2="7.55002" id="connector0pin" x1="0.350001" stroke-width="0.700001" xmlns="http://www.w3.org/2000/svg" y1="3.096" class="pin" connectorname="1" stroke="#787878"/>
<g x="0.350001" id="connector0terminal" y="3.096" height="0.000283465" stroke-width="0" xmlns="http://www.w3.org/2000/svg" class="terminal" width="0.000283466" stroke="none" fill="none"/>
<text x="3.95001" stroke-width="0" y="2.046" font-size="2.50001" font-family="'Droid Sans'" xmlns="http://www.w3.org/2000/svg" class="text" stroke="none" fill="#8c8c8c" text-anchor="middle">1</text>
</g>
</g></g></g><g partID='854195260'><line stroke-linecap='round' stroke='#404040' x1='137.85' y1='101.85' x2='116.25' y2='109.05' stroke-width='0.699998' /></g><g partID='854195330'><line stroke-linecap='round' stroke='#404040' x1='116.25' y1='109.05' x2='101.85' y2='109.05' stroke-width='0.699998' /></g><g partID='854194340'><line stroke-linecap='round' stroke='#404040' x1='152.25' y1='101.85' x2='137.85' y2='101.85' stroke-width='0.699998' /></g><g partID='854194410'><line stroke-linecap='round' stroke='#404040' x1='152.25' y1='109.05' x2='137.85' y2='109.05' stroke-width='0.699998' /></g><g partID='854195400'><line stroke-linecap='round' stroke='#404040' x1='137.85' y1='109.05' x2='116.25' y2='101.85' stroke-width='0.699998' /></g><g partID='854195190'><line stroke-linecap='round' stroke='#404040' x1='116.25' y1='101.85' x2='101.85' y2='101.85' stroke-width='0.699998' /></g><g partID='854195120'><line stroke-linecap='round' stroke='#404040' x1='202.65' y1='1.05' x2='15.45' y2='1.05' stroke-width='0.699998' /></g><g partID='854195050'><line stroke-linecap='round' stroke='#404040' x1='15.45' y1='1.05' x2='15.45' y2='109.05' stroke-width='0.699998' /></g><g partID='854194480'><line stroke-linecap='round' stroke='#404040' x1='202.65' y1='8.25008' x2='202.65' y2='1.05' stroke-width='0.699998' /></g><g partID='854194980'><line stroke-linecap='round' stroke='#404040' x1='15.45' y1='109.05' x2='29.85' y2='109.05' stroke-width='0.699998' /></g><g partID='854204560'><line stroke-linecap='round' stroke='#404040' x1='22.65' y1='195.45' x2='1.05' y2='195.45' stroke-width='0.699998' /></g><circle  fill="black" cx="22.65" cy="195.45" r="1.44" stroke-width="0" stroke="none" /><g partID='854204210'><line stroke-linecap='round' stroke='#404040' x1='1.05' y1='195.45' x2='1.05' y2='101.85' stroke-width='0.699998' /></g><g partID='854204280'><line stroke-linecap='round' stroke='#404040' x1='209.85' y1='195.45' x2='22.65' y2='195.45' stroke-width='0.699998' /></g><g partID='854204140'><line stroke-linecap='round' stroke='#404040' x1='1.05' y1='101.85' x2='29.85' y2='101.85' stroke-width='0.699998' /></g><g partID='854204070'><line stroke-linecap='round' stroke='#404040' x1='209.85' y1='173.85' x2='209.85' y2='195.45' stroke-width='0.699998' /></g><g partID='854204350'><line stroke-linecap='round' stroke='#404040' x1='22.65' y1='123.45' x2='22.65' y2='94.65' stroke-width='0.699998' /></g><g partID='854204420'><line stroke-linecap='round' stroke='#404040' x1='22.65' y1='94.65' x2='29.85' y2='94.65' stroke-width='0.699998' /></g><g partID='854204490'><line stroke-linecap='round' stroke='#404040' x1='22.65' y1='159.45' x2='22.65' y2='152.25' stroke-width='0.699998' /></g><g partID='854204620'><line stroke-linecap='round' stroke='#404040' x1='22.65' y1='195.45' x2='22.65' y2='181.05' stroke-width='0.699998' /></g><g partID='854195470' id='partLabel'><g transform='translate(29.2295,166.834)' ><g font-size='5' font-style='normal' font-weight='normal' fill='#000000' font-family="'DroidSans'" id='schematicLabel' fill-opacity='1' stroke='none' ><text x='0' y='3.75'>LED1</text><text x='0' y='8.75'>Red (633nm)</text></g></g></g><g partID='854196450' id='partLabel'><g transform='translate(38.5461,131)' ><g transform='matrix(0,1,-1,0,0,0)'  ><g font-size='5' font-style='normal' font-weight='normal' fill='#000000' font-family="'DroidSans'" id='schematicLabel' fill-opacity='1' stroke='none' ><text x='0' y='3.75'>R1</text><text x='0' y='8.75'>220&#x3a9;</text></g></g></g></g></svg>