<svg xmlns="http://www.w3.org/2000/svg" xmlns:xlink="http://www.w3.org/1999/xlink" version="1.1" width="549.074pt" height="250.92331pt" viewBox="0 0 549.074 250.92331">
<defs>
<clipPath id="clip_0">
<path transform="matrix(1,0,0,-1,-647.079,756.9647)" d="M0 0H1920V1080H0Z"/>
</clipPath>
<path id="font_1_1" d="M.33399964 .28710938V.5058594H.26600648V.28710938H.04800415V.21875H.26600648V0H.33399964V.21875H.55200198V.28710938H.33399964Z"/>
<path id="font_1_9" d="M0 .31835938V.23828125H.5V.31835938H0Z"/>
<clipPath id="clip_2">
<path transform="matrix(1,0,0,-1,-647.079,756.9647)" d="M820.6135 524.6307H853.0277V528.6307H820.6135Z"/>
</clipPath>
<clipPath id="clip_3">
<path transform="matrix(1,0,0,-1,-647.079,756.9647)" d="M824.6711 516.7132H847.08529V520.7132H824.6711Z"/>
</clipPath>
<clipPath id="clip_4">
<path transform="matrix(1,0,0,-1,-647.079,756.9647)" d="M830.6711 508.7957H843.08529V512.79568H830.6711Z"/>
</clipPath>
<clipPath id="clip_5">
<path transform="matrix(1,0,0,-1,-647.079,756.9647)" d="M0 0H1920V1080H0Z"/>
</clipPath>
<path id="font_1_6" d="M.12600708 .25828553C.12600708 .28959657 .13017273 .31740318 .13850403 .34170533 .14683533 .36601768 .15833538 .38650004 .17300415 .40315248 .18767293 .4198049 .20483907 .4324595 .22450257 .44111634 .24416606 .44977317 .2649994 .45410157 .28700257 .45410157 .30900575 .45410157 .32983909 .44977317 .34950257 .44111634 .36916606 .4324595 .38633219 .4198049 .40100099 .40315248 .41566978 .38650004 .4271698 .36601768 .4355011 .34170533 .4438324 .31740318 .44799806 .28959657 .44799806 .25828553 .44799806 .22698467 .4438324 .19917806 .4355011 .17486573 .4271698 .15055339 .41566978 .13023885 .40100099 .11392212 .38633219 .097605388 .36916606 .085118617 .34950257 .07646179 .32983909 .06780497 .30900575 .06347656 .28700257 .06347656 .2649994 .06347656 .24416606 .06780497 .22450257 .07646179 .20483907 .085118617 .18767293 .097605388 .17300415 .11392212 .15833538 .13023885 .14683533 .15055339 .13850403 .17486573 .13017273 .19917806 .12600708 .22698467 .12600708 .25828553M.035995485 .25827027C.035995485 .22027588 .041325887 .1849416 .051986696 .15226746 .06265768 .11960348 .07865906 .09110006 .099990848 .0667572 .12132263 .04242452 .14765422 .023422242 .1789856 .009750366 .21032715-.0039113366 .24633281-.0107421879 .28700257-.0107421879 .32833354-.0107421879 .36449687-.0039113366 .39549256 .009750366 .4264984 .023422242 .45266725 .04242452 .47399903 .0667572 .4953308 .09110006 .5113271 .11960348 .5219879 .15226746 .5326589 .1849416 .5379944 .22027588 .5379944 .25827027 .5379944 .2962748 .5326589 .33177696 .5219879 .3647766 .5113271 .39778648 .4953308 .42645774 .47399903 .4507904 .45266725 .47512309 .4264984 .49428813 .39549256 .5082855 .36449687 .5222931 .32833354 .5292969 .28700257 .5292969 .24633281 .5292969 .21032715 .5222931 .1789856 .5082855 .14765422 .49428813 .12132263 .47512309 .099990848 .4507904 .07865906 .42645774 .06265768 .39778648 .051986696 .3647766 .041325887 .33177696 .035995485 .2962748 .035995485 .25827027Z"/>
<path id="font_1_8" d="M.4920044 .00024414063V.51660159H.40699769V.22515869C.40699769 .20187378 .40382896 .18041484 .39749146 .16078186 .39116416 .14115906 .3816681 .124028529 .3690033 .10939026 .3563385 .09475199 .34050498 .08344015 .3215027 .07545471 .3025004 .06746928 .27999879 .06347656 .2539978 .06347656 .22133382 .06347656 .19566854 .07278951 .17700196 .091415408 .15833538 .110051479 .14900208 .13534038 .14900208 .1672821V.51660159H.06399536V.17701721C.06399536 .14905294 .06682841 .12358602 .07249451 .100616458 .07816061 .07764689 .08799235 .057835897 .101989749 .04118347 .115997318 .02454122 .1343333 .011723836 .15699768 .0027313233 .17966207-.006251017 .20799764-.0107421879 .2420044-.0107421879 .27999879-.0107421879 .31299339-.0032552083 .34098817 .01171875 .36899314 .02670288 .3919983 .050175985 .41000367 .08213806H.41200257V.00024414063H.4920044Z"/>
<path id="font_1_7" d="M.18200684 .5175781V.671875H.09700012V.5175781H.009002686V.4423828H.09700012V.113098148C.09700012 .08908081 .09933472 .069732669 .104003909 .05505371 .108673099 .040374757 .11583964 .029027304 .12550354 .021011353 .13516744 .013005574 .14783223 .007502238 .16349793 .004501343 .17916362 .0015004476 .19799805 0 .22000122 0H.28500367V.07519531H.2460022C.23266602 .07519531 .22183228 .075693767 .21350098 .076690677 .20516968 .077697757 .19866944 .0798645 .19400025 .08319092 .18934123 .086527507 .18617757 .09119669 .18450928 .09719849 .18284099 .10321045 .18200684 .111216228 .18200684 .12121582V.4423828H.28500367V.5175781H.18200684Z"/>
<path id="font_1_4" d="M.15400696 .609375V.7138672H.069000247V.609375H.15400696M.069000247 .5169983V0H.15400696V.5169983H.069000247Z"/>
<path id="font_1_5" d="M.06399536 .5172882V0H.14900208V.29206849C.14900208 .31540428 .15216573 .33690898 .15849304 .35658265 .16483052 .37625633 .17433167 .39342753 .18699646 .4080963 .19966126 .4227651 .2154948 .4340973 .23449707 .4420929 .25349937 .45009867 .27600099 .45410157 .30200196 .45410157 .33466593 .45410157 .3603312 .44476319 .3789978 .42608644 .3976644 .40741984 .40699769 .38208518 .40699769 .3500824V0H.4920044V.3401947C.4920044 .36820985 .48917137 .39372254 .48350526 .4167328 .47783915 .43974305 .46800233 .45958457 .45399476 .47625733 .43999736 .49294029 .42166648 .5059509 .39900209 .5152893 .37633769 .5246277 .3480021 .5292969 .31399537 .5292969 .23732503 .5292969 .18132527 .49794517 .1459961 .4352417H.14399719V.5172882H.06399536Z"/>
<path id="font_1_2" d="M.58000186 .49935914H.67500308C.66967269 .5373637 .65834048 .5708669 .64100649 .5998688 .6236725 .62887069 .602005 .65304568 .576004 .6723938 .55000308 .69174197 .5203349 .7064209 .4869995 .71643069 .45366416 .7264404 .41832987 .7314453 .3809967 .7314453 .32632957 .7314453 .27782694 .72160848 .23548889 .7019348 .19316101 .6822713 .15783184 .6554362 .12950135 .62142947 .10117086 .58743289 .07967123 .5475972 .06500244 .5019226 .05033366 .45624797 .042999269 .40740968 .042999269 .3554077 .042999269 .30340577 .04983012 .25473533 .06349182 .20939636 .0771637 .16405742 .09766642 .12472025 .125 .09138489 .15233357 .05804952 .18666585 .031880697 .22799683 .012878418 .2693278-.006123861 .31766258-.015625 .3730011-.015625 .46433006-.015625 .5363261 .009389241 .58898928 .059417726 .6416626 .10945638 .67266848 .17947388 .68200686 .2694702H.5870056C.58500167 .24014282 .5789998 .21280925 .56900027 .18746948 .5590007 .1621399 .545166 .14030457 .52749636 .1219635 .50983688 .10363261 .48883567 .08929952 .4644928 .07896423 .44016014 .06863912 .4123281 .06347656 .3809967 .06347656 .33833314 .06347656 .30166627 .07147217 .2709961 .08746338 .2403361 .10346476 .21516927 .12496439 .1954956 .15196228 .17583211 .17896016 .16133118 .21062215 .1519928 .24694824 .1426646 .28327433 .13800049 .32176719 .13800049 .36242677 .13800049 .39974977 .1426646 .43574015 .1519928 .47039796 .16133118 .5050557 .17583211 .5358836 .1954956 .56288149 .21516927 .58987936 .24016826 .6113739 .27049256 .6273651 .30082704 .6433665 .33733116 .6513672 .38000489 .6513672 .43000285 .6513672 .4731649 .6386973 .50949099 .61335757 .5458272 .58802798 .5693309 .5500285 .58000186 .49935914Z"/>
<path id="font_1_3" d="M.07800293 .7138672V0H.17300415V.3046875H.40499879C.42833457 .3046875 .44700114 .30118815 .46099855 .29418946 .4750061 .28720094 .4863383 .2778778 .49499513 .2662201 .5036621 .25457255 .5099945 .24092102 .5139923 .2252655 .5180003 .20962017 .52133688 .19314067 .5240021 .17582703 .5273387 .15850322 .5293376 .1408488 .5299988 .12286377 .53067019 .104888919 .5313365 .08807373 .5319977 .07241821 .53266909 .05677287 .5341695 .042622884 .536499 .029968262 .53882858 .017313639 .5433299 .0073242189 .55000308 0H.65600588C.6460063 .011993408 .638504 .025817872 .63349917 .04147339 .62850448 .057128908 .6246694 .07361349 .621994 .090927127 .6193288 .10825094 .6176605 .12590535 .61698916 .14389038 .61632797 .16187541 .615331 .17952983 .6139984 .19685364 .61199447 .21416728 .6091614 .2308197 .60549929 .24681092 .60183718 .26280213 .5961711 .27729289 .588501 .2902832 .5808309 .30327354 .5704956 .3144277 .5574951 .32374574 .5444946 .33307395 .5276642 .33973695 .5070038 .34373475V.34573365C.55033877 .3577372 .58183798 .38007609 .60150149 .41275025 .621165 .44543458 .6309967 .4834493 .6309967 .52679446 .6309967 .58481857 .6118266 .63050338 .5734863 .6638489 .53515627 .6971944 .48199464 .7138672 .41400147 .7138672H.07800293M.3710022 .38476563H.17300415V.63378909H.40899659C.45366416 .63378909 .48599754 .6224518 .5059967 .5997772 .5259959 .57711288 .5359955 .54778036 .5359955 .5117798 .5359955 .4857788 .53149417 .46460978 .52249148 .4482727 .51349899 .43193565 .5015004 .41893006 .48649598 .40925599 .47150169 .39959208 .45399986 .39309184 .43399049 .38975526 .4139913 .38642884 .3929952 .38476563 .3710022 .38476563Z"/>
</defs>
<g clip-path="url(#clip_0)">
<path transform="matrix(1,0,0,-1,-647.079,756.9647)" d="M0 0H1920V1080H0Z" fill="#ffffff"/>
<path transform="matrix(0,1,-1,-0,362.891,81.60315)" stroke-width="2" stroke-linecap="butt" stroke-miterlimit="4" stroke-linejoin="miter" fill="none" stroke="#000000" d="M53.8993 0 107.7986 89.77771H0ZM53.8993 0"/>
<use data-text="+" xlink:href="#font_1_1" transform="matrix(24,0,0,-24,279.60206,162.15442)"/>
<use data-text="&#x2013;" xlink:href="#font_1_9" transform="matrix(24,0,0,-24,280.802,122.13629)"/>
</g>
<g clip-path="url(#clip_2)">
<path transform="matrix(1,0,0,1,174.53455,230.33405)" stroke-width="2" stroke-linecap="butt" stroke-miterlimit="4" stroke-linejoin="miter" fill="none" stroke="#000000" d="M0 0H30.41416"/>
</g>
<g clip-path="url(#clip_3)">
<path transform="matrix(1,0,0,1,178.5921,238.25153)" stroke-width="2" stroke-linecap="butt" stroke-miterlimit="4" stroke-linejoin="miter" fill="none" stroke="#000000" d="M0 0H20.41418"/>
</g>
<g clip-path="url(#clip_4)">
<path transform="matrix(1,0,0,1,184.5921,246.16904)" stroke-width="2" stroke-linecap="butt" stroke-miterlimit="4" stroke-linejoin="miter" fill="none" stroke="#000000" d="M0 0H10.41419"/>
</g>
<g clip-path="url(#clip_5)">
<path transform="matrix(1,0,0,1,362.83406,135.50244)" stroke-width="2" stroke-linecap="butt" stroke-miterlimit="4" stroke-linejoin="miter" fill="none" stroke="#000000" d="M0 0H145.8872"/>
<path transform="matrix(1,0,0,-1,-647.079,756.9647)" d="M1081.321 624.9979C1079.368 623.0453 1079.368 619.8794 1081.321 617.9268 1083.274 615.9742 1086.439 615.9742 1088.392 617.9268 1090.345 619.8794 1090.345 623.0453 1088.392 624.9979 1086.439 626.9505 1083.274 626.9505 1081.321 624.9979ZM1081.321 624.9979"/>
<path transform="matrix(1,0,0,1,119.63324,114.21991)" stroke-width="2" stroke-linecap="butt" stroke-miterlimit="4" stroke-linejoin="miter" fill="none" stroke="#000000" d="M0 0H153.214"/>
<path transform="matrix(1,0,0,-1,366.107,133.05695)" stroke-width="2" stroke-linecap="butt" stroke-miterlimit="4" stroke-linejoin="miter" fill="none" stroke="#000000" d="M71.83311 0 71.4955 93.86616 0 93.9287"/>
<use data-text="o" xlink:href="#font_1_6" transform="matrix(18,0,0,-18,520.09109,141.41645)"/>
<use data-text="u" xlink:href="#font_1_8" transform="matrix(18,0,0,-18,530.42306,141.41645)"/>
<use data-text="t" xlink:href="#font_1_7" transform="matrix(18,0,0,-18,540.4311,141.41645)"/>
<use data-text="i" xlink:href="#font_1_4" transform="matrix(18,0,0,-18,2.393921,120.13403)"/>
<use data-text="n" xlink:href="#font_1_5" transform="matrix(18,0,0,-18,6.389921,120.13403)"/>
<path transform="matrix(1,0,0,1,29.925538,114.08423)" stroke-width="2" stroke-linecap="butt" stroke-miterlimit="4" stroke-linejoin="miter" fill="none" stroke="#000000" d="M0 0H78.70972"/>
<path transform="matrix(-1,-0,0,-1,312.7174,113.099918)" stroke-width="2" stroke-linecap="butt" stroke-miterlimit="4" stroke-linejoin="miter" fill="none" stroke="#000000" d="M103.0922 0 102.6077 72.6264 0 72.67479"/>
<path transform="matrix(1,0,0,-1,-647.079,756.9647)" d="M853.1558 646.7631C851.2032 644.8105 851.2032 641.6447 853.1558 639.692 855.1084 637.7394 858.2743 637.7394 860.2269 639.692 862.1795 641.6447 862.1795 644.8105 860.2269 646.7631 858.2743 648.7157 855.1084 648.7157 853.1558 646.7631ZM853.1558 646.7631"/>
<path transform="matrix(-1,-0,0,-1,273.27015,229.09992)" stroke-width="2" stroke-linecap="butt" stroke-miterlimit="4" stroke-linejoin="miter" fill="none" stroke="#000000" d="M83.14496 0 82.75417 72.67325 0 72.72166"/>
<use data-text="C" xlink:href="#font_1_2" transform="matrix(18,0,0,-18,107.13721,94.92792)"/>
<path transform="matrix(0,-1,1,0,108.63519,127.0307)" stroke-width="2" stroke-linecap="butt" stroke-miterlimit="4" stroke-linejoin="miter" fill="none" stroke="#000000" d="M0 0H25.62163"/>
<path transform="matrix(0,-1,1,0,119.63324,127.0307)" stroke-width="2" stroke-linecap="butt" stroke-miterlimit="4" stroke-linejoin="miter" fill="none" stroke="#000000" d="M0 0H25.62163"/>
<path transform="matrix(1,0,0,1,312.0722,26.883423)" stroke-width="2" stroke-linecap="butt" stroke-miterlimit="4" stroke-linejoin="miter" fill="none" stroke="#000000" d="M0 13.8818 5.890625 .2307594 13.1291 24.88738 22.8791 0 32.39993 25.22396 41.64212 .6890927 48.28014 26.4375 54.89733 11.61719"/>
<use data-text="R" xlink:href="#font_1_3" transform="matrix(18,0,0,-18,331.2934,16.138)"/>
</g>
</svg>
