<svg xmlns="http://www.w3.org/2000/svg" xmlns:xlink="http://www.w3.org/1999/xlink" version="1.1" width="562.75619pt" height="372.9348pt" viewBox="0 0 562.75619 372.9348">
<defs>
<clipPath id="clip_0">
<path transform="matrix(1,0,0,-1,-637.4738,760.2266)" d="M0 0H1920V1080H0Z"/>
</clipPath>
<path id="font_1_1" d="M.33399964 .28710938V.5058594H.26600648V.28710938H.04800415V.21875H.26600648V0H.33399964V.21875H.55200198V.28710938H.33399964Z"/>
<path id="font_1_13" d="M0 .31835938V.23828125H.5V.31835938H0Z"/>
<clipPath id="clip_2">
<path transform="matrix(1,0,0,-1,-637.4738,760.2266)" d="M842.6135 409.6307H875.0277V413.6307H842.6135Z"/>
</clipPath>
<clipPath id="clip_3">
<path transform="matrix(1,0,0,-1,-637.4738,760.2266)" d="M846.6711 401.7132H869.08529V405.7132H846.6711Z"/>
</clipPath>
<clipPath id="clip_4">
<path transform="matrix(1,0,0,-1,-637.4738,760.2266)" d="M852.6711 393.7956H865.08529V397.7956H852.6711Z"/>
</clipPath>
<clipPath id="clip_5">
<path transform="matrix(1,0,0,-1,-637.4738,760.2266)" d="M0 0H1920V1080H0Z"/>
</clipPath>
<path id="font_1_6" d="M.07800293 .7138672V0H.17300415V.3046875H.40499879C.42833457 .3046875 .44700114 .30118815 .46099855 .29418946 .4750061 .28720094 .4863383 .2778778 .49499513 .2662201 .5036621 .25457255 .5099945 .24092102 .5139923 .2252655 .5180003 .20962017 .52133688 .19314067 .5240021 .17582703 .5273387 .15850322 .5293376 .1408488 .5299988 .12286377 .53067019 .104888919 .5313365 .08807373 .5319977 .07241821 .53266909 .05677287 .5341695 .042622884 .536499 .029968262 .53882858 .017313639 .5433299 .0073242189 .55000308 0H.65600588C.6460063 .011993408 .638504 .025817872 .63349917 .04147339 .62850448 .057128908 .6246694 .07361349 .621994 .090927127 .6193288 .10825094 .6176605 .12590535 .61698916 .14389038 .61632797 .16187541 .615331 .17952983 .6139984 .19685364 .61199447 .21416728 .6091614 .2308197 .60549929 .24681092 .60183718 .26280213 .5961711 .27729289 .588501 .2902832 .5808309 .30327354 .5704956 .3144277 .5574951 .32374574 .5444946 .33307395 .5276642 .33973695 .5070038 .34373475V.34573365C.55033877 .3577372 .58183798 .38007609 .60150149 .41275025 .621165 .44543458 .6309967 .4834493 .6309967 .52679446 .6309967 .58481857 .6118266 .63050338 .5734863 .6638489 .53515627 .6971944 .48199464 .7138672 .41400147 .7138672H.07800293M.3710022 .38476563H.17300415V.63378909H.40899659C.45366416 .63378909 .48599754 .6224518 .5059967 .5997772 .5259959 .57711288 .5359955 .54778036 .5359955 .5117798 .5359955 .4857788 .53149417 .46460978 .52249148 .4482727 .51349899 .43193565 .5015004 .41893006 .48649598 .40925599 .47150169 .39959208 .45399986 .39309184 .43399049 .38975526 .4139913 .38642884 .3929952 .38476563 .3710022 .38476563Z"/>
<path id="font_1_5" d="M.33900453 .24121094H.100997928L.33700563 .5879822H.33900453V.24121094M.41900636 .24121094V.7089844H.35099793L.027999878 .24801636V.16601563H.33900453V0H.41900636V.16601563H.5149994V.24121094H.41900636Z"/>
<path id="font_1_4" d="M.21800232 .4052887V.3330078C.23400371 .33496095 .25100199 .3359375 .2689972 .3359375 .29032899 .3359375 .3101603 .33310954 .3284912 .3274536 .34683229 .3217977 .3626658 .31314598 .37599183 .3014984 .389328 .28986106 .3999939 .27555848 .4079895 .2585907 .41599528 .24162293 .41999818 .22216289 .41999818 .20021057 .41999818 .17891948 .41583253 .15979004 .40750123 .14282227 .39916993 .12585449 .3880005 .11154684 .37399293 .09989929 .3599955 .088261928 .34366355 .07927958 .32499696 .07295227 .30633036 .06663513 .28666688 .06347656 .26600648 .06347656 .21734111 .06347656 .18033855 .07797241 .15499878 .10696411 .12966919 .13596599 .1163381 .173467 .11500549 .21946717H.02999878C.029337565 .18280538 .034505208 .1501414 .04550171 .12147522 .05649821 .092809047 .07232666 .068618778 .09298706 .04890442 .11365763 .029200236 .13865662 .014333089 .16798401 .0043029787 .19732158-.0057271325 .22999065-.0107421879 .2659912-.0107421879 .29932658-.0107421879 .3308258-.006245931 .3604889 .002746582 .39016215 .011749268 .41599528 .025248209 .43798829 .04324341 .45999146 .061238607 .4774933 .083730068 .49049378 .11071777 .50349429 .13771566 .5099945 .1688792 .5099945 .20420838 .5099945 .24686177 .49949647 .2838491 .47850038 .3151703 .45750428 .34650169 .42533876 .36683146 .38200379 .37615968V.37815858C.40999858 .39082337 .43332926 .40947978 .45199586 .4341278 .47066245 .458786 .47999574 .48710633 .47999574 .51908877 .47999574 .55173239 .4744924 .5800476 .46348573 .6040344 .45248924 .62802127 .437322 .64767459 .417984 .6629944 .39865623 .6783244 .37582398 .68981936 .3494873 .69747927 .3231608 .70514938 .29466249 .7089844 .2639923 .7089844 .22866313 .7089844 .19749959 .70330306 .17050171 .6919403 .14350383 .6805776 .1210022 .6648763 .102996829 .6448364 .085001628 .6248067 .07116699 .60078939 .06149292 .5727844 .05182902 .5447896 .04633077 .5137889 .04499817 .4797821H.13000489C.13000489 .5004527 .13267009 .5201213 .13800049 .53878787 .14334107 .5574544 .1515096 .57378646 .1625061 .5877838 .17350261 .6017812 .1875 .61294558 .20449829 .62127688 .22149658 .62961837 .24133301 .63378909 .26400758 .63378909 .30000816 .63378909 .33000694 .6243083 .3540039 .6053467 .3780009 .58639529 .3899994 .55795797 .3899994 .5200348 .3899994 .5014089 .38633219 .48477683 .3789978 .47013856 .37166343 .45551048 .36182658 .44337464 .3494873 .43373109 .3371582 .42408753 .3228251 .4167684 .30648805 .41177369 .29016114 .40678916 .2730001 .40429688 .25500489 .40429688H.23699951C.23366292 .40429688 .23033142 .40429688 .227005 .40429688 .2243398 .40429688 .22133892 .40462748 .21800232 .4052887Z"/>
<path id="font_1_10" d="M.12600708 .25828553C.12600708 .28959657 .13017273 .31740318 .13850403 .34170533 .14683533 .36601768 .15833538 .38650004 .17300415 .40315248 .18767293 .4198049 .20483907 .4324595 .22450257 .44111634 .24416606 .44977317 .2649994 .45410157 .28700257 .45410157 .30900575 .45410157 .32983909 .44977317 .34950257 .44111634 .36916606 .4324595 .38633219 .4198049 .40100099 .40315248 .41566978 .38650004 .4271698 .36601768 .4355011 .34170533 .4438324 .31740318 .44799806 .28959657 .44799806 .25828553 .44799806 .22698467 .4438324 .19917806 .4355011 .17486573 .4271698 .15055339 .41566978 .13023885 .40100099 .11392212 .38633219 .097605388 .36916606 .085118617 .34950257 .07646179 .32983909 .06780497 .30900575 .06347656 .28700257 .06347656 .2649994 .06347656 .24416606 .06780497 .22450257 .07646179 .20483907 .085118617 .18767293 .097605388 .17300415 .11392212 .15833538 .13023885 .14683533 .15055339 .13850403 .17486573 .13017273 .19917806 .12600708 .22698467 .12600708 .25828553M.035995485 .25827027C.035995485 .22027588 .041325887 .1849416 .051986696 .15226746 .06265768 .11960348 .07865906 .09110006 .099990848 .0667572 .12132263 .04242452 .14765422 .023422242 .1789856 .009750366 .21032715-.0039113366 .24633281-.0107421879 .28700257-.0107421879 .32833354-.0107421879 .36449687-.0039113366 .39549256 .009750366 .4264984 .023422242 .45266725 .04242452 .47399903 .0667572 .4953308 .09110006 .5113271 .11960348 .5219879 .15226746 .5326589 .1849416 .5379944 .22027588 .5379944 .25827027 .5379944 .2962748 .5326589 .33177696 .5219879 .3647766 .5113271 .39778648 .4953308 .42645774 .47399903 .4507904 .45266725 .47512309 .4264984 .49428813 .39549256 .5082855 .36449687 .5222931 .32833354 .5292969 .28700257 .5292969 .24633281 .5292969 .21032715 .5222931 .1789856 .5082855 .14765422 .49428813 .12132263 .47512309 .099990848 .4507904 .07865906 .42645774 .06265768 .39778648 .051986696 .3647766 .041325887 .33177696 .035995485 .2962748 .035995485 .25827027Z"/>
<path id="font_1_12" d="M.4920044 .00024414063V.51660159H.40699769V.22515869C.40699769 .20187378 .40382896 .18041484 .39749146 .16078186 .39116416 .14115906 .3816681 .124028529 .3690033 .10939026 .3563385 .09475199 .34050498 .08344015 .3215027 .07545471 .3025004 .06746928 .27999879 .06347656 .2539978 .06347656 .22133382 .06347656 .19566854 .07278951 .17700196 .091415408 .15833538 .110051479 .14900208 .13534038 .14900208 .1672821V.51660159H.06399536V.17701721C.06399536 .14905294 .06682841 .12358602 .07249451 .100616458 .07816061 .07764689 .08799235 .057835897 .101989749 .04118347 .115997318 .02454122 .1343333 .011723836 .15699768 .0027313233 .17966207-.006251017 .20799764-.0107421879 .2420044-.0107421879 .27999879-.0107421879 .31299339-.0032552083 .34098817 .01171875 .36899314 .02670288 .3919983 .050175985 .41000367 .08213806H.41200257V.00024414063H.4920044Z"/>
<path id="font_1_11" d="M.18200684 .5175781V.671875H.09700012V.5175781H.009002686V.4423828H.09700012V.113098148C.09700012 .08908081 .09933472 .069732669 .104003909 .05505371 .108673099 .040374757 .11583964 .029027304 .12550354 .021011353 .13516744 .013005574 .14783223 .007502238 .16349793 .004501343 .17916362 .0015004476 .19799805 0 .22000122 0H.28500367V.07519531H.2460022C.23266602 .07519531 .22183228 .075693767 .21350098 .076690677 .20516968 .077697757 .19866944 .0798645 .19400025 .08319092 .18934123 .086527507 .18617757 .09119669 .18450928 .09719849 .18284099 .10321045 .18200684 .111216228 .18200684 .12121582V.4423828H.28500367V.5175781H.18200684Z"/>
<path id="font_1_7" d="M.35899354 0 .6130066 .7138672H.51400759L.30799867 .09498596H.30599977L.102005008 .7138672H0L.25100709 0H.35899354Z"/>
<path id="font_1_2" d="M.3560028 0V.7089844H.29100038C.28633119 .6823527 .27766419 .66038009 .2649994 .6430664 .2523346 .62576296 .23683167 .6121165 .2184906 .6021271 .20015972 .5921478 .17966207 .58532717 .15699768 .58166506 .1343333 .5780029 .1110026 .5761719 .087005618 .5761719V.5078125H.2709961V0H.3560028Z"/>
<path id="font_1_3" d="M.044006349 .45777894H.1289978C.1283366 .47912089 .13050334 .5002899 .13549805 .521286 .14050293 .5422821 .14867147 .56111147 .16000366 .57777407 .17133586 .59444686 .18583171 .60795089 .20349121 .61828616 .22116089 .6286214 .24232991 .63378909 .2669983 .63378909 .2856649 .63378909 .30332948 .63078817 .31999208 .6247864 .33666484 .61879476 .35116578 .6101329 .36349488 .59880068 .37583415 .58746847 .385671 .57396957 .39300538 .55830386 .40033976 .5426483 .40400697 .5251567 .40400697 .50582888 .40400697 .48117066 .4001719 .45950828 .39250184 .44084168 .38483177 .42218528 .37349449 .40486146 .35849 .38887025 .3434957 .37287904 .32466636 .35705058 .30200196 .3413849 .27933757 .32572938 .25300599 .30856834 .2230072 .28990174 .19833882 .27524314 .17466736 .25958253 .1519928 .24291992 .12932842 .22625733 .10899353 .20692952 .09098816 .18493653 .07299296 .16294353 .05816142 .13711548 .04649353 .10745239 .034835817 .07779948 .027338664 .041982015 .024002076 0H.4869995V.07519531H.1230011C.1269989 .09718832 .13549805 .11667887 .14849854 .13366699 .16149903 .15066529 .17716472 .16649373 .1954956 .18115235 .21383667 .19582112 .23400371 .20965068 .2559967 .22264099 .27799989 .23564148 .30000306 .24880474 .32200624 .26213075 .34399925 .27612815 .36533103 .29079185 .3860016 .30612184 .40667216 .3214518 .42500306 .33861289 .44099427 .35760499 .45699565 .37659709 .46982829 .39808656 .4794922 .42207337 .48916627 .44607035 .4940033 .47372947 .4940033 .50505068 .4940033 .53837588 .48816935 .5676982 .47650147 .5930176 .4648336 .61834719 .44900004 .63950607 .42900086 .65649417 .40900169 .67349246 .38550315 .68648788 .35850526 .69548037 .33150736 .70448306 .30267335 .7089844 .27200318 .7089844 .23467 .7089844 .20133464 .70263168 .17199707 .68992617 .14266968 .67723086 .11816915 .6596985 .09849548 .6373291 .07883199 .6149699 .064331058 .5884552 .054992677 .55778506 .04566447 .52711489 .04200236 .4937795 .044006349 .45777894Z"/>
<path id="font_1_8" d="M.5220032 .0022583008C.5073344-.0064086916 .4869995-.0107421879 .46099855-.0107421879 .43900553-.0107421879 .4215088-.0045776369 .4085083 .007751465 .3955078 .020090739 .38900758 .04026286 .38900758 .06826782 .36567179 .04026286 .33850099 .020090739 .30749513 .007751465 .27649943-.0045776369 .2430013-.0107421879 .20700073-.0107421879 .18366497-.0107421879 .16149394-.008076985 .14048767-.002746582 .11949158 .0025838216 .10132853 .01091512 .085998538 .022247315 .07066854 .03357951 .058502199 .048405965 .04949951 .066726688 .040496828 .08505758 .035995485 .10721842 .035995485 .13320923 .035995485 .16253662 .04099528 .18652852 .050994874 .20518494 .060994466 .22384136 .074157718 .23899842 .09048462 .25065614 .10682169 .262324 .12548828 .27115885 .14648438 .27716065 .16749065 .28316245 .18899536 .28816224 .21099854 .29216004 .2343343 .29681907 .25650025 .30031333 .27749635 .30264283 .29849244 .3049825 .31699119 .3083191 .33299256 .3126526 .34899394 .31698609 .36165873 .3233134 .37098695 .33163453 .38032533 .33996583 .3849945 .35213218 .3849945 .36813355 .3849945 .38678996 .38149516 .40178428 .37449647 .41311646 .36749778 .42444865 .3584951 .43311057 .3474884 .43910218 .3364919 .44510398 .3241577 .44910179 .31048585 .45109559 .29682414 .45309959 .2833303 .45410157 .27000428 .45410157 .23400371 .45410157 .20400493 .44729106 .18000794 .43367005 .15601094 .42004905 .14301045 .39430747 .14100647 .3564453H.055999757C.057332357 .38841758 .06399536 .4153951 .07598877 .43737794 .08799235 .45936076 .103993739 .47717796 .12399292 .49082948 .14399211 .504481 .16682434 .51430258 .19248963 .5202942 .21816509 .52629598 .2456665 .5292969 .2749939 .5292969 .29832969 .5292969 .3214976 .5276286 .34449769 .524292 .36749778 .5209656 .3883311 .5141347 .40699769 .50379946 .42566429 .49347434 .44066368 .47897849 .45199586 .4603119 .46332804 .4416555 .46899415 .41733299 .46899415 .38734437V.12145996C.46899415 .10146078 .4701589 .08679708 .4724884 .07746887 .4748281 .06814066 .48266603 .06347656 .4960022 .06347656 .5033366 .06347656 .5120036 .06507365 .5220032 .06826782V.0022583008M.3840027 .26727296C.3733317 .25927735 .35932923 .2534485 .34199525 .24978638 .32467143 .24612427 .3065084 .24312847 .2875061 .24079895 .26850382 .23846944 .2493337 .23580425 .22999573 .23280335 .21066793 .22981262 .19333904 .22498577 .17800904 .21832276 .16267903 .21165975 .150177 .20216878 .14050293 .18984986 .13083904 .17753093 .12600708 .16071575 .12600708 .1394043 .12600708 .12541707 .12884014 .113591518 .13450623 .10392761 .14017232 .09427389 .14750672 .08645121 .1565094 .080459598 .16551209 .07446798 .17601013 .070139568 .18800354 .067474368 .20000713 .064809169 .21267192 .06347656 .22599793 .06347656 .2540029 .06347656 .27800498 .06730652 .29800416 .07496643 .31800334 .08262634 .33433534 .09228007 .34700013 .10392761 .35966493 .11558533 .3689982 .12823995 .375 .14189148 .3810018 .15555318 .3840027 .16837566 .3840027 .18035889V.26727296Z"/>
<path id="font_1_9" d="M.06700134 .7138672V.0002593994H.1519928V.06921387H.15400696C.16334534 .053894044 .17484539 .041066488 .18850708 .030731202 .20216878 .020406088 .21666463 .012242635 .23199463 .0062408449 .2473348 .0002492269 .26283775-.004079183 .27850343-.0067443849 .2941691-.009409587 .30833946-.0107421879 .3210144-.0107421879 .3603414-.0107421879 .39483644-.0037434896 .4244995 .010253906 .45417277 .024261475 .47884117 .0434316 .49850465 .06776428 .51816818 .09209696 .53283187 .1205953 .5424957 .15325928 .5521698 .18593343 .55700686 .22060649 .55700686 .25727845 .55700686 .2939504 .552007 .32861839 .54200747 .36128236 .5320079 .3939565 .5171712 .42279054 .49749757 .44778443 .47783409 .47278849 .45317079 .4926249 .4235077 .5072937 .3938446 .52196249 .3590088 .5292969 .31900025 .5292969 .28299967 .5292969 .25 .52279666 .22000122 .50979617 .19000244 .49679566 .16800435 .4759623 .15400696 .44729615H.1519928V.7138672H.06700134M.46699525 .2632904C.46699525 .23798116 .46432496 .21333821 .45898438 .18936157 .45365397 .16538494 .44498698 .1440684 .4329834 .12541199 .42099 .10676575 .40516154 .091781619 .38549806 .080459598 .36583457 .06913757 .34133403 .06347656 .31199647 .06347656 .28266908 .06347656 .25767008 .06896973 .23699951 .079956058 .21632894 .09095255 .19949341 .10543823 .18649292 .123413089 .17350261 .14139812 .16400655 .1622111 .15800476 .18585205 .15200298 .20950318 .14900208 .23398336 .14900208 .2592926 .14900208 .28326927 .15183513 .3069102 .15750122 .33021546 .16316732 .35353089 .17233277 .37434388 .18499756 .39265443 .19766236 .41097514 .21399434 .4257965 .23399353 .43711854 .2539927 .44844056 .2783254 .45410157 .30699159 .45410157 .33432517 .45410157 .3581594 .44877116 .37849427 .43811036 .39882914 .42745973 .41549684 .41314189 .4284973 .39515687 .4414978 .37717185 .4511617 .35668946 .457489 .33370973 .4638265 .31074015 .46699525 .28726707 .46699525 .2632904Z"/>
</defs>
<g clip-path="url(#clip_0)">
<path transform="matrix(1,0,0,-1,-637.4738,760.2266)" d="M0 0H1920V1080H0Z" fill="#ffffff"/>
<path transform="matrix(0,1,-1,-0,372.49617,84.86505)" stroke-width="2" stroke-linecap="butt" stroke-miterlimit="4" stroke-linejoin="miter" fill="none" stroke="#000000" d="M53.8993 0 107.7986 89.77771H0ZM53.8993 0"/>
<use data-text="+" xlink:href="#font_1_1" transform="matrix(24,0,0,-24,289.2072,165.41632)"/>
<use data-text="&#x2013;" xlink:href="#font_1_13" transform="matrix(24,0,0,-24,290.40718,125.39819)"/>
<path transform="matrix(0,-1,1,0,221.3468,348.59593)" stroke-width="2" stroke-linecap="butt" stroke-miterlimit="4" stroke-linejoin="miter" fill="none" stroke="#000000" d="M0 0H62.50431"/>
</g>
<g clip-path="url(#clip_2)">
<path transform="matrix(1,0,0,1,206.13971,348.59593)" stroke-width="2" stroke-linecap="butt" stroke-miterlimit="4" stroke-linejoin="miter" fill="none" stroke="#000000" d="M0 0H30.41416"/>
</g>
<g clip-path="url(#clip_3)">
<path transform="matrix(1,0,0,1,210.19727,356.51344)" stroke-width="2" stroke-linecap="butt" stroke-miterlimit="4" stroke-linejoin="miter" fill="none" stroke="#000000" d="M0 0H20.41418"/>
</g>
<g clip-path="url(#clip_4)">
<path transform="matrix(1,0,0,1,216.19727,364.43104)" stroke-width="2" stroke-linecap="butt" stroke-miterlimit="4" stroke-linejoin="miter" fill="none" stroke="#000000" d="M0 0H10.41419"/>
</g>
<g clip-path="url(#clip_5)">
<path transform="matrix(1,0,0,-1,-637.4738,760.2266)" d="M853.1558 604.2499C851.2032 602.2973 851.2032 599.1314 853.1558 597.1788 855.1085 595.2262 858.2743 595.2262 860.2269 597.1788 862.1795 599.1314 862.1795 602.2973 860.2269 604.2499 858.2743 606.2025 855.1085 606.2025 853.1558 604.2499ZM853.1558 604.2499"/>
<path transform="matrix(0,-1,1,0,207.01026,286.64613)" stroke-width="2" stroke-linecap="butt" stroke-miterlimit="4" stroke-linejoin="miter" fill="none" stroke="#000000" d="M0 13.8818 5.890625 .2307594 13.1291 24.88738 22.8791 0 32.39993 25.22396 41.64212 .6890927 48.28014 26.4375 54.89733 11.61719"/>
<path transform="matrix(1,0,0,1,372.4392,138.76435)" stroke-width="2" stroke-linecap="butt" stroke-miterlimit="4" stroke-linejoin="miter" fill="none" stroke="#000000" d="M0 0H145.8872"/>
<path transform="matrix(1,0,0,-1,-637.4738,760.2266)" d="M1081.321 624.9979C1079.368 623.0453 1079.368 619.8794 1081.321 617.9268 1083.274 615.9742 1086.439 615.9742 1088.392 617.9268 1090.345 619.8794 1090.345 623.0453 1088.392 624.9979 1086.439 626.9505 1083.274 626.9505 1081.321 624.9979ZM1081.321 624.9979"/>
<path transform="matrix(1,0,0,1,148.54108,117.48181)" stroke-width="2" stroke-linecap="butt" stroke-miterlimit="4" stroke-linejoin="miter" fill="none" stroke="#000000" d="M0 0H133.9113"/>
<use data-text="R" xlink:href="#font_1_6" transform="matrix(18,0,0,-18,241.0539,268.24574)"/>
<use data-text="4" xlink:href="#font_1_5" transform="matrix(12,0,0,-12,253.3839,269.5237)"/>
<path transform="matrix(1,0,0,1,301.2942,30.400147)" stroke-width="2" stroke-linecap="butt" stroke-miterlimit="4" stroke-linejoin="miter" fill="none" stroke="#000000" d="M0 13.8818 5.890625 .2307594 13.1291 24.88738 22.8791 0 32.39993 25.22396 41.64212 .6890927 48.28014 26.4375 54.89733 11.61719"/>
<path transform="matrix(1,0,0,-1,355.82508,136.31885)" stroke-width="2" stroke-linecap="butt" stroke-miterlimit="4" stroke-linejoin="miter" fill="none" stroke="#000000" d="M91.71983 0 91.28874 93.61633 0 93.6787"/>
<use data-text="R" xlink:href="#font_1_6" transform="matrix(18,0,0,-18,318.23939,19.544922)"/>
<use data-text="3" xlink:href="#font_1_4" transform="matrix(12,0,0,-12,330.56938,20.822907)"/>
<use data-text="o" xlink:href="#font_1_10" transform="matrix(18,0,0,-18,529.6962,144.67835)"/>
<use data-text="u" xlink:href="#font_1_12" transform="matrix(18,0,0,-18,540.0282,144.67835)"/>
<use data-text="t" xlink:href="#font_1_11" transform="matrix(18,0,0,-18,550.03628,144.67835)"/>
<path transform="matrix(1,0,0,1,93.67737,105.145328)" stroke-width="2" stroke-linecap="butt" stroke-miterlimit="4" stroke-linejoin="miter" fill="none" stroke="#000000" d="M0 13.8818 5.890625 .2307594 13.1291 24.88738 22.8791 0 32.39993 25.22396 41.64212 .6890927 48.28014 26.4375 54.89733 11.61719"/>
<path transform="matrix(1,0,0,1,93.39276,147.80554)" stroke-width="2" stroke-linecap="butt" stroke-miterlimit="4" stroke-linejoin="miter" fill="none" stroke="#000000" d="M0 13.8818 5.890625 .2307594 13.1291 24.88738 22.8791 0 32.39993 25.22396 41.64212 .6890927 48.28014 26.4375 54.89733 11.61719"/>
<use data-text="V" xlink:href="#font_1_7" transform="matrix(18,0,0,-18,10.166077,123.395938)"/>
<use data-text="1" xlink:href="#font_1_2" transform="matrix(12,0,0,-12,21.164078,124.67392)"/>
<use data-text="V" xlink:href="#font_1_7" transform="matrix(18,0,0,-18,9.881409,166.68183)"/>
<use data-text="2" xlink:href="#font_1_3" transform="matrix(12,0,0,-12,20.87941,167.95981)"/>
<path transform="matrix(1,0,0,1,37.0307,118.48181)" stroke-width="2" stroke-linecap="butt" stroke-miterlimit="4" stroke-linejoin="miter" fill="none" stroke="#000000" d="M0 0H56.72861"/>
<path transform="matrix(1,0,0,1,36.74597,161.14203)" stroke-width="2" stroke-linecap="butt" stroke-miterlimit="4" stroke-linejoin="miter" fill="none" stroke="#000000" d="M0 0H56.72861"/>
<use data-text="R" xlink:href="#font_1_6" transform="matrix(18,0,0,-18,105.56256,93.8999)"/>
<use data-text="1" xlink:href="#font_1_2" transform="matrix(12,0,0,-12,117.89256,95.17789)"/>
<use data-text="R" xlink:href="#font_1_6" transform="matrix(18,0,0,-18,111.33789,201.09632)"/>
<use data-text="2" xlink:href="#font_1_3" transform="matrix(12,0,0,-12,123.66789,202.3743)"/>
<path transform="matrix(-1,-0,0,-1,302.3753,116.36182)" stroke-width="2" stroke-linecap="butt" stroke-miterlimit="4" stroke-linejoin="miter" fill="none" stroke="#000000" d="M83.14496 0 82.75417 72.67325 0 72.72166"/>
<path transform="matrix(1,0,0,-1,-637.4738,760.2266)" d="M853.1558 646.7631C851.2032 644.8105 851.2032 641.6447 853.1558 639.692 855.1085 637.7394 858.2743 637.7394 860.2269 639.692 862.1795 641.6447 862.1795 644.8105 860.2269 646.7631 858.2743 648.7157 855.1085 648.7157 853.1558 646.7631ZM853.1558 646.7631"/>
<path transform="matrix(1,0,0,1,148.0412,159.98181)" stroke-width="2" stroke-linecap="butt" stroke-miterlimit="4" stroke-linejoin="miter" fill="none" stroke="#000000" d="M0 0H133.9113"/>
<path transform="matrix(0,-1,1,0,219.37537,232.33563)" stroke-width="2" stroke-linecap="butt" stroke-miterlimit="4" stroke-linejoin="miter" fill="none" stroke="#000000" d="M0 0H72.19361"/>
<use data-text="a" xlink:href="#font_1_8" transform="matrix(18,0,0,-18,224.90741,112.04492)"/>
<use data-text="b" xlink:href="#font_1_9" transform="matrix(18,0,0,-18,225.40338,155.54492)"/>
</g>
</svg>
