<?xml version='1.0' encoding='UTF-8' standalone='no'?>
<!-- Created with Fritzing (http://www.fritzing.org/) -->
<svg xmlns:svg='http://www.w3.org/2000/svg' xmlns='http://www.w3.org/2000/svg' version='1.2' baseProfile='tiny' x='0in' y='0in' width='3.75804in' height='2.42936in' viewBox='0 0 270.579 174.914' >
<g partID='854175730'><g transform='translate(0,8.26392)' ><g id="schematic">
<rect y="14.85" height="135.9" stroke="#000000" stroke-width="0.9" fill="#FFFFFF" stroke-linecap="round" width="78.3" class="interior rect" x="14.85"/>
<line y1="28.8" y2="28.8" stroke="#787878" stroke-width="0.699999" fill="none" stroke-linecap="round" x1="93.2499" x2="107.65" class="pin" id="connector61pin"/>
<text y="29.4999" font-family="'Droid Sans'" text-anchor="end" stroke="none" stroke-width="0" fill="#8c8c8c" class="text" font-size="3.49999" x="91.8499">D0/RX</text>
<g y="28.4499" height="0.699999" stroke="none" stroke-width="0" fill="none" width="0.699999" class="terminal" x="107.65" id="connector61terminal"/>
<line y1="36" y2="36" stroke="#787878" stroke-width="0.699999" fill="none" stroke-linecap="round" x1="93.2499" x2="107.65" class="pin" id="connector62pin"/>
<text y="36.6999" font-family="'Droid Sans'" text-anchor="end" stroke="none" stroke-width="0" fill="#8c8c8c" class="text" font-size="3.49999" x="91.8499">D1/TX</text>
<g y="35.6499" height="0.699999" stroke="none" stroke-width="0" fill="none" width="0.699999" class="terminal" x="107.65" id="connector62terminal"/>
<line y1="43.2" y2="43.2" stroke="#787878" stroke-width="0.699999" fill="none" stroke-linecap="round" x1="93.2499" x2="107.65" class="pin" id="connector63pin"/>
<text y="43.8999" font-family="'Droid Sans'" text-anchor="end" stroke="none" stroke-width="0" fill="#8c8c8c" class="text" font-size="3.49999" x="91.8499">D2</text>
<g y="42.8499" height="0.699999" stroke="none" stroke-width="0" fill="none" width="0.699999" class="terminal" x="107.65" id="connector63terminal"/>
<line y1="50.4" y2="50.4" stroke="#787878" stroke-width="0.699999" fill="none" stroke-linecap="round" x1="93.2499" x2="107.65" class="pin" id="connector64pin"/>
<text y="51.0999" font-family="'Droid Sans'" text-anchor="end" stroke="none" stroke-width="0" fill="#8c8c8c" class="text" font-size="3.49999" x="91.8499">D3 PWM</text>
<g y="50.0499" height="0.699999" stroke="none" stroke-width="0" fill="none" width="0.699999" class="terminal" x="107.65" id="connector64terminal"/>
<line y1="57.6" y2="57.6" stroke="#787878" stroke-width="0.699999" fill="none" stroke-linecap="round" x1="93.2499" x2="107.65" class="pin" id="connector65pin"/>
<text y="58.2999" font-family="'Droid Sans'" text-anchor="end" stroke="none" stroke-width="0" fill="#8c8c8c" class="text" font-size="3.49999" x="91.8499">D4</text>
<g y="57.2499" height="0.699999" stroke="none" stroke-width="0" fill="none" width="0.699999" class="terminal" x="107.65" id="connector65terminal"/>
<line y1="64.8" y2="64.8" stroke="#787878" stroke-width="0.699999" fill="none" stroke-linecap="round" x1="93.2499" x2="107.65" class="pin" id="connector66pin"/>
<text y="65.4999" font-family="'Droid Sans'" text-anchor="end" stroke="none" stroke-width="0" fill="#8c8c8c" class="text" font-size="3.49999" x="91.8499">D5 PWM</text>
<g y="64.4499" height="0.699999" stroke="none" stroke-width="0" fill="none" width="0.699999" class="terminal" x="107.65" id="connector66terminal"/>
<line y1="72" y2="72" stroke="#787878" stroke-width="0.699999" fill="none" stroke-linecap="round" x1="93.2499" x2="107.65" class="pin" id="connector67pin"/>
<text y="72.6999" font-family="'Droid Sans'" text-anchor="end" stroke="none" stroke-width="0" fill="#8c8c8c" class="text" font-size="3.49999" x="91.8499">D6 PWM</text>
<g y="71.6499" height="0.699999" stroke="none" stroke-width="0" fill="none" width="0.699999" class="terminal" x="107.65" id="connector67terminal"/>
<line y1="79.2" y2="79.2" stroke="#787878" stroke-width="0.699999" fill="none" stroke-linecap="round" x1="93.2499" x2="107.65" class="pin" id="connector68pin"/>
<text y="79.8999" font-family="'Droid Sans'" text-anchor="end" stroke="none" stroke-width="0" fill="#8c8c8c" class="text" font-size="3.49999" x="91.8499">D7</text>
<g y="78.8499" height="0.699999" stroke="none" stroke-width="0" fill="none" width="0.699999" class="terminal" x="107.65" id="connector68terminal"/>
<line y1="86.4" y2="86.4" stroke="#787878" stroke-width="0.699999" fill="none" stroke-linecap="round" x1="93.2499" x2="107.65" class="pin" id="connector51pin"/>
<text y="87.0999" font-family="'Droid Sans'" text-anchor="end" stroke="none" stroke-width="0" fill="#8c8c8c" class="text" font-size="3.49999" x="91.8499">D8</text>
<g y="86.0499" height="0.699999" stroke="none" stroke-width="0" fill="none" width="0.699999" class="terminal" x="107.65" id="connector51terminal"/>
<line y1="93.6" y2="93.6" stroke="#787878" stroke-width="0.699999" fill="none" stroke-linecap="round" x1="93.2499" x2="107.65" class="pin" id="connector52pin"/>
<text y="94.2999" font-family="'Droid Sans'" text-anchor="end" stroke="none" stroke-width="0" fill="#8c8c8c" class="text" font-size="3.49999" x="91.8499">D9 PWM</text>
<g y="93.2499" height="0.699999" stroke="none" stroke-width="0" fill="none" width="0.699999" class="terminal" x="107.65" id="connector52terminal"/>
<line y1="100.8" y2="100.8" stroke="#787878" stroke-width="0.699999" fill="none" stroke-linecap="round" x1="93.2499" x2="107.65" class="pin" id="connector53pin"/>
<text y="101.5" font-family="'Droid Sans'" text-anchor="end" stroke="none" stroke-width="0" fill="#8c8c8c" class="text" font-size="3.49999" x="91.8499">D10 PWM/SS</text>
<g y="100.45" height="0.699999" stroke="none" stroke-width="0" fill="none" width="0.699999" class="terminal" x="107.65" id="connector53terminal"/>
<line y1="108" y2="108" stroke="#787878" stroke-width="0.699999" fill="none" stroke-linecap="round" x1="93.2499" x2="107.65" class="pin" id="connector54pin"/>
<text y="108.7" font-family="'Droid Sans'" text-anchor="end" stroke="none" stroke-width="0" fill="#8c8c8c" class="text" font-size="3.49999" x="91.8499">D11 PWM/MOSI</text>
<g y="107.65" height="0.699999" stroke="none" stroke-width="0" fill="none" width="0.699999" class="terminal" x="107.65" id="connector54terminal"/>
<line y1="115.2" y2="115.2" stroke="#787878" stroke-width="0.699999" fill="none" stroke-linecap="round" x1="93.2499" x2="107.65" class="pin" id="connector55pin"/>
<text y="115.9" font-family="'Droid Sans'" text-anchor="end" stroke="none" stroke-width="0" fill="#8c8c8c" class="text" font-size="3.49999" x="91.8499">D12/MISO</text>
<g y="114.85" height="0.699999" stroke="none" stroke-width="0" fill="none" width="0.699999" class="terminal" x="107.65" id="connector55terminal"/>
<line y1="122.4" y2="122.4" stroke="none" stroke-width="0" fill="none" stroke-linecap="round" x1="93.2499" x2="107.65" class="pin" id="connector41pin"/>
<rect y="122.05" height="0.699999" stroke="none" stroke-width="0" fill="none" width="0.699999" class="terminal" x="107.65" id="connector41terminal"/>
<line y1="122.4" y2="122.4" stroke="#787878" stroke-width="0.699999" fill="none" stroke-linecap="round" x1="93.2499" x2="107.65" class="pin" id="connector56pin"/>
<text y="123.1" font-family="'Droid Sans'" text-anchor="end" stroke="none" stroke-width="0" fill="#8c8c8c" class="text" font-size="3.49999" x="91.8499">D13/SCK</text>
<g y="122.05" height="0.699999" stroke="none" stroke-width="0" fill="none" width="0.699999" class="terminal" x="107.65" id="connector56terminal"/>
<line y1="28.8" y2="28.8" stroke="none" stroke-width="0" fill="none" stroke-linecap="round" x1="0.349999" x2="14.75" class="pin" id="connector43pin"/>
<rect y="28.4499" height="0.699999" stroke="none" stroke-width="0" fill="none" width="0.699999" class="terminal" x="-0.349999" id="connector43terminal"/>
<line y1="28.8" y2="28.8" stroke="#787878" stroke-width="0.699999" fill="none" stroke-linecap="round" x1="0.349999" x2="14.75" class="pin" id="connector85pin"/>
<text y="29.4999" font-family="'Droid Sans'" text-anchor="start" stroke="none" stroke-width="0" fill="#8c8c8c" class="text" font-size="3.49999" x="16.15">RESET</text>
<g y="28.4499" height="0.699999" stroke="none" stroke-width="0" fill="none" width="0.699999" class="terminal" x="-0.349999" id="connector85terminal"/>
<line y1="36" y2="36" stroke="#787878" stroke-width="0.699999" fill="none" stroke-linecap="round" x1="0.349999" x2="14.75" class="pin" id="connector49pin"/>
<text y="36.6999" font-family="'Droid Sans'" text-anchor="start" stroke="none" stroke-width="0" fill="#8c8c8c" class="text" font-size="3.49999" x="16.15">RESET2</text>
<rect y="35.6499" height="0.699999" stroke="none" stroke-width="0" fill="none" width="0.699999" class="terminal" x="-0.349999" id="connector49terminal"/>
<line y1="43.2" y2="43.2" stroke="#787878" stroke-width="0.699999" fill="none" stroke-linecap="round" x1="0.349999" x2="14.75" class="pin" id="connector58pin"/>
<text y="43.8999" font-family="'Droid Sans'" text-anchor="start" stroke="none" stroke-width="0" fill="#8c8c8c" class="text" font-size="3.49999" x="16.15">AREF</text>
<g y="42.8499" height="0.699999" stroke="none" stroke-width="0" fill="none" width="0.699999" class="terminal" x="-0.349999" id="connector58terminal"/>
<line y1="50.4" y2="50.4" stroke="#787878" stroke-width="0.699999" fill="none" stroke-linecap="round" x1="0.349999" x2="14.75" class="pin" id="connector84pin"/>
<text y="51.0999" font-family="'Droid Sans'" text-anchor="start" stroke="none" stroke-width="0" fill="#8c8c8c" class="text" font-size="3.49999" x="16.15">ioref</text>
<g y="50.0499" height="0.699999" stroke="none" stroke-width="0" fill="none" width="0.699999" class="terminal" x="-0.349999" id="connector84terminal"/>
<line y1="64.8" y2="64.8" stroke="#787878" stroke-width="0.699999" fill="none" stroke-linecap="round" x1="0.349999" x2="14.75" class="pin" id="connector0pin"/>
<text y="65.4999" font-family="'Droid Sans'" text-anchor="start" stroke="none" stroke-width="0" fill="#8c8c8c" class="text" font-size="3.49999" x="16.15">A0</text>
<g y="64.4499" height="0.699999" stroke="none" stroke-width="0" fill="none" width="0.699999" class="terminal" x="-0.349999" id="connector0terminal"/>
<line y1="72" y2="72" stroke="#787878" stroke-width="0.699999" fill="none" stroke-linecap="round" x1="0.349999" x2="14.75" class="pin" id="connector1pin"/>
<text y="72.6999" font-family="'Droid Sans'" text-anchor="start" stroke="none" stroke-width="0" fill="#8c8c8c" class="text" font-size="3.49999" x="16.15">A1</text>
<g y="71.6499" height="0.699999" stroke="none" stroke-width="0" fill="none" width="0.699999" class="terminal" x="-0.349999" id="connector1terminal"/>
<line y1="79.2" y2="79.2" stroke="#787878" stroke-width="0.699999" fill="none" stroke-linecap="round" x1="0.349999" x2="14.75" class="pin" id="connector2pin"/>
<text y="79.8999" font-family="'Droid Sans'" text-anchor="start" stroke="none" stroke-width="0" fill="#8c8c8c" class="text" font-size="3.49999" x="16.15">A2</text>
<g y="78.8499" height="0.699999" stroke="none" stroke-width="0" fill="none" width="0.699999" class="terminal" x="-0.349999" id="connector2terminal"/>
<line y1="86.4" y2="86.4" stroke="#787878" stroke-width="0.699999" fill="none" stroke-linecap="round" x1="0.349999" x2="14.75" class="pin" id="connector3pin"/>
<text y="87.0999" font-family="'Droid Sans'" text-anchor="start" stroke="none" stroke-width="0" fill="#8c8c8c" class="text" font-size="3.49999" x="16.15">A3</text>
<g y="86.0499" height="0.699999" stroke="none" stroke-width="0" fill="none" width="0.699999" class="terminal" x="-0.349999" id="connector3terminal"/>
<line y1="93.6" y2="93.6" stroke="none" stroke-width="0" fill="none" stroke-linecap="round" x1="0.349999" x2="14.75" class="pin" id="connector48pin"/>
<rect y="93.2499" height="0.699999" stroke="none" stroke-width="0" fill="none" width="0.699999" class="terminal" x="-0.349999" id="connector48terminal"/>
<line y1="93.6" y2="93.6" stroke="none" stroke-width="0" fill="none" stroke-linecap="round" x1="0.349999" x2="14.75" class="pin" id="connector45pin"/>
<rect y="93.2499" height="0.699999" stroke="none" stroke-width="0" fill="none" width="0.699999" class="terminal" x="-0.349999" id="connector45terminal"/>
<line y1="93.6" y2="93.6" stroke="none" stroke-width="0" fill="none" stroke-linecap="round" x1="0.349999" x2="14.75" class="pin" id="connector4pin"/>
<g y="93.2499" height="0.699999" stroke="none" stroke-width="0" fill="none" width="0.699999" class="terminal" x="-0.349999" id="connector4terminal"/>
<line y1="93.6" y2="93.6" stroke="none" stroke-width="0" fill="none" stroke-linecap="round" x1="0.349999" x2="14.75" class="pin" id="connector39pin"/>
<rect y="93.2499" height="0.699999" stroke="none" stroke-width="0" fill="none" width="0.699999" class="terminal" x="-0.349999" id="connector39terminal"/>
<line y1="93.6" y2="93.6" stroke="none" stroke-width="0" fill="none" stroke-linecap="round" x1="0.349999" x2="14.75" class="pin" id="connector47pin"/>
<rect y="93.2499" height="0.699999" stroke="none" stroke-width="0" fill="none" width="0.699999" class="terminal" x="-0.349999" id="connector47terminal"/>
<line y1="93.6" y2="93.6" stroke="none" stroke-width="0" fill="none" stroke-linecap="round" x1="0.349999" x2="14.75" class="pin" id="connector42pin"/>
<rect y="93.2499" height="0.699999" stroke="none" stroke-width="0" fill="none" width="0.699999" class="terminal" x="-0.349999" id="connector42terminal"/>
<line y1="93.6" y2="93.6" stroke="#787878" stroke-width="0.699999" fill="none" stroke-linecap="round" x1="0.349999" x2="14.75" class="pin" id="connector59pin"/>
<text y="94.2999" font-family="'Droid Sans'" text-anchor="start" stroke="none" stroke-width="0" fill="#8c8c8c" class="text" font-size="3.49999" x="16.15">A4/SDA</text>
<g y="93.2499" height="0.699999" stroke="none" stroke-width="0" fill="none" width="0.699999" class="terminal" x="-0.349999" id="connector59terminal"/>
<line y1="100.8" y2="100.8" stroke="none" stroke-width="0" fill="none" stroke-linecap="round" x1="0.349999" x2="14.75" class="pin" id="connector5pin"/>
<g y="100.45" height="0.699999" stroke="none" stroke-width="0" fill="none" width="0.699999" class="terminal" x="-0.349999" id="connector5terminal"/>
<line y1="100.8" y2="100.8" stroke="#787878" stroke-width="0.699999" fill="none" stroke-linecap="round" x1="0.349999" x2="14.75" class="pin" id="connector60pin"/>
<text y="101.5" font-family="'Droid Sans'" text-anchor="start" stroke="none" stroke-width="0" fill="#8c8c8c" class="text" font-size="3.49999" x="16.15">A5/SCL</text>
<g y="100.45" height="0.699999" stroke="none" stroke-width="0" fill="none" width="0.699999" class="terminal" x="-0.349999" id="connector60terminal"/>
<line y1="136.8" y2="136.8" stroke="#787878" stroke-width="0.699999" fill="none" stroke-linecap="round" x1="0.349999" x2="14.75" class="pin" id="connector91pin"/>
<text y="137.5" font-family="'Droid Sans'" text-anchor="start" stroke="none" stroke-width="0" fill="#8c8c8c" class="text" font-size="3.49999" x="16.15">N/C</text>
<g y="136.45" height="0.699999" stroke="none" stroke-width="0" fill="none" width="0.699999" class="terminal" x="-0.349999" id="connector91terminal"/>
<line y1="150.85" y2="165.25" stroke="none" stroke-width="0" fill="none" stroke-linecap="round" x1="57.6" x2="57.6" class="pin" id="connector88pin"/>
<g y="165.25" height="0.699999" stroke="none" stroke-width="0" fill="none" width="0.699999" class="terminal" x="57.2499" id="connector88terminal"/>
<line y1="150.85" y2="165.25" stroke="none" stroke-width="0" fill="none" stroke-linecap="round" x1="57.6" x2="57.6" class="pin" id="connector57pin"/>
<g y="165.25" height="0.699999" stroke="none" stroke-width="0" fill="none" width="0.699999" class="terminal" x="57.2499" id="connector57terminal"/>
<line y1="150.85" y2="165.25" stroke="none" stroke-width="0" fill="none" stroke-linecap="round" x1="57.6" x2="57.6" class="pin" id="connector44pin"/>
<rect y="165.25" height="0.699999" stroke="none" stroke-width="0" fill="none" width="0.699999" class="terminal" x="57.2499" id="connector44terminal"/>
<line y1="150.85" y2="165.25" stroke="none" stroke-width="0" fill="none" stroke-linecap="round" x1="57.6" x2="57.6" class="pin" id="connector50pin"/>
<rect y="165.25" height="0.699999" stroke="none" stroke-width="0" fill="none" width="0.699999" class="terminal" x="57.2499" id="connector50terminal"/>
<line y1="150.85" y2="165.25" stroke="#787878" stroke-width="0.699999" fill="none" stroke-linecap="round" x1="57.6" x2="57.6" class="pin" id="connector89pin"/>
<g transform="matrix(1, 0, 0, 1, 58.2999, 149.45)">
<g>
<g transform="rotate(270)">
<g>
<text y="0" font-family="'Droid Sans'" text-anchor="start" stroke="none" stroke-width="0" fill="#8c8c8c" class="text" font-size="3.49999" x="0">GND</text>
</g>
</g>
</g>
</g>
<g y="165.25" height="0.699999" stroke="none" stroke-width="0" fill="none" width="0.699999" class="terminal" x="57.2499" id="connector89terminal"/>
<line y1="0.349999" y2="14.75" stroke="#787878" stroke-width="0.699999" fill="none" stroke-linecap="round" x1="36" x2="36" class="pin" id="connector86pin"/>
<g transform="matrix(1, 0, 0, 1, 36.6999, 16.15)">
<g>
<g transform="rotate(270)">
<g>
<text y="0" font-family="'Droid Sans'" text-anchor="end" stroke="none" stroke-width="0" fill="#8c8c8c" class="text" font-size="3.49999" x="0">3V3</text>
</g>
</g>
</g>
</g>
<g y="-0.349999" height="0.699999" stroke="none" stroke-width="0" fill="none" width="0.699999" class="terminal" x="35.6499" id="connector86terminal"/>
<line y1="0.349999" y2="14.75" stroke="none" stroke-width="0" fill="none" stroke-linecap="round" x1="50.4" x2="50.4" class="pin" id="connector40pin"/>
<rect y="-0.349999" height="0.699999" stroke="none" stroke-width="0" fill="none" width="0.699999" class="terminal" x="50.0499" id="connector40terminal"/>
<line y1="0.349999" y2="14.75" stroke="none" stroke-width="0" fill="none" stroke-linecap="round" x1="50.4" x2="50.4" class="pin" id="connector46pin"/>
<rect y="-0.349999" height="0.699999" stroke="none" stroke-width="0" fill="none" width="0.699999" class="terminal" x="50.0499" id="connector46terminal"/>
<line y1="0.349999" y2="14.75" stroke="#787878" stroke-width="0.699999" fill="none" stroke-linecap="round" x1="50.4" x2="50.4" class="pin" id="connector87pin"/>
<g transform="matrix(1, 0, 0, 1, 51.0999, 16.15)">
<g>
<g transform="rotate(270)">
<g>
<text y="0" font-family="'Droid Sans'" text-anchor="end" stroke="none" stroke-width="0" fill="#8c8c8c" class="text" font-size="3.49999" x="0">5V</text>
</g>
</g>
</g>
</g>
<g y="-0.349999" height="0.699999" stroke="none" stroke-width="0" fill="none" width="0.699999" class="terminal" x="50.0499" id="connector87terminal"/>
<line y1="0.349999" y2="14.75" stroke="#787878" stroke-width="0.699999" fill="none" stroke-linecap="round" x1="64.8" x2="64.8" class="pin" id="connector90pin"/>
<g transform="matrix(1, 0, 0, 1, 65.4999, 16.15)">
<g>
<g transform="rotate(270)">
<g>
<text y="0" font-family="'Droid Sans'" text-anchor="end" stroke="none" stroke-width="0" fill="#8c8c8c" class="text" font-size="3.49999" x="0">VIN</text>
</g>
</g>
</g>
</g>
<g y="-0.349999" height="0.699999" stroke="none" stroke-width="0" fill="none" width="0.699999" class="terminal" x="64.4499" id="connector90terminal"/>
<text y="76.4498" font-family="'Droid Sans'" text-anchor="middle" stroke="none" stroke-width="0" fill="#000000" class="text" id="label" font-size="4.25001" x="54.4501">Arduino</text>
<text y="80.9833" font-family="'Droid Sans'" text-anchor="middle" stroke="none" stroke-width="0" fill="#000000" class="text" id="label" font-size="4.25001" x="54.4501">Uno</text>
<text y="85.5167" font-family="'Droid Sans'" text-anchor="middle" stroke="none" stroke-width="0" fill="#000000" class="text" id="label" font-size="4.25001" x="54.4501">(Rev3)</text>
</g>
</g></g><g partID='854185820'><g transform='translate(112.499,137.648)' ><g id="schematic">
<g>
<path d="M13.5,14.966L9.9,14.966c-0.193,0,-0.35,-0.156,-0.35,-0.35s0.156,-0.35,0.35,-0.35L13.5,14.266c0.193,0,0.35,0.156,0.35,0.35S13.694,14.966,13.5,14.966z"/>
</g>
<g>
<path d="M9.9,14.966L6.3,14.966c-0.193,0,-0.35,-0.156,-0.35,-0.35s0.157,-0.35,0.35,-0.35l3.6,0c0.193,0,0.35,0.156,0.35,0.35S10.093,14.966,9.9,14.966z"/>
</g>
<g>
<polygon fill="#FFFFFF" points="9.9,14.616,6.3,7.416,9.9,7.416,13.5,7.416"/>
<path d="M9.9,15.398L5.734,7.066l8.333,0L9.9,15.398zM6.866,7.766L9.9,13.834l3.034,-6.068L6.866,7.766z"/>
</g>
<g>
<path d="M9.9,14.841c-0.124,0,-0.225,-0.101,-0.225,-0.225l0,-7.2c0,-0.124,0.101,-0.225,0.225,-0.225s0.225,0.101,0.225,0.225l0,7.2C10.124,14.74,10.024,14.841,9.9,14.841z"/>
</g>
<g>
<path d="M1.8,12.141c-0.058,0,-0.115,-0.021,-0.159,-0.065c-0.088,-0.088,-0.088,-0.23,0,-0.318l2.34,-2.341c0.088,-0.088,0.23,-0.088,0.318,0s0.088,0.23,0,0.318l-2.34,2.341C1.915,12.12,1.858,12.141,1.8,12.141z"/>
</g>
<g>
<path d="M2.16,15.381c-0.058,0,-0.115,-0.021,-0.159,-0.065c-0.088,-0.088,-0.088,-0.23,0,-0.318l2.34,-2.34c0.088,-0.088,0.23,-0.088,0.318,0s0.088,0.23,0,0.318l-2.34,2.34C2.276,15.359,2.218,15.381,2.16,15.381z"/>
</g>
<g id="connector0pin">
<path d="M9.9,22.166c-0.193,0,-0.35,-0.156,-0.35,-0.35l0,-7.2c0,-0.193,0.156,-0.35,0.35,-0.35s0.35,0.156,0.35,0.35l0,7.2C10.249,22.01,10.093,22.166,9.9,22.166z" fill="#787878"/>
</g>
<g id="connector0terminal">
<rect y="21.816" height="0.001" fill="none" width="0.001" x="9.9"/>
</g>
<g transform="matrix(1, 0, 0, 1, 3.429, 6.4262)">
<g>
<g transform="rotate(270)">
<g>
<g enable-background="new    ">
<path d="M-11.647,5.54l-0.891,0L-12.538,5.388l0.342,-0.372c0.049,-0.053,0.093,-0.101,0.131,-0.145s0.071,-0.086,0.099,-0.128c0.026,-0.042,0.047,-0.084,0.062,-0.125c0.015,-0.043,0.021,-0.088,0.021,-0.138c0,-0.038,-0.005,-0.072,-0.017,-0.102s-0.027,-0.054,-0.047,-0.075c-0.021,-0.02,-0.045,-0.035,-0.073,-0.046s-0.06,-0.016,-0.094,-0.016c-0.062,0,-0.118,0.013,-0.167,0.038c-0.051,0.024,-0.098,0.057,-0.143,0.096l-0.1,-0.116c0.025,-0.023,0.055,-0.046,0.084,-0.065c0.029,-0.021,0.063,-0.039,0.097,-0.054s0.071,-0.026,0.109,-0.036c0.038,-0.008,0.079,-0.013,0.121,-0.013c0.063,0,0.119,0.009,0.169,0.026c0.051,0.018,0.094,0.043,0.129,0.076c0.035,0.032,0.063,0.072,0.082,0.119c0.019,0.048,0.028,0.101,0.028,0.16c0,0.056,-0.009,0.108,-0.026,0.158c-0.017,0.05,-0.041,0.1,-0.07,0.148c-0.031,0.048,-0.066,0.097,-0.109,0.146c-0.041,0.049,-0.087,0.1,-0.136,0.152L-12.32,5.37l0,0.008l0.673,0L-11.647,5.54z" fill="#787878"/>
</g>
</g>
</g>
</g>
</g>
<g id="connector1pin">
<path d="M9.9,7.766c-0.193,0,-0.35,-0.157,-0.35,-0.35l0,-7.2c0,-0.193,0.156,-0.35,0.35,-0.35s0.35,0.157,0.35,0.35l0,7.2C10.249,7.609,10.093,7.766,9.9,7.766z" fill="#787878"/>
</g>
<g id="connector1terminal">
<polygon fill="none" points="9.9,0.216,9.901,0.216,9.901,0.216"/>
</g>
<g transform="matrix(1, 0, 0, 1, 3.429, 1.3462)">
<g>
<g transform="rotate(270)">
<g>
<g enable-background="new    ">
<path d="M-2.616,5.54l-0.172,0L-2.788,4.648c0,-0.028,0,-0.058,0,-0.09s0.001,-0.063,0.002,-0.095c0.001,-0.032,0.002,-0.063,0.003,-0.092c0.001,-0.028,0.002,-0.054,0.002,-0.076c-0.011,0.012,-0.021,0.021,-0.029,0.03s-0.017,0.017,-0.026,0.024s-0.018,0.016,-0.028,0.025c-0.01,0.008,-0.021,0.019,-0.035,0.03l-0.145,0.118l-0.094,-0.12l0.374,-0.292l0.146,0L-2.618,5.54z" fill="#787878"/>
</g>
</g>
</g>
</g>
</g>
<g>
<path d="M0.18,13.536l1.08,-2.521l1.44,1.438L0.18,13.536z"/>
</g>
<g>
<path d="M0.54,16.776l1.08,-2.521l1.438,1.438L0.54,16.776z"/>
</g>
</g>
</g></g><g partID='854183050'><g transform='translate(213.299,130.448)' ><g id="schematic">
<g>
<path d="M13.5,14.966L9.9,14.966c-0.193,0,-0.35,-0.156,-0.35,-0.35s0.156,-0.35,0.35,-0.35L13.5,14.266c0.193,0,0.35,0.156,0.35,0.35S13.694,14.966,13.5,14.966z"/>
</g>
<g>
<path d="M9.9,14.966L6.3,14.966c-0.193,0,-0.35,-0.156,-0.35,-0.35s0.157,-0.35,0.35,-0.35l3.6,0c0.193,0,0.35,0.156,0.35,0.35S10.093,14.966,9.9,14.966z"/>
</g>
<g>
<polygon fill="#FFFFFF" points="9.9,14.616,6.3,7.416,9.9,7.416,13.5,7.416"/>
<path d="M9.9,15.398L5.734,7.066l8.333,0L9.9,15.398zM6.866,7.766L9.9,13.834l3.034,-6.068L6.866,7.766z"/>
</g>
<g>
<path d="M9.9,14.841c-0.124,0,-0.225,-0.101,-0.225,-0.225l0,-7.2c0,-0.124,0.101,-0.225,0.225,-0.225s0.225,0.101,0.225,0.225l0,7.2C10.124,14.74,10.024,14.841,9.9,14.841z"/>
</g>
<g>
<path d="M1.8,12.141c-0.058,0,-0.115,-0.021,-0.159,-0.065c-0.088,-0.088,-0.088,-0.23,0,-0.318l2.34,-2.341c0.088,-0.088,0.23,-0.088,0.318,0s0.088,0.23,0,0.318l-2.34,2.341C1.915,12.12,1.858,12.141,1.8,12.141z"/>
</g>
<g>
<path d="M2.16,15.381c-0.058,0,-0.115,-0.021,-0.159,-0.065c-0.088,-0.088,-0.088,-0.23,0,-0.318l2.34,-2.34c0.088,-0.088,0.23,-0.088,0.318,0s0.088,0.23,0,0.318l-2.34,2.34C2.276,15.359,2.218,15.381,2.16,15.381z"/>
</g>
<g id="connector0pin">
<path d="M9.9,22.166c-0.193,0,-0.35,-0.156,-0.35,-0.35l0,-7.2c0,-0.193,0.156,-0.35,0.35,-0.35s0.35,0.156,0.35,0.35l0,7.2C10.249,22.01,10.093,22.166,9.9,22.166z" fill="#787878"/>
</g>
<g id="connector0terminal">
<rect y="21.816" height="0.001" fill="none" width="0.001" x="9.9"/>
</g>
<g transform="matrix(1, 0, 0, 1, 3.429, 6.4262)">
<g>
<g transform="rotate(270)">
<g>
<g enable-background="new    ">
<path d="M-11.647,5.54l-0.891,0L-12.538,5.388l0.342,-0.372c0.049,-0.053,0.093,-0.101,0.131,-0.145s0.071,-0.086,0.099,-0.128c0.026,-0.042,0.047,-0.084,0.062,-0.125c0.015,-0.043,0.021,-0.088,0.021,-0.138c0,-0.038,-0.005,-0.072,-0.017,-0.102s-0.027,-0.054,-0.047,-0.075c-0.021,-0.02,-0.045,-0.035,-0.073,-0.046s-0.06,-0.016,-0.094,-0.016c-0.062,0,-0.118,0.013,-0.167,0.038c-0.051,0.024,-0.098,0.057,-0.143,0.096l-0.1,-0.116c0.025,-0.023,0.055,-0.046,0.084,-0.065c0.029,-0.021,0.063,-0.039,0.097,-0.054s0.071,-0.026,0.109,-0.036c0.038,-0.008,0.079,-0.013,0.121,-0.013c0.063,0,0.119,0.009,0.169,0.026c0.051,0.018,0.094,0.043,0.129,0.076c0.035,0.032,0.063,0.072,0.082,0.119c0.019,0.048,0.028,0.101,0.028,0.16c0,0.056,-0.009,0.108,-0.026,0.158c-0.017,0.05,-0.041,0.1,-0.07,0.148c-0.031,0.048,-0.066,0.097,-0.109,0.146c-0.041,0.049,-0.087,0.1,-0.136,0.152L-12.32,5.37l0,0.008l0.673,0L-11.647,5.54z" fill="#787878"/>
</g>
</g>
</g>
</g>
</g>
<g id="connector1pin">
<path d="M9.9,7.766c-0.193,0,-0.35,-0.157,-0.35,-0.35l0,-7.2c0,-0.193,0.156,-0.35,0.35,-0.35s0.35,0.157,0.35,0.35l0,7.2C10.249,7.609,10.093,7.766,9.9,7.766z" fill="#787878"/>
</g>
<g id="connector1terminal">
<polygon fill="none" points="9.9,0.216,9.901,0.216,9.901,0.216"/>
</g>
<g transform="matrix(1, 0, 0, 1, 3.429, 1.3462)">
<g>
<g transform="rotate(270)">
<g>
<g enable-background="new    ">
<path d="M-2.616,5.54l-0.172,0L-2.788,4.648c0,-0.028,0,-0.058,0,-0.09s0.001,-0.063,0.002,-0.095c0.001,-0.032,0.002,-0.063,0.003,-0.092c0.001,-0.028,0.002,-0.054,0.002,-0.076c-0.011,0.012,-0.021,0.021,-0.029,0.03s-0.017,0.017,-0.026,0.024s-0.018,0.016,-0.028,0.025c-0.01,0.008,-0.021,0.019,-0.035,0.03l-0.145,0.118l-0.094,-0.12l0.374,-0.292l0.146,0L-2.618,5.54z" fill="#787878"/>
</g>
</g>
</g>
</g>
</g>
<g>
<path d="M0.18,13.536l1.08,-2.521l1.44,1.438L0.18,13.536z"/>
</g>
<g>
<path d="M0.54,16.776l1.08,-2.521l1.438,1.438L0.54,16.776z"/>
</g>
</g>
</g></g><g partID='854175860'><g transform='translate(139.896,58.3135)' ><g transform='matrix(0,1,-1,0,0,0)'  ><g xmlns="http://www.w3.org/2000/svg" id="schematic">
<line y1="3.096" y2="0.216" stroke="#000000" stroke-width="0.432002" stroke-linecap="round" xmlns="http://www.w3.org/2000/svg" x1="7.55002" x2="8.63003" class="other"/>
<line y1="0.216" y2="5.976" stroke="#000000" stroke-width="0.432002" stroke-linecap="round" xmlns="http://www.w3.org/2000/svg" x1="8.63003" x2="10.43" class="other"/>
<line y1="5.976" y2="0.216" stroke="#000000" stroke-width="0.432002" stroke-linecap="round" xmlns="http://www.w3.org/2000/svg" x1="10.43" x2="12.23" class="other"/>
<line y1="0.216" y2="5.976" stroke="#000000" stroke-width="0.432002" stroke-linecap="round" xmlns="http://www.w3.org/2000/svg" x1="12.23" x2="14.03" class="other"/>
<line y1="5.976" y2="0.216" stroke="#000000" stroke-width="0.432002" stroke-linecap="round" xmlns="http://www.w3.org/2000/svg" x1="14.03" x2="15.8301" class="other"/>
<line y1="0.216" y2="5.976" stroke="#000000" stroke-width="0.432002" stroke-linecap="round" xmlns="http://www.w3.org/2000/svg" x1="15.8301" x2="17.6301" class="other"/>
<line y1="5.976" y2="0.216" stroke="#000000" stroke-width="0.432002" stroke-linecap="round" xmlns="http://www.w3.org/2000/svg" x1="17.6301" x2="19.4301" class="other"/>
<line y1="0.216" y2="5.976" stroke="#000000" stroke-width="0.432002" stroke-linecap="round" xmlns="http://www.w3.org/2000/svg" x1="19.4301" x2="21.2301" class="other"/>
<line y1="5.976" y2="3.096" stroke="#000000" stroke-width="0.432002" stroke-linecap="round" xmlns="http://www.w3.org/2000/svg" x1="21.2301" x2="21.9501" class="other"/>
<line y1="3.096" y2="3.096" stroke="#787878" stroke-width="0.700001" connectorname="2" stroke-linecap="round" xmlns="http://www.w3.org/2000/svg" x1="29.1502" x2="21.9501" class="pin" id="connector1pin"/>
<g y="3.096" height="0.000283465" stroke="none" stroke-width="0" fill="none" xmlns="http://www.w3.org/2000/svg" width="0.000283466" class="terminal" id="connector1terminal" x="29.1502"/>
<text y="2.046" font-family="'Droid Sans'" text-anchor="middle" stroke="none" stroke-width="0" fill="#8c8c8c" xmlns="http://www.w3.org/2000/svg" class="text" font-size="2.50001" x="25.5501">2</text>
<line y1="3.096" y2="3.096" stroke="#787878" stroke-width="0.700001" connectorname="1" stroke-linecap="round" xmlns="http://www.w3.org/2000/svg" x1="0.350001" x2="7.55002" class="pin" id="connector0pin"/>
<g y="3.096" height="0.000283465" stroke="none" stroke-width="0" fill="none" xmlns="http://www.w3.org/2000/svg" width="0.000283466" class="terminal" id="connector0terminal" x="0.350001"/>
<text y="2.046" font-family="'Droid Sans'" text-anchor="middle" stroke="none" stroke-width="0" fill="#8c8c8c" xmlns="http://www.w3.org/2000/svg" class="text" font-size="2.50001" x="3.95001">1</text>
</g>
</g></g></g><g partID='854182790'><g transform='translate(187.533,125.923)' ><g transform='matrix(0,1,-1,0,0,0)'  ><g xmlns="http://www.w3.org/2000/svg" id="schematic">
<line y1="9.333" y2="7.534" stroke="#000000" stroke-width="0.7" fill="none" stroke-linecap="round" xmlns="http://www.w3.org/2000/svg" x1="4.741" x2="4.741"/>
<line y1="21.934" y2="9.333" stroke="#000000" stroke-width="0.7" fill="none" stroke-linecap="round" xmlns="http://www.w3.org/2000/svg" x1="4.741" x2="1.142"/>
<circle r="0.36" cx="4.741" stroke="#000000" stroke-width="0.7" cy="21.934" fill="none" xmlns="http://www.w3.org/2000/svg"/>
<circle r="0.36" cx="4.741" stroke="#000000" stroke-width="0.7" cy="7.534" fill="none" xmlns="http://www.w3.org/2000/svg"/>
<line y1="29.135" y2="21.934" stroke="#555555" stroke-width="0.7" fill="none" stroke-linecap="round" xmlns="http://www.w3.org/2000/svg" x1="4.741" x2="4.741" id="connector0pin"/>
<g y="29.134" height="0.001" fill="none" xmlns="http://www.w3.org/2000/svg" width="0.002" id="connector0terminal" x="4.74"/>
<line y1="0.333" y2="7.534" stroke="#555555" stroke-width="0.7" fill="none" stroke-linecap="round" xmlns="http://www.w3.org/2000/svg" x1="4.741" x2="4.741" id="connector1pin"/>
<g y="0.333" height="0.001" fill="none" xmlns="http://www.w3.org/2000/svg" width="0" id="connector1terminal" x="4.741"/>
</g>
</g></g></g><g partID='854188160'><g transform='translate(158.05,78.9575)' ><g xmlns="http://www.w3.org/2000/svg" id="schematic">
<line y1="8.50619" y2="4.9062" stroke="#000000" stroke-width="0.72" stroke-linecap="round" xmlns="http://www.w3.org/2000/svg" x1="7.54999" x2="14.75" class="other"/>
<line y1="15.7062" y2="15.7062" stroke="#000000" stroke-width="0.36" stroke-linecap="round" xmlns="http://www.w3.org/2000/svg" x1="14.75" x2="16.55" class="other"/>
<line y1="1.3062" y2="1.3062" stroke="#000000" stroke-width="0.432" stroke-linecap="round" xmlns="http://www.w3.org/2000/svg" x1="14.75" x2="16.55" class="other"/>
<circle r="1.0182" cx="14.75" cy="1.3062" stroke="#000000" stroke-width="0.576" fill="none" xmlns="http://www.w3.org/2000/svg" class="other"/>
<circle r="1.0182" cx="14.75" cy="15.7062" stroke="#000000" stroke-width="0.576" fill="none" xmlns="http://www.w3.org/2000/svg" class="other"/>
<circle r="1.0182" cx="7.54999" cy="8.50619" stroke="#000000" stroke-width="0.576" fill="none" xmlns="http://www.w3.org/2000/svg" class="other"/>
<line y1="8.50619" y2="8.50619" stroke="#787878" stroke-width="0.699999" connectorname="P" stroke-linecap="round" xmlns="http://www.w3.org/2000/svg" x1="0.349999" x2="7.54999" class="pin" id="connector1pin"/>
<g y="8.50619" height="0.000283464" stroke="none" stroke-width="0" fill="none" xmlns="http://www.w3.org/2000/svg" width="0.000283465" class="terminal" id="connector1terminal" x="0.349999"/>
<text y="7.45618" font-family="'Droid Sans'" text-anchor="middle" stroke="none" stroke-width="0" fill="#8c8c8c" xmlns="http://www.w3.org/2000/svg" class="text" font-size="2.5" x="3.94999">2</text>
<line y1="15.7062" y2="15.7062" stroke="#787878" stroke-width="0.699999" connectorname="S" stroke-linecap="round" xmlns="http://www.w3.org/2000/svg" x1="21.95" x2="14.75" class="pin" id="connector2pin"/>
<g y="15.7062" height="0.000283464" stroke="none" stroke-width="0" fill="none" xmlns="http://www.w3.org/2000/svg" width="0.000283465" class="terminal" id="connector2terminal" x="21.95"/>
<text y="14.6562" font-family="'Droid Sans'" text-anchor="middle" stroke="none" stroke-width="0" fill="#8c8c8c" xmlns="http://www.w3.org/2000/svg" class="text" font-size="2.5" x="18.35">3</text>
<line y1="1.3062" y2="1.3062" stroke="#787878" stroke-width="0.699999" connectorname="O" stroke-linecap="round" xmlns="http://www.w3.org/2000/svg" x1="21.95" x2="14.75" class="pin" id="connector0pin"/>
<g y="1.3062" height="0.000283464" stroke="none" stroke-width="0" fill="none" xmlns="http://www.w3.org/2000/svg" width="0.000283465" class="terminal" id="connector0terminal" x="21.95"/>
<text y="0.256206" font-family="'Droid Sans'" text-anchor="middle" stroke="none" stroke-width="0" fill="#8c8c8c" xmlns="http://www.w3.org/2000/svg" class="text" font-size="2.5" x="18.35">1</text>
</g>
</g></g><g partID='854184990'><line stroke-linecap='round' stroke='#404040' x1='136.8' y1='130.664' x2='158.399' y2='130.664' stroke-width='0.699998' /></g><g partID='854184080'><line stroke-linecap='round' stroke='#404040' x1='136.8' y1='87.4638' x2='136.8' y2='130.664' stroke-width='0.699998' /></g><circle  fill="black" cx="136.8" cy="87.4638" r="1.44" stroke-width="0" stroke="none" /><g partID='854185750'><line stroke-linecap='round' stroke='#404040' x1='223.2' y1='173.864' x2='223.2' y2='152.264' stroke-width='0.699998' /></g><g partID='854185680'><line stroke-linecap='round' stroke='#404040' x1='57.6' y1='173.864' x2='223.2' y2='173.864' stroke-width='0.699998' /></g><g partID='854185910'><line stroke-linecap='round' stroke='#404040' x1='122.4' y1='101.864' x2='108' y2='101.864' stroke-width='0.699998' /></g><g partID='854185840'><line stroke-linecap='round' stroke='#404040' x1='122.4' y1='137.864' x2='122.4' y2='101.864' stroke-width='0.699998' /></g><g partID='854186230'><line stroke-linecap='round' stroke='#404040' x1='122.4' y1='173.864' x2='122.4' y2='159.464' stroke-width='0.699998' /></g><g partID='854186000'><line stroke-linecap='round' stroke='#404040' x1='57.6' y1='173.864' x2='122.4' y2='173.864' stroke-width='0.699998' /></g><g partID='854189450'><line stroke-linecap='round' stroke='#404040' x1='223.2' y1='94.6638' x2='180' y2='94.6638' stroke-width='0.699998' /></g><g partID='854188400'><line stroke-linecap='round' stroke='#404040' x1='223.2' y1='130.664' x2='223.2' y2='94.6638' stroke-width='0.699998' /></g><circle  fill="black" cx="223.2" cy="130.664" r="1.44" stroke-width="0" stroke="none" /><g partID='854189220'><line stroke-linecap='round' stroke='#404040' x1='158.4' y1='87.4638' x2='136.8' y2='87.4638' stroke-width='0.699998' /></g><circle  fill="black" cx="136.8" cy="87.4638" r="1.44" stroke-width="0" stroke="none" /><g partID='854189520'><line stroke-linecap='round' stroke='#404040' x1='223.2' y1='130.664' x2='187.2' y2='130.664' stroke-width='0.699998' /></g><circle  fill="black" cx="223.2" cy="130.664" r="1.44" stroke-width="0" stroke="none" /><g partID='854191950'><line stroke-linecap='round' stroke='#404040' x1='136.8' y1='58.6637' x2='136.736' y2='1.05688' stroke-width='0.699998' /></g><g partID='854191990'><line stroke-linecap='round' stroke='#404040' x1='136.736' y1='1.05688' x2='50.4864' y2='1.05688' stroke-width='0.699998' /></g><g partID='854192040'><line stroke-linecap='round' stroke='#404040' x1='50.4864' y1='1.05688' x2='50.3999' y2='8.26392' stroke-width='0.699998' /></g><g partID='854185820' id='partLabel'><g transform='translate(128.979,140.848)' ><g font-size='5' font-style='normal' font-weight='normal' fill='#000000' font-family="'DroidSans'" id='schematicLabel' fill-opacity='1' stroke='none' ><text x='0' y='3.75'>LED2</text><text x='0' y='8.75'>Red (633nm)</text></g></g></g><g partID='854183050' id='partLabel'><g transform='translate(229.779,133.648)' ><g font-size='5' font-style='normal' font-weight='normal' fill='#000000' font-family="'DroidSans'" id='schematicLabel' fill-opacity='1' stroke='none' ><text x='0' y='3.75'>LED1</text><text x='0' y='8.75'>Red (633nm)</text></g></g></g><g partID='854175860' id='partLabel'><g transform='translate(149.096,67.8135)' ><g transform='matrix(0,1,-1,0,0,0)'  ><g font-size='5' font-style='normal' font-weight='normal' fill='#000000' font-family="'DroidSans'" id='schematicLabel' fill-opacity='1' stroke='none' ><text x='0' y='3.75'>R1</text><text x='0' y='8.75'>220&#x3a9;</text></g></g></g></g></svg>