<?xml version="1.0" encoding="UTF-8" standalone="no"?>
<!DOCTYPE svg PUBLIC "-//W3C//DTD SVG 1.1//EN" "http://www.w3.org/Graphics/SVG/1.1/DTD/svg11.dtd">
<svg xmlns="http://www.w3.org/2000/svg" xmlns:xlink="http://www.w3.org/1999/xlink" version="1.1" width="1231.3508pt" height="225.7912pt" viewBox="0 0 1231.3508 225.7912">
<g enable-background="new">
<clipPath id="cp0">
<path transform="matrix(1,0,0,-1,-241.1892,741.6896)" d="M 0 0 L 1920 0 L 1920 1080 L 0 1080 Z "/>
</clipPath>
<g clip-path="url(#cp0)">
<path transform="matrix(1,0,0,-1,-241.1892,741.6896)" d="M 0 0 L 1920 0 L 1920 1080 L 0 1080 Z " fill="#ffffff"/>
<g id="Layer-1" data-name="P">
<path transform="matrix(1,0,0,1,74.238819,52.444765)" stroke-width="2" stroke-linecap="butt" stroke-miterlimit="4" stroke-linejoin="miter" fill="none" stroke="#929292" d="M 0 0 L 175.7983 0 "/>
</g>
<g id="Layer-1" data-name="P">
<path transform="matrix(1,0,0,-1,251.0371,95.28406)" stroke-width="2" stroke-linecap="butt" stroke-miterlimit="4" stroke-linejoin="miter" fill="none" stroke="#000000" d="M 0 43.87027 L .07465163 0 L 71.79432 .213635 L 72.41145 43.42696 "/>
</g>
<g id="Layer-1" data-name="P">
<path transform="matrix(1,0,0,1,322.4485,51.444765)" stroke-width="2" stroke-linecap="butt" stroke-miterlimit="4" stroke-linejoin="miter" fill="none" stroke="#000000" d="M 0 0 L 73.40613 0 "/>
</g>
<g id="Layer-1" data-name="P">
<path transform="matrix(1,0,0,-1,396.8546,94.31677)" stroke-width="2" stroke-linecap="butt" stroke-miterlimit="4" stroke-linejoin="miter" fill="none" stroke="#000000" d="M 0 43.87027 L .07465163 0 L 71.79433 .213635 L 72.41145 43.42696 "/>
</g>
<g id="Layer-1" data-name="P">
<path transform="matrix(1,0,0,1,468.26588,50.444765)" stroke-width="2" stroke-linecap="butt" stroke-miterlimit="4" stroke-linejoin="miter" fill="none" stroke="#000000" d="M 0 0 L 73.40614 0 "/>
</g>
<g id="Layer-1" data-name="P">
<path transform="matrix(1,0,0,-1,542.6721,93.31677)" stroke-width="2" stroke-linecap="butt" stroke-miterlimit="4" stroke-linejoin="miter" fill="none" stroke="#000000" d="M 0 43.87027 L .07465163 0 L 71.79433 .213635 L 72.41145 43.42696 "/>
</g>
<g id="Layer-1" data-name="P">
<path transform="matrix(1,0,0,1,615.0834,49.477479)" stroke-width="2" stroke-linecap="butt" stroke-miterlimit="4" stroke-linejoin="miter" fill="none" stroke="#000000" d="M 0 0 L 73.40614 0 "/>
</g>
<g id="Layer-1" data-name="P">
<path transform="matrix(1,0,0,-1,687.4895,93.34949)" stroke-width="2" stroke-linecap="butt" stroke-miterlimit="4" stroke-linejoin="miter" fill="none" stroke="#000000" d="M 0 43.87027 L .07465163 0 L 71.79433 .213635 L 72.41145 43.42696 "/>
</g>
<g id="Layer-1" data-name="P">
<path transform="matrix(1,0,0,1,758.9008,49.477479)" stroke-width="2" stroke-linecap="butt" stroke-miterlimit="4" stroke-linejoin="miter" fill="none" stroke="#000000" d="M 0 0 L 73.40614 0 "/>
</g>
<g id="Layer-1" data-name="P">
<path transform="matrix(1,0,0,-1,831.30679,93.31677)" stroke-width="2" stroke-linecap="butt" stroke-miterlimit="4" stroke-linejoin="miter" fill="none" stroke="#000000" d="M 0 43.87027 L .07465163 0 L 71.79433 .213635 L 72.41145 43.42696 "/>
</g>
<g id="Layer-1" data-name="P">
<path transform="matrix(1,0,0,1,902.71878,49.444765)" stroke-width="2" stroke-linecap="butt" stroke-miterlimit="4" stroke-linejoin="miter" fill="none" stroke="#000000" d="M 0 0 L 73.40614 0 "/>
</g>
<g id="Layer-1" data-name="P">
<path transform="matrix(1,0,0,-1,977.12478,92.31677)" stroke-width="2" stroke-linecap="butt" stroke-miterlimit="4" stroke-linejoin="miter" fill="none" stroke="#000000" d="M 0 43.87027 L .07465163 0 L 71.79433 .213635 L 72.41145 43.42696 "/>
</g>
<g id="Layer-1" data-name="P">
<path transform="matrix(1,0,0,1,1048.5358,48.444765)" stroke-width="2" stroke-linecap="butt" stroke-miterlimit="4" stroke-linejoin="miter" fill="none" stroke="#929292" d="M 0 0 L 175.7983 0 "/>
</g>
<g id="Layer-1" data-name="P">
<path transform="matrix(1,0,0,1,77.738819,173.56159)" stroke-width="2" stroke-linecap="butt" stroke-miterlimit="4" stroke-linejoin="miter" fill="none" stroke="#929292" d="M 0 0 L 131.1279 0 "/>
</g>
<g id="Layer-1" data-name="P">
<path transform="matrix(1,0,0,-1,208.86672,217.40088)" stroke-width="2" stroke-linecap="butt" stroke-miterlimit="4" stroke-linejoin="miter" fill="none" stroke="#000000" d="M 0 43.87027 L .120704 0 L 116.084 .213635 L 117.0819 43.42696 "/>
</g>
<g id="Layer-1" data-name="P">
<path transform="matrix(1,0,0,1,324.9485,173.56159)" stroke-width="2" stroke-linecap="butt" stroke-miterlimit="4" stroke-linejoin="miter" fill="none" stroke="#000000" d="M 0 0 L 73.40614 0 "/>
</g>
<g id="Layer-1" data-name="P">
<path transform="matrix(1,0,0,-1,399.3546,216.4336)" stroke-width="2" stroke-linecap="butt" stroke-miterlimit="4" stroke-linejoin="miter" fill="none" stroke="#000000" d="M 0 43.87027 L .07465163 0 L 71.79433 .213635 L 72.41145 43.42696 "/>
</g>
<g id="Layer-1" data-name="P">
<path transform="matrix(1,0,0,1,470.766,172.56159)" stroke-width="2" stroke-linecap="butt" stroke-miterlimit="4" stroke-linejoin="miter" fill="none" stroke="#000000" d="M 0 0 L 73.40614 0 "/>
</g>
<g id="Layer-1" data-name="P">
<path transform="matrix(1,0,0,1,542.1721,219.40387)" stroke-width="2" stroke-linecap="butt" stroke-miterlimit="4" stroke-linejoin="miter" fill="none" stroke="#000000" d="M 0 0 L 364.5462 0 "/>
</g>
<g id="Layer-1" data-name="P">
<path transform="matrix(1,0,0,1,905.21878,171.56159)" stroke-width="2" stroke-linecap="butt" stroke-miterlimit="4" stroke-linejoin="miter" fill="none" stroke="#000000" d="M 0 0 L 73.40614 0 "/>
</g>
<g id="Layer-1" data-name="P">
<path transform="matrix(1,0,0,-1,979.62478,214.4336)" stroke-width="2" stroke-linecap="butt" stroke-miterlimit="4" stroke-linejoin="miter" fill="none" stroke="#000000" d="M 0 43.87027 L .07465163 0 L 71.79433 .213635 L 72.41145 43.42696 "/>
</g>
<g id="Layer-1" data-name="P">
<path transform="matrix(1,0,0,1,1051.0358,170.56159)" stroke-width="2" stroke-linecap="butt" stroke-miterlimit="4" stroke-linejoin="miter" fill="none" stroke="#929292" d="M 0 0 L 175.7983 0 "/>
</g>
<g id="Layer-1" data-name="P">
</g>
<g id="Layer-1" data-name="P">
<text xml:space="preserve" transform="matrix(1 0 -0 1 4.200302 61.770387)" font-size="24" font-family="HelveticaNeue"><tspan y="0" x="0 15.552 32.88">SCL</tspan></text>
</g>
<g id="Layer-1" data-name="P">
</g>
<g id="Layer-1" data-name="P">
<text xml:space="preserve" transform="matrix(1 0 -0 1 3.3123017 183.88715)" font-size="24" font-family="HelveticaNeue"><tspan y="0" x="0 15.552 32.448">SDA</tspan></text>
</g>
<g id="Layer-1" data-name="P">
</g>
<g id="Layer-1" data-name="P">
<text fill="#017100" xml:space="preserve" transform="matrix(1 0 -0 1 155.36672 42.332887)" font-size="24" font-family="HelveticaNeue"><tspan y="0" x="0 12 19.560002 32.448 40.440004">start</tspan></text>
</g>
<g id="Layer-1" data-name="P">
</g>
<g id="Layer-1" data-name="P">
<text fill="#ee220c" xml:space="preserve" transform="matrix(1 0 -0 1 1053.0358 38.332887)" font-size="24" font-family="HelveticaNeue"><tspan y="0" x="0 12 19.560002 33.336004">stop</tspan></text>
</g>
<g id="Layer-1" data-name="P">
<path transform="matrix(0,-1,1,0,543.1721,219.40387)" stroke-width="2" stroke-linecap="butt" stroke-miterlimit="4" stroke-linejoin="miter" fill="none" stroke="#000000" d="M 0 0 L 47.84227 0 "/>
</g>
<g id="Layer-1" data-name="P">
<path transform="matrix(0,-1,1,0,905.71878,218.40387)" stroke-width="2" stroke-linecap="butt" stroke-miterlimit="4" stroke-linejoin="miter" fill="none" stroke="#000000" d="M 0 0 L 47.84227 0 "/>
</g>
<g id="Layer-1" data-name="P">
</g>
<g id="Layer-1" data-name="P">
<text fill="#5e5e5e" xml:space="preserve" transform="matrix(1 0 -0 1 348.3498 28.694886)" font-size="36" font-family="Courier"><tspan y="0" x="0">1</tspan></text>
</g>
<g id="Layer-1" data-name="P">
</g>
<g id="Layer-1" data-name="P">
<text fill="#5e5e5e" xml:space="preserve" transform="matrix(1 0 -0 1 496.6673 27.757386)" font-size="36" font-family="Courier"><tspan y="0" x="0">1</tspan></text>
</g>
<g id="Layer-1" data-name="P">
</g>
<g id="Layer-1" data-name="P">
<text fill="#5e5e5e" xml:space="preserve" transform="matrix(1 0 -0 1 931.11978 28.694886)" font-size="36" font-family="Courier"><tspan y="0" x="0">1</tspan></text>
</g>
<g id="Layer-1" data-name="P">
</g>
<g id="Layer-1" data-name="P">
<text fill="#5e5e5e" xml:space="preserve" transform="matrix(1 0 -0 1 640.9847 28.694886)" font-size="36" font-family="Courier"><tspan y="0" x="0">0</tspan></text>
</g>
<g id="Layer-1" data-name="P">
</g>
<g id="Layer-1" data-name="P">
<text fill="#5e5e5e" xml:space="preserve" transform="matrix(1 0 -0 1 786.05178 28.694886)" font-size="36" font-family="Courier"><tspan y="0" x="0">0</tspan></text>
</g>
</g>
</g>
</svg>
