<?xml version="1.0" encoding="UTF-8" standalone="no"?>
<!DOCTYPE svg PUBLIC "-//W3C//DTD SVG 1.1//EN" "http://www.w3.org/Graphics/SVG/1.1/DTD/svg11.dtd">
<svg xmlns="http://www.w3.org/2000/svg" xmlns:xlink="http://www.w3.org/1999/xlink" version="1.1" width="594.4831pt" height="295.28269pt" viewBox="0 0 594.4831 295.28269">
<g enable-background="new">
<clipPath id="cp0">
<path transform="matrix(1,0,0,-1,-602.1099,752.7203)" d="M 0 0 L 1920 0 L 1920 1080 L 0 1080 Z "/>
</clipPath>
<g clip-path="url(#cp0)">
<path transform="matrix(1,0,0,-1,-602.1099,752.7203)" d="M 0 0 L 1920 0 L 1920 1080 L 0 1080 Z " fill="#ffffff"/>
<g id="Layer-1" data-name="P">
<path transform="matrix(0,1,-1,-0,407.86006,77.3587)" stroke-width="2" stroke-linecap="butt" stroke-miterlimit="4" stroke-linejoin="miter" fill="none" stroke="#000000" d="M 53.8993 0 L 107.7986 89.77771 L 0 89.77771 Z M 53.8993 0 "/>
</g>
<g id="Layer-1" data-name="P">
</g>
<g id="Layer-1" data-name="P">
<text xml:space="preserve" transform="matrix(1 0 -0 1 319.95619 159.3255)" font-size="24" font-family="HelveticaNeue"><tspan y="0" x="0">+</tspan></text>
</g>
<g id="Layer-1" data-name="P">
</g>
<g id="Layer-1" data-name="P">
<text xml:space="preserve" transform="matrix(1 0 -0 1 322.3562 117.145999)" font-size="24" font-family="HelveticaNeue"><tspan y="0" x="0">&#x2013;</tspan></text>
</g>
<g id="Layer-1" data-name="P">
</g>
<clipPath id="cp1">
<path transform="matrix(1,0,0,-1,-602.1099,752.7203)" d="M 820.6984 476.484 L 853.1126 476.484 L 853.1126 480.484 L 820.6984 480.484 Z "/>
</clipPath>
<g clip-path="url(#cp1)">
<path transform="matrix(1,0,0,1,219.5885,274.23628)" stroke-width="2" stroke-linecap="butt" stroke-miterlimit="4" stroke-linejoin="miter" fill="none" stroke="#000000" d="M 0 0 L 30.41416 0 "/>
</g>
<g id="Layer-1" data-name="P">
</g>
<clipPath id="cp2">
<path transform="matrix(1,0,0,-1,-602.1099,752.7203)" d="M 824.756 468.5664 L 847.17019 468.5664 L 847.17019 472.5664 L 824.756 472.5664 Z "/>
</clipPath>
<g clip-path="url(#cp2)">
<path transform="matrix(1,0,0,1,223.64606,282.15388)" stroke-width="2" stroke-linecap="butt" stroke-miterlimit="4" stroke-linejoin="miter" fill="none" stroke="#000000" d="M 0 0 L 20.41418 0 "/>
</g>
<g id="Layer-1" data-name="P">
</g>
<clipPath id="cp3">
<path transform="matrix(1,0,0,-1,-602.1099,752.7203)" d="M 830.756 460.6489 L 843.17019 460.6489 L 843.17019 464.6489 L 830.756 464.6489 Z "/>
</clipPath>
<g clip-path="url(#cp3)">
<path transform="matrix(1,0,0,1,229.64606,290.07139)" stroke-width="2" stroke-linecap="butt" stroke-miterlimit="4" stroke-linejoin="miter" fill="none" stroke="#000000" d="M 0 0 L 10.41419 0 "/>
</g>
<g id="Layer-1" data-name="P">
</g>
<clipPath id="cp4">
<path transform="matrix(1,0,0,-1,-602.1099,752.7203)" d="M 0 0 L 1920 0 L 1920 1080 L 0 1080 Z "/>
</clipPath>
<g clip-path="url(#cp4)">
<path transform="matrix(1,0,0,1,234.71045,151.2873)" stroke-width="2" stroke-linecap="butt" stroke-miterlimit="4" stroke-linejoin="miter" fill="none" stroke="#000000" d="M -.00005340576 123.8602 L 2.010565 0 L 83.13163 .9295874 "/>
</g>
<g id="Layer-1" data-name="P">
<path transform="matrix(1,0,0,-1,-602.1099,752.7203)" d="M 837.2851 646.3075 C 835.3324 644.3549 835.3324 641.189 837.2851 639.2364 C 839.2377 637.2838 842.4035 637.2838 844.3561 639.2364 C 846.3087 641.189 846.3087 644.3549 844.3561 646.3075 C 842.4035 648.2601 839.2377 648.2601 837.2851 646.3075 Z M 837.2851 646.3075 "/>
</g>
<g id="Layer-1" data-name="P">
<path transform="matrix(1,0,0,1,117.956668,98.17346)" stroke-width="2" stroke-linecap="butt" stroke-miterlimit="4" stroke-linejoin="miter" fill="none" stroke="#000000" d="M 0 13.8818 L 5.890625 .2307594 L 13.1291 24.88738 L 22.8791 0 L 32.39993 25.22396 L 41.64212 .6890927 L 48.28014 26.4375 L 54.89733 11.61719 "/>
</g>
<g id="Layer-1" data-name="P">
<path transform="matrix(1,0,0,1,334.9967,29.016785)" stroke-width="2" stroke-linecap="butt" stroke-miterlimit="4" stroke-linejoin="miter" fill="none" stroke="#000000" d="M 0 13.8818 L 5.890625 .2307594 L 13.1291 24.88738 L 22.8791 0 L 32.39993 25.22396 L 41.64212 .6890927 L 48.28014 26.4375 L 54.89733 11.61719 "/>
</g>
<g id="Layer-1" data-name="P">
<path transform="matrix(1,0,0,1,21.670655,111.948368)" stroke-width="2" stroke-linecap="butt" stroke-miterlimit="4" stroke-linejoin="miter" fill="none" stroke="#000000" d="M 0 0 L 97.36778 0 "/>
</g>
<g id="Layer-1" data-name="P">
<path transform="matrix(1,0,0,1,407.8031,131.258)" stroke-width="2" stroke-linecap="butt" stroke-miterlimit="4" stroke-linejoin="miter" fill="none" stroke="#000000" d="M 0 0 L 145.8872 0 "/>
</g>
<g id="Layer-1" data-name="P">
<path transform="matrix(1,0,0,-1,-602.1099,752.7203)" d="M 1081.321 624.9979 C 1079.368 623.0453 1079.368 619.8794 1081.321 617.9268 C 1083.274 615.9742 1086.439 615.9742 1088.392 617.9268 C 1090.345 619.8794 1090.345 623.0453 1088.392 624.9979 C 1086.439 626.9505 1083.274 626.9505 1081.321 624.9979 Z M 1081.321 624.9979 "/>
</g>
<g id="Layer-1" data-name="P">
<path transform="matrix(1,0,0,-1,389.52748,130.25305)" stroke-width="2" stroke-linecap="butt" stroke-miterlimit="4" stroke-linejoin="miter" fill="none" stroke="#000000" d="M 93.21902 0 L 92.78088 89.38113 L 0 89.44068 "/>
</g>
<g id="Layer-1" data-name="P">
<path transform="matrix(1,0,0,1,171.76709,109.948368)" stroke-width="2" stroke-linecap="butt" stroke-miterlimit="4" stroke-linejoin="miter" fill="none" stroke="#000000" d="M 0 0 L 145.8872 0 "/>
</g>
<g id="Layer-1" data-name="P">
</g>
<g id="Layer-1" data-name="P">
<text xml:space="preserve" transform="matrix(1 0 -0 1 352.94178 18.397095)" font-size="18" font-family="HelveticaNeue"><tspan y="0" x="0">R</tspan></text>
<text xml:space="preserve" transform="matrix(1 0 -0 1 352.94178 18.397095)" font-size="12" font-family="HelveticaNeue"><tspan y="1.277985" x="12.33">2</tspan></text>
</g>
<g id="Layer-1" data-name="P">
</g>
<g id="Layer-1" data-name="P">
<text xml:space="preserve" transform="matrix(1 0 -0 1 135.9018 87.366397)" font-size="18" font-family="HelveticaNeue"><tspan y="0" x="0">R</tspan></text>
<text xml:space="preserve" transform="matrix(1 0 -0 1 135.9018 87.366397)" font-size="12" font-family="HelveticaNeue"><tspan y="1.277985" x="12.33">1</tspan></text>
</g>
<g id="Layer-1" data-name="P">
</g>
<g id="Layer-1" data-name="P">
<text xml:space="preserve" transform="matrix(1 0 -0 1 3.166687 118.42395)" font-size="18" font-family="HelveticaNeue"><tspan y="0" x="0 3.9960004">in</tspan></text>
</g>
<g id="Layer-1" data-name="P">
</g>
<g id="Layer-1" data-name="P">
<text xml:space="preserve" transform="matrix(1 0 -0 1 565.0601 137.172)" font-size="18" font-family="HelveticaNeue"><tspan y="0" x="0 10.332 20.34">out</tspan></text>
</g>
<g id="Layer-1" data-name="P">
</g>
<g id="Layer-1" data-name="P">
<text fill="#5e5e5e" xml:space="preserve" transform="matrix(1 0 -0 1 223.7555 102.53339)" font-size="18" font-family="HelveticaNeue" font-weight="bold"><tspan y="0" x="0">a</tspan></text>
</g>
<g id="Layer-1" data-name="P">
<path transform="matrix(1,0,0,1,239.2544,41.82367)" stroke-width="2" stroke-linecap="butt" stroke-miterlimit="4" stroke-linejoin="miter" fill="none" stroke="#000000" d="M 0 67.11757 L .4695281 0 L 96.81271 1.171364 "/>
</g>
<g id="Layer-1" data-name="P">
</g>
<g id="Layer-1" data-name="P">
<text fill="#5e5e5e" xml:space="preserve" transform="matrix(1 0 -0 1 223.08936 148.8299)" font-size="18" font-family="HelveticaNeue" font-weight="bold"><tspan y="0" x="0">b</tspan></text>
</g>
</g>
</g>
</svg>
