<?xml version="1.0" encoding="UTF-8" standalone="no"?>
<!DOCTYPE svg PUBLIC "-//W3C//DTD SVG 1.1//EN" "http://www.w3.org/Graphics/SVG/1.1/DTD/svg11.dtd">
<svg xmlns="http://www.w3.org/2000/svg" xmlns:xlink="http://www.w3.org/1999/xlink" version="1.1" width="321.27363pt" height="182.86878pt" viewBox="0 0 321.27363 182.86878">
<g enable-background="new">
<clipPath id="cp0">
<path transform="matrix(1,0,0,-1,-799.1484,699.0643)" d="M 0 0 L 1920 0 L 1920 1080 L 0 1080 Z "/>
</clipPath>
<g clip-path="url(#cp0)">
<path transform="matrix(1,0,0,-1,-799.1484,699.0643)" d="M 0 0 L 1920 0 L 1920 1080 L 0 1080 Z " fill="#ffffff"/>
<g id="Layer-1" data-name="P">
<path transform="matrix(1,0,0,1,99.31213,7.319458)" stroke-width="5" stroke-linecap="butt" stroke-miterlimit="4" stroke-linejoin="miter" fill="none" stroke="#000000" d="M 0 0 L 124.2753 0 L 124.2753 167.3257 L 0 167.3257 Z "/>
</g>
<g id="Layer-1" data-name="P">
<path transform="matrix(1,0,0,1,225.58759,19.78595)" stroke-width="3" stroke-linecap="butt" stroke-miterlimit="4" stroke-linejoin="miter" fill="none" stroke="#000000" d="M 0 0 L 11.08991 0 L 11.08991 28.2349 L 0 28.2349 Z "/>
</g>
<g id="Layer-1" data-name="P">
<path transform="matrix(1,0,0,1,225.58759,57.838563)" stroke-width="3" stroke-linecap="butt" stroke-miterlimit="4" stroke-linejoin="miter" fill="none" stroke="#000000" d="M 0 0 L 11.08991 0 L 11.08991 28.2349 L 0 28.2349 Z "/>
</g>
<g id="Layer-1" data-name="P">
<path transform="matrix(1,0,0,1,225.58759,95.891178)" stroke-width="3" stroke-linecap="butt" stroke-miterlimit="4" stroke-linejoin="miter" fill="none" stroke="#000000" d="M 0 0 L 11.08991 0 L 11.08991 28.2349 L 0 28.2349 Z "/>
</g>
<g id="Layer-1" data-name="P">
<path transform="matrix(1,0,0,1,225.58759,133.94379)" stroke-width="3" stroke-linecap="butt" stroke-miterlimit="4" stroke-linejoin="miter" fill="none" stroke="#000000" d="M 0 0 L 11.08991 0 L 11.08991 28.2349 L 0 28.2349 Z "/>
</g>
<g id="Layer-1" data-name="P">
<path transform="matrix(1,0,0,1,87.22223,19.78595)" stroke-width="3" stroke-linecap="butt" stroke-miterlimit="4" stroke-linejoin="miter" fill="none" stroke="#000000" d="M 0 0 L 11.08991 0 L 11.08991 28.2349 L 0 28.2349 Z "/>
</g>
<g id="Layer-1" data-name="P">
<path transform="matrix(1,0,0,1,87.22223,57.838563)" stroke-width="3" stroke-linecap="butt" stroke-miterlimit="4" stroke-linejoin="miter" fill="none" stroke="#000000" d="M 0 0 L 11.08991 0 L 11.08991 28.2349 L 0 28.2349 Z "/>
</g>
<g id="Layer-1" data-name="P">
<path transform="matrix(1,0,0,1,87.22223,95.891178)" stroke-width="3" stroke-linecap="butt" stroke-miterlimit="4" stroke-linejoin="miter" fill="none" stroke="#000000" d="M 0 0 L 11.08991 0 L 11.08991 28.2349 L 0 28.2349 Z "/>
</g>
<g id="Layer-1" data-name="P">
<path transform="matrix(1,0,0,1,87.22223,133.94379)" stroke-width="3" stroke-linecap="butt" stroke-miterlimit="4" stroke-linejoin="miter" fill="none" stroke="#000000" d="M 0 0 L 11.08991 0 L 11.08991 28.2349 L 0 28.2349 Z "/>
</g>
<g id="Layer-1" data-name="P">
<path transform="matrix(1,0,0,-1,-799.1484,699.0643)" d="M 929.0829 677.4054 C 932.9135 673.5748 932.9135 667.3643 929.0829 663.5338 C 925.2524 659.7032 919.0418 659.7032 915.2113 663.5338 C 911.3807 667.3643 911.3807 673.5748 915.2113 677.4054 C 919.0418 681.2359 925.2524 681.2359 929.0829 677.4054 Z M 929.0829 677.4054 " fill="#d5d5d5"/>
<path transform="matrix(1,0,0,1,113.19,18.78595)" stroke-width="1" stroke-linecap="butt" stroke-miterlimit="4" stroke-linejoin="miter" fill="none" stroke="#000000" d="M 16.74454 2.87291 C 20.57509 6.703456 20.57509 12.914 16.74454 16.74454 C 12.914 20.57509 6.703456 20.57509 2.87291 16.74454 C -.9576365 12.914 -.9576365 6.703456 2.87291 2.87291 C 6.703456 -.9576365 12.914 -.9576365 16.74454 2.87291 Z M 16.74454 2.87291 "/>
</g>
<g id="Layer-1" data-name="P">
</g>
<g id="Layer-1" data-name="P">
<text xml:space="preserve" transform="matrix(1 0 -0 1 101.31213 40.408998)" font-size="24" font-family="HelveticaNeue"><tspan y="0" x="0">1</tspan></text>
</g>
<g id="Layer-1" data-name="P">
</g>
<g id="Layer-1" data-name="P">
<text xml:space="preserve" transform="matrix(1 0 -0 1 105.154727 76.737)" font-size="24" font-family="HelveticaNeue"><tspan y="0" x="0">2</tspan></text>
</g>
<g id="Layer-1" data-name="P">
</g>
<g id="Layer-1" data-name="P">
<text xml:space="preserve" transform="matrix(1 0 -0 1 105.154727 116.51416)" font-size="24" font-family="HelveticaNeue"><tspan y="0" x="0">3</tspan></text>
</g>
<g id="Layer-1" data-name="P">
</g>
<g id="Layer-1" data-name="P">
<text xml:space="preserve" transform="matrix(1 0 -0 1 105.154727 156.2511)" font-size="24" font-family="HelveticaNeue"><tspan y="0" x="0">4</tspan></text>
</g>
<g id="Layer-1" data-name="P">
</g>
<g id="Layer-1" data-name="P">
<text xml:space="preserve" transform="matrix(1 0 -0 1 206.24365 157.11334)" font-size="24" font-family="HelveticaNeue"><tspan y="0" x="0">5</tspan></text>
</g>
<g id="Layer-1" data-name="P">
</g>
<g id="Layer-1" data-name="P">
<text xml:space="preserve" transform="matrix(1 0 -0 1 206.24365 119.06067)" font-size="24" font-family="HelveticaNeue"><tspan y="0" x="0">6</tspan></text>
</g>
<g id="Layer-1" data-name="P">
</g>
<g id="Layer-1" data-name="P">
<text xml:space="preserve" transform="matrix(1 0 -0 1 206.24365 78.46155)" font-size="24" font-family="HelveticaNeue"><tspan y="0" x="0">7</tspan></text>
</g>
<g id="Layer-1" data-name="P">
</g>
<g id="Layer-1" data-name="P">
<text xml:space="preserve" transform="matrix(1 0 -0 1 206.24365 41.002077)" font-size="24" font-family="HelveticaNeue"><tspan y="0" x="0">8</tspan></text>
</g>
<g id="Layer-1" data-name="P">
</g>
<g id="Layer-1" data-name="P">
<text xml:space="preserve" transform="matrix(1 0 -0 1 5.847595 42.133546)" font-size="24" font-family="HelveticaNeue"><tspan y="0" x="0 13.344002 20.016003 38.256006 55.584009">1 OUT</tspan></text>
</g>
<g id="Layer-1" data-name="P">
</g>
<g id="Layer-1" data-name="P">
<text xml:space="preserve" transform="matrix(1 0 -0 1 5.847595 81.30896)" font-size="24" font-family="HelveticaNeue"><tspan y="0" x="0 13.344002 20.016003 26.232003 43.560007 50.232007">1 IN &#x2013;</tspan></text>
</g>
<g id="Layer-1" data-name="P">
</g>
<g id="Layer-1" data-name="P">
<text xml:space="preserve" transform="matrix(1 0 -0 1 5.847595 120.4845)" font-size="24" font-family="HelveticaNeue"><tspan y="0" x="0 13.344002 20.016003 26.232003 43.560007 50.232007">1 IN +</tspan></text>
</g>
<g id="Layer-1" data-name="P">
</g>
<g id="Layer-1" data-name="P">
<text xml:space="preserve" transform="matrix(1 0 -0 1 5.847595 159.65985)" font-size="24" font-family="HelveticaNeue"><tspan y="0" x="0">V</tspan></text>
<text xml:space="preserve" transform="matrix(1 0 -0 1 5.847595 159.65985)" font-size="16" font-family="HelveticaNeue"><tspan y="1.70398" x="14.664 26.216">CC</tspan></text>
<text xml:space="preserve" transform="matrix(1 0 -0 1 5.847595 159.65985)" font-size="24" font-family="HelveticaNeue"><tspan y="0" x="37.768 44.440004"> &#x2013;</tspan></text>
</g>
<g id="Layer-1" data-name="P">
</g>
<g id="Layer-1" data-name="P">
<text xml:space="preserve" transform="matrix(1 0 -0 1 246.49567 41.002077)" font-size="24" font-family="HelveticaNeue"><tspan y="0" x="0">V</tspan></text>
<text xml:space="preserve" transform="matrix(1 0 -0 1 246.49567 41.002077)" font-size="16" font-family="HelveticaNeue"><tspan y="1.70398" x="14.664 26.216">CC</tspan></text>
<text xml:space="preserve" transform="matrix(1 0 -0 1 246.49567 41.002077)" font-size="24" font-family="HelveticaNeue"><tspan y="0" x="37.768 44.440004"> +</tspan></text>
</g>
<g id="Layer-1" data-name="P">
</g>
<g id="Layer-1" data-name="P">
<text xml:space="preserve" transform="matrix(1 0 -0 1 246.49567 80.17749)" font-size="24" font-family="HelveticaNeue"><tspan y="0" x="0 13.344002 20.016003 38.256006 55.584009">2 OUT</tspan></text>
</g>
<g id="Layer-1" data-name="P">
</g>
<g id="Layer-1" data-name="P">
<text xml:space="preserve" transform="matrix(1 0 -0 1 246.49567 119.35297)" font-size="24" font-family="HelveticaNeue"><tspan y="0" x="0 13.344002 20.016003 26.232003 43.560007 50.232007">2 IN &#x2013;</tspan></text>
</g>
<g id="Layer-1" data-name="P">
</g>
<g id="Layer-1" data-name="P">
<text xml:space="preserve" transform="matrix(1 0 -0 1 246.49567 158.52838)" font-size="24" font-family="HelveticaNeue"><tspan y="0" x="0 13.344002 20.016003 26.232003 43.560007 50.232007">2 IN +</tspan></text>
</g>
</g>
</g>
</svg>
