<?xml version="1.0" encoding="UTF-8" standalone="no"?>
<!DOCTYPE svg PUBLIC "-//W3C//DTD SVG 1.1//EN" "http://www.w3.org/Graphics/SVG/1.1/DTD/svg11.dtd">
<svg xmlns="http://www.w3.org/2000/svg" xmlns:xlink="http://www.w3.org/1999/xlink" version="1.1" width="884.3392pt" height="289.14918pt" viewBox="0 0 884.3392 289.14918">
<g enable-background="new">
<clipPath id="cp0">
<path transform="matrix(1,0,0,-1,-694.2568,669.9302)" d="M 0 0 L 1920 0 L 1920 1080 L 0 1080 Z "/>
</clipPath>
<g clip-path="url(#cp0)">
<path transform="matrix(1,0,0,-1,-694.2568,669.9302)" d="M 0 0 L 1920 0 L 1920 1080 L 0 1080 Z " fill="#ffffff"/>
<g id="Layer-1" data-name="P">
<path transform="matrix(1,0,0,1,103.6264,22.967957)" stroke-width="2" stroke-linecap="butt" stroke-miterlimit="4" stroke-linejoin="miter" fill="none" stroke="#000000" d="M 0 0 L 54 0 L 54 27 L 0 27 Z "/>
</g>
<g id="Layer-1" data-name="P">
<path transform="matrix(1,0,0,-1,-694.2568,669.9302)" d="M 922.9231 637.9977 C 924.8757 636.0451 924.8757 632.8793 922.9231 630.9267 C 920.9705 628.974 917.8046 628.974 915.852 630.9267 C 913.8994 632.8793 913.8994 636.0451 915.852 637.9977 C 917.8046 639.9503 920.9705 639.9503 922.9231 637.9977 Z M 922.9231 637.9977 "/>
</g>
<g id="Layer-1" data-name="P">
<path transform="matrix(1,0,0,1,40.12213,36.467958)" stroke-width="2" stroke-linecap="butt" stroke-miterlimit="4" stroke-linejoin="miter" fill="none" stroke="#000000" d="M 0 0 L 62.50431 0 "/>
</g>
<g id="Layer-1" data-name="P">
<path transform="matrix(1,0,0,1,158.6264,36.374269)" stroke-width="2" stroke-linecap="butt" stroke-miterlimit="4" stroke-linejoin="miter" fill="none" stroke="#000000" d="M 0 0 L 62.50431 0 "/>
</g>
<g id="Layer-1" data-name="P">
<path transform="matrix(0,-1,1,0,225.30023,107.97229)" stroke-width="2" stroke-linecap="butt" stroke-miterlimit="4" stroke-linejoin="miter" fill="none" stroke="#000000" d="M 0 0 L 68.96379 0 "/>
</g>
<g id="Layer-1" data-name="P">
<path transform="matrix(1,0,0,1,226.30023,35.374269)" stroke-width="2" stroke-linecap="butt" stroke-miterlimit="4" stroke-linejoin="miter" fill="none" stroke="#000000" d="M 0 0 L 115.3077 0 "/>
</g>
<g id="Layer-1" data-name="P">
</g>
<g id="Layer-1" data-name="P">
<text xml:space="preserve" transform="matrix(1 0 -0 1 4.1829226 43.01837)" font-size="24" font-family="ConcourseT3"><tspan y="0" x="0">V</tspan></text>
<text xml:space="preserve" transform="matrix(1 0 -0 1 4.1829226 43.01837)" font-size="16" font-family="ConcourseT3"><tspan y="2.063965" x="14.64 18.32">in</tspan></text>
</g>
<g id="Layer-1" data-name="P">
</g>
<g id="Layer-1" data-name="P">
<text xml:space="preserve" transform="matrix(1 0 -0 1 843.4682 67.514408)" font-size="24" font-family="ConcourseT3"><tspan y="0" x="0">V</tspan></text>
<text xml:space="preserve" transform="matrix(1 0 -0 1 843.4682 67.514408)" font-size="16" font-family="ConcourseT3"><tspan y="2.063965" x="14.64 22.48 30.16">out</tspan></text>
</g>
<g id="Layer-1" data-name="P">
</g>
<g id="Layer-1" data-name="P">
<text xml:space="preserve" transform="matrix(1 0 -0 1 119.94641 43.776063)" font-size="24" font-family="ConcourseT3"><tspan y="0" x="0">Z</tspan></text>
<text xml:space="preserve" transform="matrix(1 0 -0 1 119.94641 43.776063)" font-size="16" font-family="ConcourseT3"><tspan y="2.063965" x="14.16">1</tspan></text>
</g>
<g id="Layer-1" data-name="P">
<path transform="matrix(1,0,0,1,509.21723,63.68878)" stroke-width="2" stroke-linecap="butt" stroke-miterlimit="4" stroke-linejoin="miter" fill="none" stroke="#000000" d="M 247.0357 0 L 245.8746 88.95268 L 0 89.01195 "/>
</g>
<g id="Layer-1" data-name="P">
<path transform="matrix(0,1,-1,-0,681.36727,4.784546)" stroke-width="2" stroke-linecap="butt" stroke-miterlimit="4" stroke-linejoin="miter" fill="none" stroke="#000000" d="M 53.8993 0 L 107.7986 89.77771 L 0 89.77771 Z M 53.8993 0 "/>
</g>
<g id="Layer-1" data-name="P">
</g>
<g id="Layer-1" data-name="P">
<text xml:space="preserve" transform="matrix(1 0 -0 1 594.5892 43.42639)" font-size="24" font-family="HelveticaNeue"><tspan y="0" x="0">+</tspan></text>
</g>
<g id="Layer-1" data-name="P">
</g>
<g id="Layer-1" data-name="P">
<text xml:space="preserve" transform="matrix(1 0 -0 1 595.78927 85.89996)" font-size="24" font-family="HelveticaNeue"><tspan y="0" x="0">&#x2013;</tspan></text>
</g>
<g id="Layer-1" data-name="P">
</g>
<clipPath id="cp1">
<path transform="matrix(1,0,0,-1,-694.2568,669.9302)" d="M 1140.674 462.0703 L 1144.674 462.0703 L 1144.674 526.5746 L 1140.674 526.5746 Z "/>
</clipPath>
<g clip-path="url(#cp1)">
<path transform="matrix(0,-1,1,0,448.41719,206.85987)" stroke-width="2" stroke-linecap="butt" stroke-miterlimit="4" stroke-linejoin="miter" fill="none" stroke="#000000" d="M 0 0 L 62.50431 0 "/>
</g>
<g id="Layer-1" data-name="P">
</g>
<clipPath id="cp2">
<path transform="matrix(1,0,0,-1,-694.2568,669.9302)" d="M 1126.467 461.0703 L 1158.8812 461.0703 L 1158.8812 465.0703 L 1126.467 465.0703 Z "/>
</clipPath>
<g clip-path="url(#cp2)">
<path transform="matrix(1,0,0,1,433.21028,206.85987)" stroke-width="2" stroke-linecap="butt" stroke-miterlimit="4" stroke-linejoin="miter" fill="none" stroke="#000000" d="M 0 0 L 30.41416 0 "/>
</g>
<g id="Layer-1" data-name="P">
</g>
<clipPath id="cp3">
<path transform="matrix(1,0,0,-1,-694.2568,669.9302)" d="M 1130.525 453.1528 L 1152.9392 453.1528 L 1152.9392 457.1528 L 1130.525 457.1528 Z "/>
</clipPath>
<g clip-path="url(#cp3)">
<path transform="matrix(1,0,0,1,437.26826,214.77738)" stroke-width="2" stroke-linecap="butt" stroke-miterlimit="4" stroke-linejoin="miter" fill="none" stroke="#000000" d="M 0 0 L 20.41418 0 "/>
</g>
<g id="Layer-1" data-name="P">
</g>
<clipPath id="cp4">
<path transform="matrix(1,0,0,-1,-694.2568,669.9302)" d="M 1136.525 445.2352 L 1148.9392 445.2352 L 1148.9392 449.2352 L 1136.525 449.2352 Z "/>
</clipPath>
<g clip-path="url(#cp4)">
<path transform="matrix(1,0,0,1,443.26826,222.69498)" stroke-width="2" stroke-linecap="butt" stroke-miterlimit="4" stroke-linejoin="miter" fill="none" stroke="#000000" d="M 0 0 L 10.41419 0 "/>
</g>
<g id="Layer-1" data-name="P">
</g>
<clipPath id="cp5">
<path transform="matrix(1,0,0,-1,-694.2568,669.9302)" d="M 0 0 L 1920 0 L 1920 1080 L 0 1080 Z "/>
</clipPath>
<g clip-path="url(#cp5)">
<path transform="matrix(1,0,0,1,510.21723,78.71326)" stroke-width="2" stroke-linecap="butt" stroke-miterlimit="4" stroke-linejoin="miter" fill="none" stroke="#000000" d="M 0 74.96041 L 1.962252 0 L 81.13191 .5625878 "/>
</g>
<g id="Layer-1" data-name="P">
<path transform="matrix(1,0,0,-1,-694.2568,669.9302)" d="M 1139.139 635.4572 C 1137.186 633.5046 1137.186 630.3388 1139.139 628.3861 C 1141.091 626.4335 1144.257 626.4335 1146.21 628.3861 C 1148.162 630.3388 1148.162 633.5046 1146.21 635.4572 C 1144.257 637.4098 1141.091 637.4098 1139.139 635.4572 Z M 1139.139 635.4572 "/>
</g>
<g id="Layer-1" data-name="P">
<path transform="matrix(0,-1,1,0,448.41719,136.37628)" stroke-width="2" stroke-linecap="butt" stroke-miterlimit="4" stroke-linejoin="miter" fill="none" stroke="#000000" d="M 0 0 L 97.36778 0 "/>
</g>
<g id="Layer-1" data-name="P">
<path transform="matrix(1,0,0,1,681.31027,58.6839)" stroke-width="2" stroke-linecap="butt" stroke-miterlimit="4" stroke-linejoin="miter" fill="none" stroke="#000000" d="M 0 0 L 145.8872 0 "/>
</g>
<g id="Layer-1" data-name="P">
<path transform="matrix(1,0,0,-1,-694.2568,669.9302)" d="M 1446.975 614.7818 C 1445.022 612.8292 1445.022 609.6634 1446.975 607.7108 C 1448.927 605.7581 1452.093 605.7581 1454.046 607.7108 C 1455.998 609.6634 1455.998 612.8292 1454.046 614.7818 C 1452.093 616.7344 1448.927 616.7344 1446.975 614.7818 Z M 1446.975 614.7818 "/>
</g>
<g id="Layer-1" data-name="P">
<path transform="matrix(1,0,0,1,395.60224,37.374269)" stroke-width="2" stroke-linecap="butt" stroke-miterlimit="4" stroke-linejoin="miter" fill="none" stroke="#000000" d="M 0 0 L 195.5586 0 "/>
</g>
<g id="Layer-1" data-name="P">
<path transform="matrix(1,0,0,-1,-694.2568,669.9302)" d="M 1445.975 520.765 C 1444.022 518.8124 1444.022 515.6466 1445.975 513.694 C 1447.927 511.7413 1451.093 511.7413 1453.046 513.694 C 1454.998 515.6466 1454.998 518.8124 1453.046 520.765 C 1451.093 522.7176 1447.927 522.7176 1445.975 520.765 Z M 1445.975 520.765 "/>
</g>
<g id="Layer-1" data-name="P">
<path transform="matrix(1,0,0,-1,-694.2568,669.9302)" d="M 1129.467 506.9447 L 1155.766 506.9447 L 1155.766 560.163 L 1129.467 560.163 Z " fill="#ffffff"/>
<path transform="matrix(0,-1,1,0,435.21028,162.98548)" stroke-width="2" stroke-linecap="butt" stroke-miterlimit="4" stroke-linejoin="miter" fill="none" stroke="#000000" d="M 0 0 L 53.21832 0 L 53.21832 26.29894 L 0 26.29894 Z "/>
</g>
<g id="Layer-1" data-name="P">
</g>
<g id="Layer-1" data-name="P">
<text xml:space="preserve" transform="matrix(1 0 -0 1 437.1292 142.50879)" font-size="24" font-family="ConcourseT3"><tspan y="0" x="0">Z</tspan></text>
<text xml:space="preserve" transform="matrix(1 0 -0 1 437.1292 142.50879)" font-size="16" font-family="ConcourseT3"><tspan y="2.063965" x="14.16">4</tspan></text>
</g>
<g id="Layer-1" data-name="P">
</g>
<g id="Layer-1" data-name="P">
<text xml:space="preserve" transform="matrix(1 0 -0 1 356.77424 43.01837)" font-size="24" font-family="ConcourseT3"><tspan y="0" x="0">Z</tspan></text>
<text xml:space="preserve" transform="matrix(1 0 -0 1 356.77424 43.01837)" font-size="16" font-family="ConcourseT3"><tspan y="2.063965" x="14.16">2</tspan></text>
</g>
<g id="Layer-1" data-name="P">
<path transform="matrix(1,0,0,-1,-694.2568,669.9302)" d="M 905.158 509.7396 L 931.457 509.7396 L 931.457 562.9579 L 905.158 562.9579 Z " fill="#ffffff"/>
<path transform="matrix(0,-1,1,0,210.90125,160.19058)" stroke-width="2" stroke-linecap="butt" stroke-miterlimit="4" stroke-linejoin="miter" fill="none" stroke="#000000" d="M 0 0 L 53.21832 0 L 53.21832 26.29894 L 0 26.29894 Z "/>
</g>
<g id="Layer-1" data-name="P">
</g>
<g id="Layer-1" data-name="P">
<text xml:space="preserve" transform="matrix(1 0 -0 1 213.06024 139.71399)" font-size="24" font-family="ConcourseT3"><tspan y="0" x="0">Z</tspan></text>
<text xml:space="preserve" transform="matrix(1 0 -0 1 213.06024 139.71399)" font-size="16" font-family="ConcourseT3"><tspan y="2.063965" x="14.16">3</tspan></text>
</g>
<g id="Layer-1" data-name="P">
<path transform="matrix(1,0,0,1,222.14282,156.99805)" stroke-width="2" stroke-linecap="butt" stroke-miterlimit="4" stroke-linejoin="miter" fill="none" stroke="#000000" d="M 1.438288 4.062262 L 0 124.2862 L 532.3782 122.4574 L 533.0475 0 "/>
</g>
<g id="Layer-1" data-name="P">
<path transform="matrix(1,0,0,1,341.17427,22.967957)" stroke-width="2" stroke-linecap="butt" stroke-miterlimit="4" stroke-linejoin="miter" fill="none" stroke="#000000" d="M 0 0 L 54 0 L 54 27 L 0 27 Z "/>
</g>
</g>
</g>
</svg>
