<?xml version="1.0" encoding="UTF-8" standalone="no"?>
<!DOCTYPE svg PUBLIC "-//W3C//DTD SVG 1.1//EN" "http://www.w3.org/Graphics/SVG/1.1/DTD/svg11.dtd">
<svg xmlns="http://www.w3.org/2000/svg" xmlns:xlink="http://www.w3.org/1999/xlink" version="1.1" width="950.7512pt" height="249.72711pt" viewBox="0 0 950.7512 249.72711">
<g enable-background="new">
<clipPath id="cp0">
<path transform="matrix(1,0,0,-1,-251.6498,701.1516)" d="M 0 0 L 1920 0 L 1920 1080 L 0 1080 Z "/>
</clipPath>
<g clip-path="url(#cp0)">
<path transform="matrix(1,0,0,-1,-251.6498,701.1516)" d="M 0 0 L 1920 0 L 1920 1080 L 0 1080 Z " fill="#ffffff"/>
<g id="Layer-1" data-name="P">
<path transform="matrix(1,0,0,1,586.171,84.69409)" stroke-width="2" stroke-linecap="butt" stroke-miterlimit="4" stroke-linejoin="miter" fill="none" stroke="#000000" d="M 247.0357 0 L 245.8746 88.95269 L 0 89.01195 "/>
</g>
<g id="Layer-1" data-name="P">
<path transform="matrix(0,1,-1,-0,758.3202,25.79004)" stroke-width="2" stroke-linecap="butt" stroke-miterlimit="4" stroke-linejoin="miter" fill="none" stroke="#000000" d="M 53.8993 0 L 107.7986 89.77771 L 0 89.77771 Z M 53.8993 0 "/>
</g>
<g id="Layer-1" data-name="P">
</g>
<g id="Layer-1" data-name="P">
<text xml:space="preserve" transform="matrix(1 0 -0 1 671.5427 64.4317)" font-size="24" font-family="HelveticaNeue"><tspan y="0" x="0">+</tspan></text>
</g>
<g id="Layer-1" data-name="P">
</g>
<g id="Layer-1" data-name="P">
<text xml:space="preserve" transform="matrix(1 0 -0 1 672.74276 106.905338)" font-size="24" font-family="HelveticaNeue"><tspan y="0" x="0">&#x2013;</tspan></text>
</g>
<g id="Layer-1" data-name="P">
</g>
<clipPath id="cp1">
<path transform="matrix(1,0,0,-1,-251.6498,701.1516)" d="M 775.0205 472.2863 L 779.0205 472.2863 L 779.0205 536.7906 L 775.0205 536.7906 Z "/>
</clipPath>
<g clip-path="url(#cp1)">
<path transform="matrix(0,-1,1,0,525.3707,227.86533)" stroke-width="2" stroke-linecap="butt" stroke-miterlimit="4" stroke-linejoin="miter" fill="none" stroke="#000000" d="M 0 0 L 62.50431 0 "/>
</g>
<g id="Layer-1" data-name="P">
</g>
<clipPath id="cp2">
<path transform="matrix(1,0,0,-1,-251.6498,701.1516)" d="M 760.8135 471.2863 L 793.22769 471.2863 L 793.22769 475.2863 L 760.8135 475.2863 Z "/>
</clipPath>
<g clip-path="url(#cp2)">
<path transform="matrix(1,0,0,1,510.1637,227.86533)" stroke-width="2" stroke-linecap="butt" stroke-miterlimit="4" stroke-linejoin="miter" fill="none" stroke="#000000" d="M 0 0 L 30.41416 0 "/>
</g>
<g id="Layer-1" data-name="P">
</g>
<clipPath id="cp3">
<path transform="matrix(1,0,0,-1,-251.6498,701.1516)" d="M 764.8711 463.3688 L 787.2853 463.3688 L 787.2853 467.3688 L 764.8711 467.3688 Z "/>
</clipPath>
<g clip-path="url(#cp3)">
<path transform="matrix(1,0,0,1,514.2213,235.7828)" stroke-width="2" stroke-linecap="butt" stroke-miterlimit="4" stroke-linejoin="miter" fill="none" stroke="#000000" d="M 0 0 L 20.41418 0 "/>
</g>
<g id="Layer-1" data-name="P">
</g>
<clipPath id="cp4">
<path transform="matrix(1,0,0,-1,-251.6498,701.1516)" d="M 770.8711 455.4513 L 783.2853 455.4513 L 783.2853 459.4513 L 770.8711 459.4513 Z "/>
</clipPath>
<g clip-path="url(#cp4)">
<path transform="matrix(1,0,0,1,520.2213,243.70032)" stroke-width="2" stroke-linecap="butt" stroke-miterlimit="4" stroke-linejoin="miter" fill="none" stroke="#000000" d="M 0 0 L 10.41419 0 "/>
</g>
<g id="Layer-1" data-name="P">
</g>
<clipPath id="cp5">
<path transform="matrix(1,0,0,-1,-251.6498,701.1516)" d="M 0 0 L 1920 0 L 1920 1080 L 0 1080 Z "/>
</clipPath>
<g clip-path="url(#cp5)">
<path transform="matrix(1,0,0,1,587.1704,99.71863)" stroke-width="2" stroke-linecap="butt" stroke-miterlimit="4" stroke-linejoin="miter" fill="none" stroke="#000000" d="M 0 74.96041 L 1.962252 0 L 81.13191 .5625878 "/>
</g>
<g id="Layer-1" data-name="P">
<path transform="matrix(1,0,0,-1,-251.6498,701.1516)" d="M 773.485 645.6733 C 771.5324 643.7206 771.5324 640.5548 773.485 638.6022 C 775.4377 636.6496 778.6035 636.6496 780.5561 638.6022 C 782.5087 640.5548 782.5087 643.7206 780.5561 645.6733 C 778.6035 647.6259 775.4377 647.6259 773.485 645.6733 Z M 773.485 645.6733 "/>
</g>
<g id="Layer-1" data-name="P">
<path transform="matrix(0,-1,1,0,525.37088,157.38172)" stroke-width="2" stroke-linecap="butt" stroke-miterlimit="4" stroke-linejoin="miter" fill="none" stroke="#000000" d="M 0 0 L 97.36778 0 "/>
</g>
<g id="Layer-1" data-name="P">
<path transform="matrix(1,0,0,1,758.26327,79.68933)" stroke-width="2" stroke-linecap="butt" stroke-miterlimit="4" stroke-linejoin="miter" fill="none" stroke="#000000" d="M 0 0 L 145.8872 0 "/>
</g>
<g id="Layer-1" data-name="P">
<path transform="matrix(1,0,0,-1,-251.6498,701.1516)" d="M 1081.321 624.9979 C 1079.368 623.0453 1079.368 619.8794 1081.321 617.9268 C 1083.274 615.9742 1086.439 615.9742 1088.392 617.9268 C 1090.345 619.8794 1090.345 623.0453 1088.392 624.9979 C 1086.439 626.9505 1083.274 626.9505 1081.321 624.9979 Z M 1081.321 624.9979 "/>
</g>
<g id="Layer-1" data-name="P">
<path transform="matrix(1,0,0,1,487.37086,58.3797)" stroke-width="2" stroke-linecap="butt" stroke-miterlimit="4" stroke-linejoin="miter" fill="none" stroke="#000000" d="M 0 0 L 180.7436 0 "/>
</g>
<g id="Layer-1" data-name="P">
</g>
<g id="Layer-1" data-name="P">
<text xml:space="preserve" transform="matrix(1 0 -0 1 480.8728 168.06562)" font-size="18" font-family="HelveticaNeue"><tspan y="0" x="0">C</tspan></text>
</g>
<g id="Layer-1" data-name="P">
</g>
<g id="Layer-1" data-name="P">
<text xml:space="preserve" transform="matrix(1 0 -0 1 6.1597139 44.1297)" font-size="18" font-family="HelveticaNeue"><tspan y="0" x="0 3.9960004">in</tspan></text>
</g>
<g id="Layer-1" data-name="P">
</g>
<g id="Layer-1" data-name="P">
<text xml:space="preserve" transform="matrix(1 0 -0 1 915.52029 85.60333)" font-size="18" font-family="HelveticaNeue"><tspan y="0" x="0 10.332 20.34">out</tspan></text>
</g>
<g id="Layer-1" data-name="P">
<path transform="matrix(1,0,0,1,511.67085,158.38172)" stroke-width="2" stroke-linecap="butt" stroke-miterlimit="4" stroke-linejoin="miter" fill="none" stroke="#000000" d="M 0 0 L 27.4 0 "/>
</g>
<g id="Layer-1" data-name="P">
<path transform="matrix(1,0,0,1,511.67085,166.36103)" stroke-width="2" stroke-linecap="butt" stroke-miterlimit="4" stroke-linejoin="miter" fill="none" stroke="#000000" d="M 0 0 L 27.4 0 "/>
</g>
<g id="Layer-1" data-name="P">
<path transform="matrix(.8762003,-.4819471,.4819471,.8762003,401.59303,59.15692)" stroke-width="2" stroke-linecap="butt" stroke-miterlimit="4" stroke-linejoin="miter" fill="none" stroke="#000000" d="M 0 0 L 90.37178 0 "/>
</g>
<g id="Layer-1" data-name="P">
<path transform="matrix(1,0,0,1,85.163898,64.01874)" stroke-width="2" stroke-linecap="butt" stroke-miterlimit="4" stroke-linejoin="miter" fill="none" stroke="#000000" d="M 247.0357 0 L 245.8746 88.95268 L 0 89.01195 "/>
</g>
<g id="Layer-1" data-name="P">
<path transform="matrix(0,1,-1,-0,257.3133,5.114624)" stroke-width="2" stroke-linecap="butt" stroke-miterlimit="4" stroke-linejoin="miter" fill="none" stroke="#000000" d="M 53.8993 0 L 107.7986 89.77771 L 0 89.77771 Z M 53.8993 0 "/>
</g>
<g id="Layer-1" data-name="P">
</g>
<g id="Layer-1" data-name="P">
<text xml:space="preserve" transform="matrix(1 0 -0 1 170.5355 43.756288)" font-size="24" font-family="HelveticaNeue"><tspan y="0" x="0">+</tspan></text>
</g>
<g id="Layer-1" data-name="P">
</g>
<g id="Layer-1" data-name="P">
<text xml:space="preserve" transform="matrix(1 0 -0 1 171.73552 86.22992)" font-size="24" font-family="HelveticaNeue"><tspan y="0" x="0">&#x2013;</tspan></text>
</g>
<g id="Layer-1" data-name="P">
<path transform="matrix(1,0,0,1,86.163318,79.04321)" stroke-width="2" stroke-linecap="butt" stroke-miterlimit="4" stroke-linejoin="miter" fill="none" stroke="#000000" d="M 0 74.96041 L 1.962252 0 L 81.13191 .5625878 "/>
</g>
<g id="Layer-1" data-name="P">
<path transform="matrix(1,0,0,1,257.25599,59.013917)" stroke-width="2" stroke-linecap="butt" stroke-miterlimit="4" stroke-linejoin="miter" fill="none" stroke="#000000" d="M 0 0 L 145.8872 0 "/>
</g>
<g id="Layer-1" data-name="P">
<path transform="matrix(1,0,0,-1,-251.6498,701.1516)" d="M 580.3138 645.6733 C 578.3612 643.7206 578.3612 640.5548 580.3138 638.6022 C 582.2664 636.6496 585.4323 636.6496 587.3849 638.6022 C 589.3375 640.5548 589.3375 643.7206 587.3849 645.6733 C 585.4323 647.6259 582.2664 647.6259 580.3138 645.6733 Z M 580.3138 645.6733 "/>
</g>
<g id="Layer-1" data-name="P">
<path transform="matrix(1,0,0,1,28.345414,37.704286)" stroke-width="2" stroke-linecap="butt" stroke-miterlimit="4" stroke-linejoin="miter" fill="none" stroke="#000000" d="M 0 0 L 138.7619 0 "/>
</g>
</g>
</g>
</svg>
