<svg xmlns="http://www.w3.org/2000/svg" xmlns:xlink="http://www.w3.org/1999/xlink" version="1.1" width="535.76187pt" height="252.58112pt" viewBox="0 0 535.76187 252.58112">
<defs>
<clipPath id="clip_0">
<path transform="matrix(1,0,0,-1,-661.2451,756.7584)" d="M0 0H1920V1080H0Z"/>
</clipPath>
<path id="font_1_1" d="M.33399964 .28710938V.5058594H.26600648V.28710938H.04800415V.21875H.26600648V0H.33399964V.21875H.55200198V.28710938H.33399964Z"/>
<path id="font_1_11" d="M0 .31835938V.23828125H.5V.31835938H0Z"/>
<clipPath id="clip_2">
<path transform="matrix(1,0,0,-1,-661.2451,756.7584)" d="M820.6135 524.6307H853.0277V528.6307H820.6135Z"/>
</clipPath>
<clipPath id="clip_3">
<path transform="matrix(1,0,0,-1,-661.2451,756.7584)" d="M824.6711 516.7132H847.08529V520.7132H824.6711Z"/>
</clipPath>
<clipPath id="clip_4">
<path transform="matrix(1,0,0,-1,-661.2451,756.7584)" d="M830.6711 508.7957H843.08529V512.79568H830.6711Z"/>
</clipPath>
<clipPath id="clip_5">
<path transform="matrix(1,0,0,-1,-661.2451,756.7584)" d="M0 0H1920V1080H0Z"/>
</clipPath>
<path id="font_1_6" d="M.12600708 .25828553C.12600708 .28959657 .13017273 .31740318 .13850403 .34170533 .14683533 .36601768 .15833538 .38650004 .17300415 .40315248 .18767293 .4198049 .20483907 .4324595 .22450257 .44111634 .24416606 .44977317 .2649994 .45410157 .28700257 .45410157 .30900575 .45410157 .32983909 .44977317 .34950257 .44111634 .36916606 .4324595 .38633219 .4198049 .40100099 .40315248 .41566978 .38650004 .4271698 .36601768 .4355011 .34170533 .4438324 .31740318 .44799806 .28959657 .44799806 .25828553 .44799806 .22698467 .4438324 .19917806 .4355011 .17486573 .4271698 .15055339 .41566978 .13023885 .40100099 .11392212 .38633219 .097605388 .36916606 .085118617 .34950257 .07646179 .32983909 .06780497 .30900575 .06347656 .28700257 .06347656 .2649994 .06347656 .24416606 .06780497 .22450257 .07646179 .20483907 .085118617 .18767293 .097605388 .17300415 .11392212 .15833538 .13023885 .14683533 .15055339 .13850403 .17486573 .13017273 .19917806 .12600708 .22698467 .12600708 .25828553M.035995485 .25827027C.035995485 .22027588 .041325887 .1849416 .051986696 .15226746 .06265768 .11960348 .07865906 .09110006 .099990848 .0667572 .12132263 .04242452 .14765422 .023422242 .1789856 .009750366 .21032715-.0039113366 .24633281-.0107421879 .28700257-.0107421879 .32833354-.0107421879 .36449687-.0039113366 .39549256 .009750366 .4264984 .023422242 .45266725 .04242452 .47399903 .0667572 .4953308 .09110006 .5113271 .11960348 .5219879 .15226746 .5326589 .1849416 .5379944 .22027588 .5379944 .25827027 .5379944 .2962748 .5326589 .33177696 .5219879 .3647766 .5113271 .39778648 .4953308 .42645774 .47399903 .4507904 .45266725 .47512309 .4264984 .49428813 .39549256 .5082855 .36449687 .5222931 .32833354 .5292969 .28700257 .5292969 .24633281 .5292969 .21032715 .5222931 .1789856 .5082855 .14765422 .49428813 .12132263 .47512309 .099990848 .4507904 .07865906 .42645774 .06265768 .39778648 .051986696 .3647766 .041325887 .33177696 .035995485 .2962748 .035995485 .25827027Z"/>
<path id="font_1_10" d="M.4920044 .00024414063V.51660159H.40699769V.22515869C.40699769 .20187378 .40382896 .18041484 .39749146 .16078186 .39116416 .14115906 .3816681 .124028529 .3690033 .10939026 .3563385 .09475199 .34050498 .08344015 .3215027 .07545471 .3025004 .06746928 .27999879 .06347656 .2539978 .06347656 .22133382 .06347656 .19566854 .07278951 .17700196 .091415408 .15833538 .110051479 .14900208 .13534038 .14900208 .1672821V.51660159H.06399536V.17701721C.06399536 .14905294 .06682841 .12358602 .07249451 .100616458 .07816061 .07764689 .08799235 .057835897 .101989749 .04118347 .115997318 .02454122 .1343333 .011723836 .15699768 .0027313233 .17966207-.006251017 .20799764-.0107421879 .2420044-.0107421879 .27999879-.0107421879 .31299339-.0032552083 .34098817 .01171875 .36899314 .02670288 .3919983 .050175985 .41000367 .08213806H.41200257V.00024414063H.4920044Z"/>
<path id="font_1_9" d="M.18200684 .5175781V.671875H.09700012V.5175781H.009002686V.4423828H.09700012V.113098148C.09700012 .08908081 .09933472 .069732669 .104003909 .05505371 .108673099 .040374757 .11583964 .029027304 .12550354 .021011353 .13516744 .013005574 .14783223 .007502238 .16349793 .004501343 .17916362 .0015004476 .19799805 0 .22000122 0H.28500367V.07519531H.2460022C.23266602 .07519531 .22183228 .075693767 .21350098 .076690677 .20516968 .077697757 .19866944 .0798645 .19400025 .08319092 .18934123 .086527507 .18617757 .09119669 .18450928 .09719849 .18284099 .10321045 .18200684 .111216228 .18200684 .12121582V.4423828H.28500367V.5175781H.18200684Z"/>
<path id="font_1_2" d="M.07800293 .7138672V0H.17300415V.3046875H.40499879C.42833457 .3046875 .44700114 .30118815 .46099855 .29418946 .4750061 .28720094 .4863383 .2778778 .49499513 .2662201 .5036621 .25457255 .5099945 .24092102 .5139923 .2252655 .5180003 .20962017 .52133688 .19314067 .5240021 .17582703 .5273387 .15850322 .5293376 .1408488 .5299988 .12286377 .53067019 .104888919 .5313365 .08807373 .5319977 .07241821 .53266909 .05677287 .5341695 .042622884 .536499 .029968262 .53882858 .017313639 .5433299 .0073242189 .55000308 0H.65600588C.6460063 .011993408 .638504 .025817872 .63349917 .04147339 .62850448 .057128908 .6246694 .07361349 .621994 .090927127 .6193288 .10825094 .6176605 .12590535 .61698916 .14389038 .61632797 .16187541 .615331 .17952983 .6139984 .19685364 .61199447 .21416728 .6091614 .2308197 .60549929 .24681092 .60183718 .26280213 .5961711 .27729289 .588501 .2902832 .5808309 .30327354 .5704956 .3144277 .5574951 .32374574 .5444946 .33307395 .5276642 .33973695 .5070038 .34373475V.34573365C.55033877 .3577372 .58183798 .38007609 .60150149 .41275025 .621165 .44543458 .6309967 .4834493 .6309967 .52679446 .6309967 .58481857 .6118266 .63050338 .5734863 .6638489 .53515627 .6971944 .48199464 .7138672 .41400147 .7138672H.07800293M.3710022 .38476563H.17300415V.63378909H.40899659C.45366416 .63378909 .48599754 .6224518 .5059967 .5997772 .5259959 .57711288 .5359955 .54778036 .5359955 .5117798 .5359955 .4857788 .53149417 .46460978 .52249148 .4482727 .51349899 .43193565 .5015004 .41893006 .48649598 .40925599 .47150169 .39959208 .45399986 .39309184 .43399049 .38975526 .4139913 .38642884 .3929952 .38476563 .3710022 .38476563Z"/>
<clipPath id="clip_6">
<path transform="matrix(1,0,0,-1,-661.2451,756.7584)" d="M734.5091 524.6307H766.9233V528.6307H734.5091Z"/>
</clipPath>
<clipPath id="clip_7">
<path transform="matrix(1,0,0,-1,-661.2451,756.7584)" d="M738.5667 516.7132H760.9809V520.7132H738.5667Z"/>
</clipPath>
<clipPath id="clip_8">
<path transform="matrix(1,0,0,-1,-661.2451,756.7584)" d="M744.5667 508.7957H756.9809V512.79568H744.5667Z"/>
</clipPath>
<clipPath id="clip_9">
<path transform="matrix(1,0,0,-1,-661.2451,756.7584)" d="M0 0H1920V1080H0Z"/>
</clipPath>
<path id="font_1_3" d="M.4149933 .3515625H.503006C.4996694 .3821818 .4916687 .40864054 .4790039 .43093873 .4663391 .45324708 .4501699 .47172038 .43049623 .48635865 .41083274 .5010071 .38816834 .51182559 .36250306 .5188141 .33683778 .5258026 .30933634 .5292969 .27999879 .5292969 .23932903 .5292969 .20365906 .5221303 .17298889 .50779727 .1423289 .49346415 .11683146 .47379557 .09649658 .4487915 .076161708 .42378745 .060994466 .39444987 .050994874 .3607788 .04099528 .32711793 .035995485 .2909495 .035995485 .25227357 .035995485 .21360779 .041163129 .17810567 .051498414 .14576721 .0618337 .11342875 .077168788 .08559164 .09750366 .06225586 .11783854 .038930257 .14316814 .020929972 .17349243 .008255005 .2038269-.00440979 .23866272-.0107421879 .27799989-.0107421879 .34399925-.0107421879 .39616395 .0066070558 .43449403 .041305543 .47283427 .07600403 .4966685 .12538655 .5059967 .18945313H.41900636C.41366578 .14946492 .39915977 .11846924 .37548829 .096466068 .351827 .07447306 .31899516 .06347656 .2769928 .06347656 .2503306 .06347656 .22733052 .06880188 .20799256 .079452518 .18866475 .09011332 .17299907 .104268398 .16099549 .121917728 .14900208 .13956706 .14017232 .15971375 .13450623 .18235779 .12884014 .20500183 .12600708 .22831218 .12600708 .25228883 .12600708 .27826945 .12867229 .30341087 .13400269 .327713 .13933309 .35202537 .14816284 .37350465 .16049195 .39215089 .17283122 .41080729 .18933106 .4257965 .20999146 .43711854 .23066204 .44844056 .2563324 .45410157 .28700257 .45410157 .32300315 .45410157 .3516693 .44513957 .3730011 .42721559 .3943329 .40930177 .4083303 .38408409 .4149933 .3515625Z"/>
<path id="font_1_7" d="M.06100464 .5172882V0H.1459961V.23023987C.1459961 .26360575 .14932759 .2931315 .1559906 .31881715 .16266378 .34451295 .17333476 .36636863 .18800354 .38438417 .20267232 .40240989 .2220052 .41609193 .2460022 .4254303 .26999919 .43477885 .29899598 .43945313 .33299256 .43945313V.5292969C.28700257 .53062948 .2490031 .5212911 .21899414 .50128176 .18899536 .48127238 .16366577 .45025636 .14300537 .40823365H.14100647V.5172882H.06100464Z"/>
<path id="font_1_4" d="M.42300416 .3076172H.12600708C.12733968 .3276876 .13167317 .34658305 .13900757 .3643036 .14634197 .3820343 .15634156 .3975881 .16900635 .41096498 .18167115 .42434184 .19683838 .4348755 .21450806 .44256593 .23217774 .45025636 .25200907 .45410157 .27400209 .45410157 .29533387 .45410157 .3148346 .45025636 .33250428 .44256593 .35017396 .4348755 .36550904 .4245046 .37850953 .41145326 .39151 .39841209 .4018402 .38286338 .40950013 .36480714 .4171702 .3467509 .42167155 .3276876 .42300416 .3076172M.5050049 .1640625H.42100526C.41367088 .13019817 .39850364 .10496521 .37550355 .08836365 .35250346 .071772258 .32300315 .06347656 .28700257 .06347656 .25900779 .06347656 .2346751 .068115238 .21400452 .07739258 .19334412 .08666992 .17634583 .099090579 .16300965 .11465454 .14967346 .13022869 .14000447 .14811707 .13400269 .1683197 .1280009 .18853252 .1253357 .2098999 .12600708 .23242188H.5130005C.51433309 .26384483 .51150009 .29694114 .50450137 .33171083 .49750266 .3664805 .48483277 .39857484 .4664917 .42799378 .4481608 .45741273 .42382813 .48164878 .39349366 .5007019 .36315919 .5197652 .32499186 .5292969 .2789917 .5292969 .24366252 .5292969 .2111613 .5226288 .18148804 .5092926 .15182495 .49595643 .12615967 .47728477 .10449219 .4532776 .08282471 .4292806 .065989177 .40094505 .053985597 .36827088 .041992189 .3356069 .035995485 .29961143 .035995485 .26028443 .037328084 .22094727 .04316203 .18461101 .053497316 .15127564 .0638326 .11794027 .079330448 .089269008 .099990848 .06526184 .120661418 .04126485 .14616394 .022598267 .17649842 .009262085 .20683289-.0040740969 .2426656-.0107421879 .28399659-.0107421879 .34267173-.0107421879 .39134217 .00390625 .43000794 .033203126 .4686737 .06251017 .4936727 .10612997 .5050049 .1640625Z"/>
<path id="font_1_5" d="M.06399536 .5172882V0H.14900208V.29206849C.14900208 .31540428 .15216573 .33690898 .15849304 .35658265 .16483052 .37625633 .17433167 .39342753 .18699646 .4080963 .19966126 .4227651 .2154948 .4340973 .23449707 .4420929 .25349937 .45009867 .27600099 .45410157 .30200196 .45410157 .33466593 .45410157 .3603312 .44476319 .3789978 .42608644 .3976644 .40741984 .40699769 .38208518 .40699769 .3500824V0H.4920044V.3401947C.4920044 .36820985 .48917137 .39372254 .48350526 .4167328 .47783915 .43974305 .46800233 .45958457 .45399476 .47625733 .43999736 .49294029 .42166648 .5059509 .39900209 .5152893 .37633769 .5246277 .3480021 .5292969 .31399537 .5292969 .23732503 .5292969 .18132527 .49794517 .1459961 .4352417H.14399719V.5172882H.06399536Z"/>
<path id="font_10_1" d="M0 0Z"/>
<path id="font_1_8" d="M.115997318 .16308594H.03100586C.03233846 .1311137 .039001466 .10397339 .050994874 .08166504 .06299845 .05935669 .07899984 .041371664 .09899902 .027709961 .11899821 .014058431 .14199829 .004236857 .16799927-.0017547608 .19400025-.0077463786 .22133382-.0107421879 .25-.0107421879 .27600099-.0107421879 .3021647-.008239746 .3284912-.0032348633 .35482789 .001759847 .37849427 .010584514 .39949037 .023239136 .4204966 .03590393 .4375 .05256653 .4505005 .07322693 .46350099 .09388733 .47000123 .119878139 .47000123 .15119934 .47000123 .17585755 .46516419 .19651795 .4554901 .21318054 .4458262 .22984314 .4331614 .24367269 .41749574 .2546692 .40183006 .26566569 .38382975 .27449546 .36349488 .28115846 .34317018 .28782145 .32234193 .29348756 .30101014 .29815675 .28100077 .30281578 .2609965 .307312 .24099732 .3116455 .22099813 .315979 .20299785 .32130943 .18699646 .32763673 .17100525 .3339742 .157842 .34197489 .14750672 .3516388 .13717143 .3613027 .13200379 .37346397 .13200379 .38812257 .13200379 .40144859 .13533528 .41227723 .14199829 .42060853 .14867147 .42893983 .15733846 .4356028 .16799927 .44059754 .17867024 .44560243 .19050598 .44910179 .20350647 .45109559 .21650696 .45309959 .2293396 .45410157 .2420044 .45410157 .2560018 .45410157 .26983134 .4526011 .28349305 .44960023 .29716493 .4466095 .30966697 .44178263 .32099916 .43511964 .33233134 .42845664 .34166465 .41963197 .34899903 .40864564 .3563334 .3976593 .3606669 .38383994 .3619995 .3671875H.44700624C.44500224 .39853923 .43833415 .4247233 .42700196 .44573976 .41566978 .4667562 .40050254 .48343406 .38150025 .49577333 .36250816 .5081126 .3406779 .51678469 .31600953 .52178958 .29134117 .52679446 .26433818 .5292969 .23500061 .5292969 .21233623 .5292969 .18950399 .5264638 .1665039 .5207977 .14350383 .51513168 .12283834 .50646468 .10450745 .49479676 .08617655 .48313905 .07117716 .46798197 .059509279 .44932557 .04784139 .43066917 .042007448 .40834556 .042007448 .38235475 .042007448 .34902955 .050338746 .32303874 .06700134 .30438233 .08367411 .28572593 .10450745 .27123008 .12950135 .26089479 .15450542 .25056968 .18167115 .24257405 .21099854 .23690796 .2403361 .23124187 .26750184 .22490947 .29249574 .21791077 .3174998 .21092224 .33833314 .20176189 .35499574 .19042969 .3716685 .17909749 .38000489 .16243489 .38000489 .1404419 .38000489 .12445068 .37600199 .11128744 .36799623 .10095215 .3600006 .09062704 .34983317 .08279928 .3374939 .07746887 .3251648 .072138469 .31166587 .068471278 .29699708 .066467288 .28233848 .06447347 .26834107 .06347656 .25500489 .06347656 .2376709 .06347656 .22083538 .06513468 .20449829 .06845093 .18816121 .071777347 .17349243 .07725525 .16049195 .08488464 .14749146 .09252421 .13699341 .10281881 .1289978 .11576843 .1210022 .12871807 .1166687 .14449056 .115997318 .16308594Z"/>
</defs>
<g clip-path="url(#clip_0)">
<path transform="matrix(1,0,0,-1,-661.2451,756.7584)" d="M0 0H1920V1080H0Z" fill="#ffffff"/>
<path transform="matrix(0,-1,1,0,89.47107,230.12775)" stroke-width="2" stroke-linecap="butt" stroke-miterlimit="4" stroke-linejoin="miter" fill="none" stroke="#000000" d="M0 0H116.114"/>
<path transform="matrix(0,1,-1,-0,348.72486,81.39685)" stroke-width="2" stroke-linecap="butt" stroke-miterlimit="4" stroke-linejoin="miter" fill="none" stroke="#000000" d="M53.8993 0 107.7986 89.77771H0ZM53.8993 0"/>
<use data-text="+" xlink:href="#font_1_1" transform="matrix(24,0,0,-24,265.4359,161.94812)"/>
<use data-text="&#x2013;" xlink:href="#font_1_11" transform="matrix(24,0,0,-24,266.63587,121.92999)"/>
</g>
<g clip-path="url(#clip_2)">
<path transform="matrix(1,0,0,1,160.36841,230.12775)" stroke-width="2" stroke-linecap="butt" stroke-miterlimit="4" stroke-linejoin="miter" fill="none" stroke="#000000" d="M0 0H30.41416"/>
</g>
<g clip-path="url(#clip_3)">
<path transform="matrix(1,0,0,1,164.42597,238.04523)" stroke-width="2" stroke-linecap="butt" stroke-miterlimit="4" stroke-linejoin="miter" fill="none" stroke="#000000" d="M0 0H20.41418"/>
</g>
<g clip-path="url(#clip_4)">
<path transform="matrix(1,0,0,1,170.42597,245.96274)" stroke-width="2" stroke-linecap="butt" stroke-miterlimit="4" stroke-linejoin="miter" fill="none" stroke="#000000" d="M0 0H10.41419"/>
</g>
<g clip-path="url(#clip_5)">
<path transform="matrix(1,0,0,1,348.6679,135.29615)" stroke-width="2" stroke-linecap="butt" stroke-miterlimit="4" stroke-linejoin="miter" fill="none" stroke="#000000" d="M0 0H145.8872"/>
<path transform="matrix(1,0,0,-1,-661.2451,756.7584)" d="M1081.321 624.9979C1079.368 623.0453 1079.368 619.8794 1081.321 617.9268 1083.274 615.9742 1086.439 615.9742 1088.392 617.9268 1090.345 619.8794 1090.345 623.0453 1088.392 624.9979 1086.439 626.9505 1083.274 626.9505 1081.321 624.9979ZM1081.321 624.9979"/>
<path transform="matrix(1,0,0,1,88.47107,114.01361)" stroke-width="2" stroke-linecap="butt" stroke-miterlimit="4" stroke-linejoin="miter" fill="none" stroke="#000000" d="M0 0H170.21"/>
<path transform="matrix(1,0,0,-1,351.94087,132.85065)" stroke-width="2" stroke-linecap="butt" stroke-miterlimit="4" stroke-linejoin="miter" fill="none" stroke="#000000" d="M71.83311 0 71.4955 93.86616 0 93.9287"/>
<use data-text="o" xlink:href="#font_1_6" transform="matrix(18,0,0,-18,505.92494,141.21015)"/>
<use data-text="u" xlink:href="#font_1_10" transform="matrix(18,0,0,-18,516.2569,141.21015)"/>
<use data-text="t" xlink:href="#font_1_9" transform="matrix(18,0,0,-18,526.26498,141.21015)"/>
<path transform="matrix(-1,-0,0,-1,298.55128,112.893619)" stroke-width="2" stroke-linecap="butt" stroke-miterlimit="4" stroke-linejoin="miter" fill="none" stroke="#000000" d="M103.0922 0 102.6077 72.6264 0 72.67479"/>
<path transform="matrix(1,0,0,-1,-661.2451,756.7584)" d="M853.1558 646.7631C851.2032 644.8105 851.2032 641.6447 853.1558 639.692 855.1084 637.7394 858.2743 637.7394 860.2269 639.692 862.1795 641.6447 862.1795 644.8105 860.2269 646.7631 858.2743 648.7157 855.1084 648.7157 853.1558 646.7631ZM853.1558 646.7631"/>
<path transform="matrix(-1,-0,0,-1,259.104,228.89362)" stroke-width="2" stroke-linecap="butt" stroke-miterlimit="4" stroke-linejoin="miter" fill="none" stroke="#000000" d="M83.14496 0 82.75417 72.67325 0 72.72166"/>
<path transform="matrix(1,0,0,1,297.90608,26.677124)" stroke-width="2" stroke-linecap="butt" stroke-miterlimit="4" stroke-linejoin="miter" fill="none" stroke="#000000" d="M0 13.8818 5.890625 .2307594 13.1291 24.88738 22.8791 0 32.39993 25.22396 41.64212 .6890927 48.28014 26.4375 54.89733 11.61719"/>
<use data-text="R" xlink:href="#font_1_2" transform="matrix(18,0,0,-18,317.12727,15.931702)"/>
<path transform="matrix(1,0,0,-1,-661.2451,756.7584)" d="M760.4786 580.4648C766.1234 574.8201 766.1234 565.6682 760.4786 560.0235 754.8339 554.3788 745.6821 554.3788 740.0374 560.0235 734.3926 565.6682 734.3926 574.8201 740.0374 580.4648 745.6821 586.1095 754.8339 586.1095 760.4786 580.4648ZM760.4786 580.4648" fill="#ffffff"/>
<path transform="matrix(1,0,0,1,74.558658,172.06012)" stroke-width="2" stroke-linecap="butt" stroke-miterlimit="4" stroke-linejoin="miter" fill="none" stroke="#000000" d="M24.67482 4.23353C30.31953 9.878238 30.31953 19.03012 24.67482 24.67482 19.03012 30.31953 9.878238 30.31953 4.23353 24.67482-1.411177 19.03012-1.411177 9.878238 4.23353 4.23353 9.878238-1.411177 19.03012-1.411177 24.67482 4.23353ZM24.67482 4.23353"/>
</g>
<g clip-path="url(#clip_6)">
<path transform="matrix(1,0,0,1,74.26398,230.12775)" stroke-width="2" stroke-linecap="butt" stroke-miterlimit="4" stroke-linejoin="miter" fill="none" stroke="#000000" d="M0 0H30.41416"/>
</g>
<g clip-path="url(#clip_7)">
<path transform="matrix(1,0,0,1,78.321598,238.04523)" stroke-width="2" stroke-linecap="butt" stroke-miterlimit="4" stroke-linejoin="miter" fill="none" stroke="#000000" d="M0 0H20.41418"/>
</g>
<g clip-path="url(#clip_8)">
<path transform="matrix(1,0,0,1,84.321598,245.96274)" stroke-width="2" stroke-linecap="butt" stroke-miterlimit="4" stroke-linejoin="miter" fill="none" stroke="#000000" d="M0 0H10.41419"/>
</g>
<g clip-path="url(#clip_9)">
<path transform="matrix(0,-1,1,0,89.47107,195.44922)" stroke-width="2" stroke-linecap="butt" stroke-miterlimit="4" stroke-linejoin="miter" fill="none" stroke="#000000" d="M0 0H8.269828 9.269828"/>
<path transform="matrix(1,0,0,-1,-661.2451,756.7584)" d="M755.5162 569.5791 750.7162 579.1791 745.9162 569.5791Z"/>
<use data-text="c" xlink:href="#font_1_3" transform="matrix(18,0,0,-18,2.0888673,182.42835)"/>
<use data-text="u" xlink:href="#font_1_10" transform="matrix(18,0,0,-18,11.754868,182.42835)"/>
<use data-text="r" xlink:href="#font_1_7" transform="matrix(18,0,0,-18,21.762869,182.42835)"/>
<use data-text="r" xlink:href="#font_1_7" transform="matrix(18,0,0,-18,27.756869,182.42835)"/>
<use data-text="e" xlink:href="#font_1_4" transform="matrix(18,0,0,-18,33.42687,182.42835)"/>
<use data-text="n" xlink:href="#font_1_5" transform="matrix(18,0,0,-18,43.09287,182.42835)"/>
<use data-text="t" xlink:href="#font_1_9" transform="matrix(18,0,0,-18,53.10087,182.42835)"/>
<use data-text="&#x000a;" xlink:href="#font_10_1" transform="matrix(18,0,0,-18,58.770868,182.42835)"/>
<use data-text="s" xlink:href="#font_1_8" transform="matrix(18,0,0,-18,3.2589112,204.42835)"/>
<use data-text="o" xlink:href="#font_1_6" transform="matrix(18,0,0,-18,12.258911,204.42835)"/>
<use data-text="u" xlink:href="#font_1_10" transform="matrix(18,0,0,-18,22.590912,204.42835)"/>
<use data-text="r" xlink:href="#font_1_7" transform="matrix(18,0,0,-18,32.598917,204.42835)"/>
<use data-text="c" xlink:href="#font_1_3" transform="matrix(18,0,0,-18,38.268915,204.42835)"/>
<use data-text="e" xlink:href="#font_1_4" transform="matrix(18,0,0,-18,47.934915,204.42835)"/>
</g>
</svg>
