<?xml version="1.0" encoding="UTF-8" standalone="no"?>
<!DOCTYPE svg PUBLIC "-//W3C//DTD SVG 1.1//EN" "http://www.w3.org/Graphics/SVG/1.1/DTD/svg11.dtd">
<svg xmlns="http://www.w3.org/2000/svg" xmlns:xlink="http://www.w3.org/1999/xlink" version="1.1" width="441.59077pt" height="159.77722pt" viewBox="0 0 441.59077 159.77722">
<g enable-background="new">
<clipPath id="cp0">
<path transform="matrix(1,0,0,-1,-753.0932,679.6785)" d="M 0 0 L 1920 0 L 1920 1080 L 0 1080 Z "/>
</clipPath>
<g clip-path="url(#cp0)">
<path transform="matrix(1,0,0,-1,-753.0932,679.6785)" d="M 0 0 L 1920 0 L 1920 1080 L 0 1080 Z " fill="#ffffff"/>
<g id="Layer-1" data-name="P">
<path transform="matrix(0,1,-1,-0,256.87678,4.3169558)" stroke-width="2" stroke-linecap="butt" stroke-miterlimit="4" stroke-linejoin="miter" fill="none" stroke="#000000" d="M 53.8993 0 L 107.7986 89.77771 L 0 89.77771 Z M 53.8993 0 "/>
</g>
<g id="Layer-1" data-name="P">
</g>
<g id="Layer-1" data-name="P">
<text xml:space="preserve" transform="matrix(1 0 -0 1 170.0993 42.95862)" font-size="24" font-family="HelveticaNeue"><tspan y="0" x="0">+</tspan></text>
</g>
<g id="Layer-1" data-name="P">
</g>
<g id="Layer-1" data-name="P">
<text xml:space="preserve" transform="matrix(1 0 -0 1 171.29932 85.43225)" font-size="24" font-family="HelveticaNeue"><tspan y="0" x="0">&#x2013;</tspan></text>
</g>
<g id="Layer-1" data-name="P">
<path transform="matrix(1,0,0,1,82.72742,152.66175)" stroke-width="2" stroke-linecap="butt" stroke-miterlimit="4" stroke-linejoin="miter" fill="none" stroke="#000000" d="M 0 0 L 155.8163 0 "/>
</g>
<g id="Layer-1" data-name="P">
<path transform="matrix(1,0,0,1,256.81983,58.216249)" stroke-width="2" stroke-linecap="butt" stroke-miterlimit="4" stroke-linejoin="miter" fill="none" stroke="#000000" d="M 0 0 L 145.8872 0 "/>
</g>
<g id="Layer-1" data-name="P">
<path transform="matrix(1,0,0,-1,-753.0932,679.6785)" d="M 1081.321 624.9979 C 1079.368 623.0453 1079.368 619.8794 1081.321 617.9268 C 1083.274 615.9742 1086.439 615.9742 1088.392 617.9268 C 1090.345 619.8794 1090.345 623.0453 1088.392 624.9979 C 1086.439 626.9505 1083.274 626.9505 1081.321 624.9979 Z M 1081.321 624.9979 "/>
</g>
<g id="Layer-1" data-name="P">
<path transform="matrix(1,0,0,1,238.54431,63.22101)" stroke-width="2" stroke-linecap="butt" stroke-miterlimit="4" stroke-linejoin="miter" fill="none" stroke="#000000" d="M 93.21902 0 L 92.78088 89.38113 L 0 89.44068 "/>
</g>
<g id="Layer-1" data-name="P">
<path transform="matrix(1,0,0,1,20.783814,36.906618)" stroke-width="2" stroke-linecap="butt" stroke-miterlimit="4" stroke-linejoin="miter" fill="none" stroke="#000000" d="M 0 0 L 145.8872 0 "/>
</g>
<g id="Layer-1" data-name="P">
</g>
<g id="Layer-1" data-name="P">
<text xml:space="preserve" transform="matrix(1 0 -0 1 2.2797852 42.820619)" font-size="18" font-family="HelveticaNeue"><tspan y="0" x="0 3.9960004">in</tspan></text>
</g>
<g id="Layer-1" data-name="P">
</g>
<g id="Layer-1" data-name="P">
<text xml:space="preserve" transform="matrix(1 0 -0 1 414.07685 64.13025)" font-size="18" font-family="HelveticaNeue"><tspan y="0" x="0 10.332 20.34">out</tspan></text>
</g>
<g id="Layer-1" data-name="P">
<path transform="matrix(1,0,0,1,82.72742,78.94293)" stroke-width="2" stroke-linecap="butt" stroke-miterlimit="4" stroke-linejoin="miter" fill="none" stroke="#000000" d="M 0 0 L 84.07184 0 "/>
</g>
<g id="Layer-1" data-name="P">
<path transform="matrix(0,-1,1,0,83.72742,153.66175)" stroke-width="2" stroke-linecap="butt" stroke-miterlimit="4" stroke-linejoin="miter" fill="none" stroke="#000000" d="M 0 0 L 73.71877 0 "/>
</g>
</g>
</g>
</svg>
